<?xml version="1.0" encoding="UTF-8" standalone="yes"?><svg xmlns="http://www.w3.org/2000/svg" xmlns:xlink="http://www.w3.org/1999/xlink" height="608px" style="width:718px;height:608px;background:#3C3F41;" version="1.1" viewBox="0 0 718 608" width="718px"><defs/><g><text fill="#D3D3D3" font-family="Ubuntu Mono" font-size="10" lengthAdjust="spacingAndGlyphs" textLength="50" x="667" y="8.3">2015-09-10</text><a target="_top" xlink:href="https://esf.itms.pro" xlink:title="https://esf.itms.pro"><text fill="#0000FF" font-family="Ubuntu Mono" font-size="10" lengthAdjust="spacingAndGlyphs" text-decoration="underline" textLength="60" x="657" y="18.3">esf.itms.pro</text><line style="stroke: #0000FF; stroke-width: 1.0;" x1="657" x2="717" y1="20.3" y2="20.3"/></a><text fill="#D3D3D3" font-family="Ubuntu Mono" font-size="30" lengthAdjust="spacingAndGlyphs" textLength="105" x="306" y="44.9">PLG UML</text><text fill="#D3D3D3" font-family="Ubuntu Mono" font-size="30" lengthAdjust="spacingAndGlyphs" textLength="0" x="366" y="74.8999"/><polygon fill="#3C3F41" points="30,244.9999,86,244.9999,93,260.9999,312,260.9999,312,435.4999,30,435.4999,30,244.9999" style="stroke: #D3D3D3; stroke-width: 2.0;"/><line style="stroke: #D3D3D3; stroke-width: 2.0;" x1="30" x2="93" y1="260.9999" y2="260.9999"/><text fill="#D3D3D3" font-family="Ubuntu Mono" font-size="10" font-weight="bold" lengthAdjust="spacingAndGlyphs" textLength="50" x="34" y="255.2999">Transforms</text><rect fill="#3C3F41" height="33" style="stroke: #D3D3D3; stroke-width: 1.5;" width="90" x="54" y="281.9999"/><polygon fill="#3C3F41" points="127,286.9999,127,300.9999,139,300.9999,139,292.9999,133,286.9999,127,286.9999" style="stroke: #D3D3D3; stroke-width: 1.5;"/><line style="stroke: #D3D3D3; stroke-width: 1.5;" x1="133" x2="133" y1="286.9999" y2="292.9999"/><line style="stroke: #D3D3D3; stroke-width: 1.5;" x1="139" x2="133" y1="292.9999" y2="292.9999"/><text fill="#D3D3D3" font-family="Ubuntu Mono" font-size="10" lengthAdjust="spacingAndGlyphs" textLength="60" x="64" y="303.2999">bdr-tsk.json</text><rect fill="#3C3F41" height="33" style="stroke: #D3D3D3; stroke-width: 1.5;" width="90" x="179" y="281.9999"/><polygon fill="#3C3F41" points="252,286.9999,252,300.9999,264,300.9999,264,292.9999,258,286.9999,252,286.9999" style="stroke: #D3D3D3; stroke-width: 1.5;"/><line style="stroke: #D3D3D3; stroke-width: 1.5;" x1="258" x2="258" y1="286.9999" y2="292.9999"/><line style="stroke: #D3D3D3; stroke-width: 1.5;" x1="264" x2="258" y1="292.9999" y2="292.9999"/><text fill="#D3D3D3" font-family="Ubuntu Mono" font-size="10" lengthAdjust="spacingAndGlyphs" textLength="60" x="189" y="303.2999">glp-tsk.json</text><rect fill="#3C3F41" height="33" style="stroke: #D3D3D3; stroke-width: 1.5;" width="65" x="66.5" y="378.4999"/><polygon fill="#3C3F41" points="114.5,383.4999,114.5,397.4999,126.5,397.4999,126.5,389.4999,120.5,383.4999,114.5,383.4999" style="stroke: #D3D3D3; stroke-width: 1.5;"/><line style="stroke: #D3D3D3; stroke-width: 1.5;" x1="120.5" x2="120.5" y1="383.4999" y2="389.4999"/><line style="stroke: #D3D3D3; stroke-width: 1.5;" x1="126.5" x2="120.5" y1="389.4999" y2="389.4999"/><text fill="#D3D3D3" font-family="Ubuntu Mono" font-size="10" lengthAdjust="spacingAndGlyphs" textLength="35" x="76.5" y="399.7999">nm.json</text><rect fill="#3C3F41" height="33" style="stroke: #D3D3D3; stroke-width: 1.5;" width="80" x="167" y="378.4999"/><polygon fill="#3C3F41" points="230,383.4999,230,397.4999,242,397.4999,242,389.4999,236,383.4999,230,383.4999" style="stroke: #D3D3D3; stroke-width: 1.5;"/><line style="stroke: #D3D3D3; stroke-width: 1.5;" x1="236" x2="236" y1="383.4999" y2="389.4999"/><line style="stroke: #D3D3D3; stroke-width: 1.5;" x1="242" x2="236" y1="389.4999" y2="389.4999"/><text fill="#D3D3D3" font-family="Ubuntu Mono" font-size="10" lengthAdjust="spacingAndGlyphs" textLength="50" x="177" y="399.7999">odb-v.json</text><rect fill="#3C3F41" height="40" style="stroke: #D3D3D3; stroke-width: 1.5;" width="80" x="619" y="180.9999"/><rect fill="#3C3F41" height="10" style="stroke: #D3D3D3; stroke-width: 1.5;" width="15" x="679" y="185.9999"/><rect fill="#3C3F41" height="2" style="stroke: #D3D3D3; stroke-width: 1.5;" width="4" x="677" y="187.9999"/><rect fill="#3C3F41" height="2" style="stroke: #D3D3D3; stroke-width: 1.5;" width="4" x="677" y="191.9999"/><text fill="#D3D3D3" font-family="Ubuntu Mono" font-size="10" lengthAdjust="spacingAndGlyphs" textLength="40" x="634" y="209.2999">esf-puml</text><rect fill="#3C3F41" height="33" style="stroke: #D3D3D3; stroke-width: 1.5;" width="75" x="432.5" y="87.9999"/><polygon fill="#3C3F41" points="490.5,92.9999,490.5,106.9999,502.5,106.9999,502.5,98.9999,496.5,92.9999,490.5,92.9999" style="stroke: #D3D3D3; stroke-width: 1.5;"/><line style="stroke: #D3D3D3; stroke-width: 1.5;" x1="496.5" x2="496.5" y1="92.9999" y2="98.9999"/><line style="stroke: #D3D3D3; stroke-width: 1.5;" x1="502.5" x2="496.5" y1="98.9999" y2="98.9999"/><text fill="#D3D3D3" font-family="Ubuntu Mono" font-size="10" lengthAdjust="spacingAndGlyphs" textLength="45" x="442.5" y="109.2999">**/*.puml</text><rect fill="#3C3F41" height="40" style="stroke: #D3D3D3; stroke-width: 1.5;" width="125" x="337.5" y="180.9999"/><rect fill="#3C3F41" height="10" style="stroke: #D3D3D3; stroke-width: 1.5;" width="15" x="442.5" y="185.9999"/><rect fill="#3C3F41" height="2" style="stroke: #D3D3D3; stroke-width: 1.5;" width="4" x="440.5" y="187.9999"/><rect fill="#3C3F41" height="2" style="stroke: #D3D3D3; stroke-width: 1.5;" width="4" x="440.5" y="191.9999"/><text fill="#D3D3D3" font-family="Ubuntu Mono" font-size="10" lengthAdjust="spacingAndGlyphs" textLength="85" x="352.5" y="209.2999">gulp-puml-to-json</text><rect fill="#3C3F41" height="33" style="stroke: #D3D3D3; stroke-width: 1.5;" width="80" x="358" y="281.9999"/><polygon fill="#3C3F41" points="421,286.9999,421,300.9999,433,300.9999,433,292.9999,427,286.9999,421,286.9999" style="stroke: #D3D3D3; stroke-width: 1.5;"/><line style="stroke: #D3D3D3; stroke-width: 1.5;" x1="427" x2="427" y1="286.9999" y2="292.9999"/><line style="stroke: #D3D3D3; stroke-width: 1.5;" x1="433" x2="427" y1="292.9999" y2="292.9999"/><text fill="#D3D3D3" font-family="Ubuntu Mono" font-size="10" lengthAdjust="spacingAndGlyphs" textLength="50" x="368" y="303.2999">jsn/*.json</text><rect fill="#3C3F41" height="40" style="stroke: #D3D3D3; stroke-width: 1.5;" width="85" x="498.5" y="180.9999"/><rect fill="#3C3F41" height="10" style="stroke: #D3D3D3; stroke-width: 1.5;" width="15" x="563.5" y="185.9999"/><rect fill="#3C3F41" height="2" style="stroke: #D3D3D3; stroke-width: 1.5;" width="4" x="561.5" y="187.9999"/><rect fill="#3C3F41" height="2" style="stroke: #D3D3D3; stroke-width: 1.5;" width="4" x="561.5" y="191.9999"/><text fill="#D3D3D3" font-family="Ubuntu Mono" font-size="10" lengthAdjust="spacingAndGlyphs" textLength="45" x="513.5" y="209.2999">gulp-puml</text><rect fill="#3C3F41" height="33" style="stroke: #D3D3D3; stroke-width: 1.5;" width="90" x="503" y="281.9999"/><polygon fill="#3C3F41" points="576,286.9999,576,300.9999,588,300.9999,588,292.9999,582,286.9999,576,286.9999" style="stroke: #D3D3D3; stroke-width: 1.5;"/><line style="stroke: #D3D3D3; stroke-width: 1.5;" x1="582" x2="582" y1="286.9999" y2="292.9999"/><line style="stroke: #D3D3D3; stroke-width: 1.5;" x1="588" x2="582" y1="292.9999" y2="292.9999"/><text fill="#D3D3D3" font-family="Ubuntu Mono" font-size="10" lengthAdjust="spacingAndGlyphs" textLength="60" x="513" y="303.2999">svg/**/*.svg</text><rect fill="#3C3F41" height="40" style="stroke: #D3D3D3; stroke-width: 1.5;" width="125" x="486.5" y="374.9999"/><rect fill="#3C3F41" height="10" style="stroke: #D3D3D3; stroke-width: 1.5;" width="15" x="591.5" y="379.9999"/><rect fill="#3C3F41" height="2" style="stroke: #D3D3D3; stroke-width: 1.5;" width="4" x="589.5" y="381.9999"/><rect fill="#3C3F41" height="2" style="stroke: #D3D3D3; stroke-width: 1.5;" width="4" x="589.5" y="385.9999"/><text fill="#D3D3D3" font-family="Ubuntu Mono" font-size="10" lengthAdjust="spacingAndGlyphs" textLength="85" x="501.5" y="403.2999">gulp-puml-postsvg</text><rect fill="#3C3F41" height="33" style="stroke: #D3D3D3; stroke-width: 1.5;" width="75" x="511.5" y="510.4999"/><polygon fill="#3C3F41" points="569.5,515.4999,569.5,529.4999,581.5,529.4999,581.5,521.4999,575.5,515.4999,569.5,515.4999" style="stroke: #D3D3D3; stroke-width: 1.5;"/><line style="stroke: #D3D3D3; stroke-width: 1.5;" x1="575.5" x2="575.5" y1="515.4999" y2="521.4999"/><line style="stroke: #D3D3D3; stroke-width: 1.5;" x1="581.5" x2="575.5" y1="521.4999" y2="521.4999"/><text fill="#D3D3D3" font-family="Ubuntu Mono" font-size="10" lengthAdjust="spacingAndGlyphs" textLength="45" x="521.5" y="531.7999">i/*.p.svg</text><rect fill="#3C3F41" height="40" style="stroke: #D3D3D3; stroke-width: 1.5;" width="115" x="336.5" y="374.9999"/><rect fill="#3C3F41" height="10" style="stroke: #D3D3D3; stroke-width: 1.5;" width="15" x="431.5" y="379.9999"/><rect fill="#3C3F41" height="2" style="stroke: #D3D3D3; stroke-width: 1.5;" width="4" x="429.5" y="381.9999"/><rect fill="#3C3F41" height="2" style="stroke: #D3D3D3; stroke-width: 1.5;" width="4" x="429.5" y="385.9999"/><text fill="#D3D3D3" font-family="Ubuntu Mono" font-size="10" lengthAdjust="spacingAndGlyphs" textLength="75" x="351.5" y="403.2999">gulp-json-to-so</text><rect fill="#3C3F41" height="33" style="stroke: #D3D3D3; stroke-width: 1.5;" width="75" x="356.5" y="510.4999"/><polygon fill="#3C3F41" points="414.5,515.4999,414.5,529.4999,426.5,529.4999,426.5,521.4999,420.5,515.4999,414.5,515.4999" style="stroke: #D3D3D3; stroke-width: 1.5;"/><line style="stroke: #D3D3D3; stroke-width: 1.5;" x1="420.5" x2="420.5" y1="515.4999" y2="521.4999"/><line style="stroke: #D3D3D3; stroke-width: 1.5;" x1="426.5" x2="420.5" y1="521.4999" y2="521.4999"/><text fill="#D3D3D3" font-family="Ubuntu Mono" font-size="10" lengthAdjust="spacingAndGlyphs" textLength="45" x="366.5" y="531.7999">so/*.json</text><polygon fill="#3C3F41" points="174.5,474.9999,174.5,579,321.5,579,321.5,484.9999,311.5,474.9999,174.5,474.9999" style="stroke: #D3D3D3; stroke-width: 1.0;"/><polygon fill="#3C3F41" points="174.5,474.9999,174.5,579,321.5,579,321.5,530.9999,356.371,526.9999,321.5,522.9999,321.5,484.9999,311.5,474.9999,174.5,474.9999" style="stroke: #D3D3D3; stroke-width: 1.0;"/><line style="stroke: #D3D3D3; stroke-width: 1.0;" x1="311.5" x2="311.5" y1="474.9999" y2="484.9999"/><line style="stroke: #D3D3D3; stroke-width: 1.0;" x1="321.5" x2="311.5" y1="484.9999" y2="484.9999"/><text fill="#D3D3D3" font-family="Ubuntu Mono" font-size="12" font-weight="bold" lengthAdjust="spacingAndGlyphs" textLength="126" x="180.5" y="489.96">Semantic Object Types</text><line style="stroke: #D3D3D3; stroke-width: 1.0; stroke-dasharray: 1.0,2.0;" x1="175.5" x2="320.5" y1="492" y2="492"/><text fill="#D3D3D3" font-family="Ubuntu Mono" font-size="10" lengthAdjust="spacingAndGlyphs" textLength="10" x="180.5" y="504.3">SO</text><text fill="#D3D3D3" font-family="Ubuntu Mono" font-size="10" lengthAdjust="spacingAndGlyphs" textLength="20" x="203.5" y="516.3">task</text><text fill="#D3D3D3" font-family="Ubuntu Mono" font-size="10" lengthAdjust="spacingAndGlyphs" textLength="15" x="211.5" y="526.3">bdr</text><text fill="#D3D3D3" font-family="Ubuntu Mono" font-size="10" lengthAdjust="spacingAndGlyphs" textLength="20" x="219.5" y="536.3">gulp</text><text fill="#D3D3D3" font-family="Ubuntu Mono" font-size="10" lengthAdjust="spacingAndGlyphs" textLength="25" x="203.5" y="546.3">class</text><text fill="#D3D3D3" font-family="Ubuntu Mono" font-size="10" lengthAdjust="spacingAndGlyphs" textLength="15" x="211.5" y="556.3">mod</text><text fill="#D3D3D3" font-family="Ubuntu Mono" font-size="10" lengthAdjust="spacingAndGlyphs" textLength="20" x="211.5" y="566.3">odbV</text><rect fill="#3C3F41" height="2" style="stroke: #D3D3D3; stroke-width: 1.0;" width="2" x="195.5" y="512"/><line style="stroke: #D3D3D3; stroke-width: 1.0;" x1="188.5" x2="196.5" y1="513" y2="513"/><line style="stroke: #D3D3D3; stroke-width: 1.0;" x1="188.5" x2="188.5" y1="508" y2="513"/><rect fill="#3C3F41" height="2" style="stroke: #D3D3D3; stroke-width: 1.0;" width="2" x="203.5" y="522"/><line style="stroke: #D3D3D3; stroke-width: 1.0;" x1="196.5" x2="204.5" y1="523" y2="523"/><line style="stroke: #D3D3D3; stroke-width: 1.0;" x1="196.5" x2="196.5" y1="513" y2="523"/><rect fill="#3C3F41" height="2" style="stroke: #D3D3D3; stroke-width: 1.0;" width="2" x="211.5" y="532"/><line style="stroke: #D3D3D3; stroke-width: 1.0;" x1="204.5" x2="212.5" y1="533" y2="533"/><line style="stroke: #D3D3D3; stroke-width: 1.0;" x1="204.5" x2="204.5" y1="523" y2="533"/><rect fill="#3C3F41" height="2" style="stroke: #D3D3D3; stroke-width: 1.0;" width="2" x="195.5" y="542"/><line style="stroke: #D3D3D3; stroke-width: 1.0;" x1="188.5" x2="196.5" y1="543" y2="543"/><line style="stroke: #D3D3D3; stroke-width: 1.0;" x1="188.5" x2="188.5" y1="513" y2="543"/><rect fill="#3C3F41" height="2" style="stroke: #D3D3D3; stroke-width: 1.0;" width="2" x="203.5" y="552"/><line style="stroke: #D3D3D3; stroke-width: 1.0;" x1="196.5" x2="204.5" y1="553" y2="553"/><line style="stroke: #D3D3D3; stroke-width: 1.0;" x1="196.5" x2="196.5" y1="543" y2="553"/><rect fill="#3C3F41" height="2" style="stroke: #D3D3D3; stroke-width: 1.0;" width="2" x="203.5" y="562"/><line style="stroke: #D3D3D3; stroke-width: 1.0;" x1="196.5" x2="204.5" y1="563" y2="563"/><line style="stroke: #D3D3D3; stroke-width: 1.0;" x1="196.5" x2="196.5" y1="553" y2="563"/><path d="M458.441,121.1049 C447.272,136.1829 430.209,159.2179 417.398,176.5119 " fill="none" style="stroke: #D3D3D3; stroke-width: 1.0;"/><polygon fill="#D3D3D3" points="414.239,180.7769,422.8106,175.9264,417.2154,176.7594,416.3825,171.1642,414.239,180.7769" style="stroke: #D3D3D3; stroke-width: 1.0;"/><path d="M399.595,221.3259 C399.259,237.3869 398.781,260.1939 398.436,276.6609 " fill="none" style="stroke: #D3D3D3; stroke-width: 1.0;"/><polygon fill="#D3D3D3" points="398.325,281.9839,402.5119,273.0693,398.4293,276.985,394.5136,272.9025,398.325,281.9839" style="stroke: #D3D3D3; stroke-width: 1.0;"/><path d="M397.339,315.1049 C396.712,329.9269 395.759,352.4399 395.032,369.6279 " fill="none" style="stroke: #D3D3D3; stroke-width: 1.0;"/><polygon fill="#D3D3D3" points="394.814,374.7769,399.191,365.9541,395.0254,369.7814,391.1981,365.6159,394.814,374.7769" style="stroke: #D3D3D3; stroke-width: 1.0;"/><path d="M394,415.1819 C394,439.3149 394,480.5936 394,505.3841 " fill="none" style="stroke: #D3D3D3; stroke-width: 1.0;"/><polygon fill="#D3D3D3" points="394,510.4117,398,501.4117,394,505.4117,390,501.4117,394,510.4117" style="stroke: #D3D3D3; stroke-width: 1.0;"/><path d="M481.724,121.1049 C493.053,136.1829 510.36,159.2179 523.353,176.5119 " fill="none" style="stroke: #D3D3D3; stroke-width: 1.0;"/><polygon fill="#D3D3D3" points="526.557,180.7769,524.3471,171.1792,523.5529,176.78,517.9521,175.9858,526.557,180.7769" style="stroke: #D3D3D3; stroke-width: 1.0;"/><path d="M542.417,221.3259 C543.594,237.3869 545.266,260.1939 546.473,276.6609 " fill="none" style="stroke: #D3D3D3; stroke-width: 1.0;"/><polygon fill="#D3D3D3" points="546.863,281.9839,550.1939,272.7154,546.4972,276.9973,542.2153,273.3007,546.863,281.9839" style="stroke: #D3D3D3; stroke-width: 1.0;"/><path d="M548.165,315.1049 C548.322,329.9269 548.56,352.4399 548.742,369.6279 " fill="none" style="stroke: #D3D3D3; stroke-width: 1.0;"/><polygon fill="#D3D3D3" points="548.797,374.7769,552.7016,365.7352,548.7441,369.7772,544.7021,365.8197,548.797,374.7769" style="stroke: #D3D3D3; stroke-width: 1.0;"/><path d="M549,415.1819 C549,439.3149 549,480.5936 549,505.3841 " fill="none" style="stroke: #D3D3D3; stroke-width: 1.0;"/><polygon fill="#D3D3D3" points="549,510.4117,553,501.4117,549,505.4117,545,501.4117,549,510.4117" style="stroke: #D3D3D3; stroke-width: 1.0;"/><path d="M311.599,307.4789 C325.679,322.2619 356.178,354.2869 375.862,374.9549 " fill="none" style="stroke: #D3D3D3; stroke-width: 1.0; stroke-dasharray: 7.0,7.0;"/><path d="M583.867,200.9999 C593.781,200.9999 603.694,200.9999 613.608,200.9999 " fill="none" style="stroke: #D3D3D3; stroke-width: 1.0; stroke-dasharray: 7.0,7.0;"/><polygon fill="#D3D3D3" points="618.792,200.9999,609.792,196.9999,613.792,200.9999,609.792,204.9999,618.792,200.9999" style="stroke: #D3D3D3; stroke-width: 1.0;"/><text fill="#D3D3D3" font-family="Ubuntu Mono" font-size="10" lengthAdjust="spacingAndGlyphs" textLength="0" x="361" y="597.2999"/><text fill="#D3D3D3" font-family="Ubuntu Mono" font-size="10" lengthAdjust="spacingAndGlyphs" textLength="80" x="318.5" y="607.2999">© ITMS 2015-2016</text></g></svg>