<?xml version="1.0" encoding="UTF-8" standalone="yes"?><svg xmlns="http://www.w3.org/2000/svg" xmlns:xlink="http://www.w3.org/1999/xlink" height="787px" style="width:2688px;height:787px;background:#3C3F41;" version="1.1" viewBox="0 0 2688 787" width="2688px"><defs/><g><rect fill="#3C3F41" height="22.0001" style="stroke: #808080; stroke-width: 1.0;" width="68" x="2370" y="8"/><ellipse cx="2379" cy="19" fill="#BDB76B" rx="5" ry="5" style="stroke: #808080; stroke-width: 1.0;"/><path d="M2379.1094,17.0625 L2378.625,19.1563 L2379.5781,19.1563 L2379.1094,17.0625 Z M2378.4844,16.1407 L2379.7188,16.1407 L2381.1094,21.25 L2380.0938,21.25 L2379.7813,19.9844 L2378.4219,19.9844 L2378.125,21.25 L2377.1094,21.25 L2378.4844,16.1407 Z "/><text fill="#D3D3D3" font-family="Ubuntu Mono" font-size="12" font-style="italic" lengthAdjust="spacingAndGlyphs" textLength="48" x="2387" y="22.9601">cfg.json</text><rect fill="#3C3F41" height="22.0001" style="stroke: #808080; stroke-width: 1.0;" width="134" x="1663" y="418"/><ellipse cx="1672" cy="429" fill="#BDB76B" rx="5" ry="5" style="stroke: #808080; stroke-width: 1.0;"/><path d="M1672.1094,427.0625 L1671.625,429.1563 L1672.5781,429.1563 L1672.1094,427.0625 Z M1671.4844,426.1407 L1672.7188,426.1407 L1674.1094,431.25 L1673.0938,431.25 L1672.7813,429.9844 L1671.4219,429.9844 L1671.125,431.25 L1670.1094,431.25 L1671.4844,426.1407 Z "/><text fill="#D3D3D3" font-family="Ubuntu Mono" font-size="12" font-style="italic" lengthAdjust="spacingAndGlyphs" textLength="114" x="1680" y="432.9601">tpl/rme.md.mustache</text><rect fill="#3C3F41" height="22.0001" style="stroke: #808080; stroke-width: 1.0;" width="146" x="1482" y="418"/><ellipse cx="1491" cy="429" fill="#BDB76B" rx="5" ry="5" style="stroke: #808080; stroke-width: 1.0;"/><path d="M1491.1094,427.0625 L1490.625,429.1563 L1491.5781,429.1563 L1491.1094,427.0625 Z M1490.4844,426.1407 L1491.7188,426.1407 L1493.1094,431.25 L1492.0938,431.25 L1491.7813,429.9844 L1490.4219,429.9844 L1490.125,431.25 L1489.1094,431.25 L1490.4844,426.1407 Z "/><text fill="#A9A9A9" font-family="Ubuntu Mono" font-size="12" font-style="italic" lengthAdjust="spacingAndGlyphs" textLength="126" x="1499" y="432.9601">.tmp/rme.jsn.mustache</text><rect fill="#3C3F41" height="22.0001" style="stroke: #808080; stroke-width: 1.0;" width="68" x="2283" y="90"/><ellipse cx="2292" cy="101" fill="#FFEFD5" rx="5" ry="5" style="stroke: #808080; stroke-width: 1.0;"/><path d="M2290.5625,99.25 L2290.5625,100.7344 L2290.9688,100.7344 Q2291.4688,100.7344 2291.6719,100.5704 Q2291.875,100.4063 2291.875,100 Q2291.875,99.5782 2291.6719,99.4141 Q2291.4688,99.25 2290.9688,99.25 L2290.5625,99.25 Z M2289.5469,98.3907 L2290.9375,98.3907 Q2292,98.3907 2292.4609,98.7735 Q2292.9219,99.1563 2292.9219,100 Q2292.9219,100.8438 2292.4609,101.2188 Q2292,101.5938 2290.9375,101.5938 L2290.5625,101.5938 L2290.5625,103.5 L2289.5469,103.5 L2289.5469,98.3907 Z "/><text fill="#D3D3D3" font-family="Ubuntu Mono" font-size="12" lengthAdjust="spacingAndGlyphs" textLength="48" x="2300" y="104.9601">fs-extra</text><rect fill="#3C3F41" height="22.0001" style="stroke: #808080; stroke-width: 1.0;" width="104" x="2474" y="500"/><ellipse cx="2483" cy="511" fill="#FFEFD5" rx="5" ry="5" style="stroke: #808080; stroke-width: 1.0;"/><path d="M2481.5625,509.25 L2481.5625,510.7344 L2481.9688,510.7344 Q2482.4688,510.7344 2482.6719,510.5704 Q2482.875,510.4063 2482.875,510 Q2482.875,509.5782 2482.6719,509.4141 Q2482.4688,509.25 2481.9688,509.25 L2481.5625,509.25 Z M2480.5469,508.3907 L2481.9375,508.3907 Q2483,508.3907 2483.4609,508.7735 Q2483.9219,509.1563 2483.9219,510 Q2483.9219,510.8438 2483.4609,511.2188 Q2483,511.5938 2481.9375,511.5938 L2481.5625,511.5938 L2481.5625,513.5 L2480.5469,513.5 L2480.5469,508.3907 Z "/><text fill="#D3D3D3" font-family="Ubuntu Mono" font-size="12" lengthAdjust="spacingAndGlyphs" textLength="84" x="2491" y="514.9601">gulp-changelog</text><rect fill="#3C3F41" height="22.0001" style="stroke: #808080; stroke-width: 1.0;" width="74" x="2365" y="500"/><ellipse cx="2374" cy="511" fill="#FFEFD5" rx="5" ry="5" style="stroke: #808080; stroke-width: 1.0;"/><path d="M2372.5625,509.25 L2372.5625,510.7344 L2372.9688,510.7344 Q2373.4688,510.7344 2373.6719,510.5704 Q2373.875,510.4063 2373.875,510 Q2373.875,509.5782 2373.6719,509.4141 Q2373.4688,509.25 2372.9688,509.25 L2372.5625,509.25 Z M2371.5469,508.3907 L2372.9375,508.3907 Q2374,508.3907 2374.4609,508.7735 Q2374.9219,509.1563 2374.9219,510 Q2374.9219,510.8438 2374.4609,511.2188 Q2374,511.5938 2372.9375,511.5938 L2372.5625,511.5938 L2372.5625,513.5 L2371.5469,513.5 L2371.5469,508.3907 Z "/><text fill="#D3D3D3" font-family="Ubuntu Mono" font-size="12" lengthAdjust="spacingAndGlyphs" textLength="54" x="2382" y="514.9601">gulp-todo</text><rect fill="#3C3F41" height="22.0001" style="stroke: #808080; stroke-width: 1.0;" width="68" x="2616" y="418"/><ellipse cx="2625" cy="429" fill="#FFEFD5" rx="5" ry="5" style="stroke: #808080; stroke-width: 1.0;"/><path d="M2623.5625,427.25 L2623.5625,428.7344 L2623.9688,428.7344 Q2624.4688,428.7344 2624.6719,428.5704 Q2624.875,428.4063 2624.875,428 Q2624.875,427.5782 2624.6719,427.4141 Q2624.4688,427.25 2623.9688,427.25 L2623.5625,427.25 Z M2622.5469,426.3907 L2623.9375,426.3907 Q2625,426.3907 2625.4609,426.7735 Q2625.9219,427.1563 2625.9219,428 Q2625.9219,428.8438 2625.4609,429.2188 Q2625,429.5938 2623.9375,429.5938 L2623.5625,429.5938 L2623.5625,431.5 L2622.5469,431.5 L2622.5469,426.3907 Z "/><text fill="#D3D3D3" font-family="Ubuntu Mono" font-size="12" lengthAdjust="spacingAndGlyphs" textLength="48" x="2633" y="432.9601">esf-puml</text><rect fill="#3C3F41" height="22.0001" style="stroke: #808080; stroke-width: 1.0;" width="74" x="2613" y="500"/><ellipse cx="2622" cy="511" fill="#FFEFD5" rx="5" ry="5" style="stroke: #808080; stroke-width: 1.0;"/><path d="M2620.5625,509.25 L2620.5625,510.7344 L2620.9688,510.7344 Q2621.4688,510.7344 2621.6719,510.5704 Q2621.875,510.4063 2621.875,510 Q2621.875,509.5782 2621.6719,509.4141 Q2621.4688,509.25 2620.9688,509.25 L2620.5625,509.25 Z M2619.5469,508.3907 L2620.9375,508.3907 Q2622,508.3907 2622.4609,508.7735 Q2622.9219,509.1563 2622.9219,510 Q2622.9219,510.8438 2622.4609,511.2188 Q2622,511.5938 2620.9375,511.5938 L2620.5625,511.5938 L2620.5625,513.5 L2619.5469,513.5 L2619.5469,508.3907 Z "/><text fill="#D3D3D3" font-family="Ubuntu Mono" font-size="12" lengthAdjust="spacingAndGlyphs" textLength="54" x="2630" y="514.9601">gulp-puml</text><rect fill="#3C3F41" height="22.0001" style="stroke: #808080; stroke-width: 1.0;" width="80" x="1172" y="500"/><ellipse cx="1181" cy="511" fill="#FFEFD5" rx="5" ry="5" style="stroke: #808080; stroke-width: 1.0;"/><path d="M1179.5625,509.25 L1179.5625,510.7344 L1179.9688,510.7344 Q1180.4688,510.7344 1180.6719,510.5704 Q1180.875,510.4063 1180.875,510 Q1180.875,509.5782 1180.6719,509.4141 Q1180.4688,509.25 1179.9688,509.25 L1179.5625,509.25 Z M1178.5469,508.3907 L1179.9375,508.3907 Q1181,508.3907 1181.4609,508.7735 Q1181.9219,509.1563 1181.9219,510 Q1181.9219,510.8438 1181.4609,511.2188 Q1181,511.5938 1179.9375,511.5938 L1179.5625,511.5938 L1179.5625,513.5 L1178.5469,513.5 L1178.5469,508.3907 Z "/><text fill="#D3D3D3" font-family="Ubuntu Mono" font-size="12" lengthAdjust="spacingAndGlyphs" textLength="60" x="1189" y="514.9601">gulp-jsdoc</text><rect fill="#3C3F41" height="22.0001" style="stroke: #808080; stroke-width: 1.0;" width="86" x="1287" y="500"/><ellipse cx="1296" cy="511" fill="#FFEFD5" rx="5" ry="5" style="stroke: #808080; stroke-width: 1.0;"/><path d="M1294.5625,509.25 L1294.5625,510.7344 L1294.9688,510.7344 Q1295.4688,510.7344 1295.6719,510.5704 Q1295.875,510.4063 1295.875,510 Q1295.875,509.5782 1295.6719,509.4141 Q1295.4688,509.25 1294.9688,509.25 L1294.5625,509.25 Z M1293.5469,508.3907 L1294.9375,508.3907 Q1296,508.3907 1296.4609,508.7735 Q1296.9219,509.1563 1296.9219,510 Q1296.9219,510.8438 1296.4609,511.2188 Q1296,511.5938 1294.9375,511.5938 L1294.5625,511.5938 L1294.5625,513.5 L1293.5469,513.5 L1293.5469,508.3907 Z "/><text fill="#D3D3D3" font-family="Ubuntu Mono" font-size="12" lengthAdjust="spacingAndGlyphs" textLength="66" x="1304" y="514.9601">gulp-ngdocs</text><rect fill="#3C3F41" height="22.0001" style="stroke: #808080; stroke-width: 1.0;" width="146" x="1408" y="500"/><ellipse cx="1417" cy="511" fill="#FFEFD5" rx="5" ry="5" style="stroke: #808080; stroke-width: 1.0;"/><path d="M1415.5625,509.25 L1415.5625,510.7344 L1415.9688,510.7344 Q1416.4688,510.7344 1416.6719,510.5704 Q1416.875,510.4063 1416.875,510 Q1416.875,509.5782 1416.6719,509.4141 Q1416.4688,509.25 1415.9688,509.25 L1415.5625,509.25 Z M1414.5469,508.3907 L1415.9375,508.3907 Q1417,508.3907 1417.4609,508.7735 Q1417.9219,509.1563 1417.9219,510 Q1417.9219,510.8438 1417.4609,511.2188 Q1417,511.5938 1415.9375,511.5938 L1415.5625,511.5938 L1415.5625,513.5 L1414.5469,513.5 L1414.5469,508.3907 Z "/><text fill="#D3D3D3" font-family="Ubuntu Mono" font-size="12" lengthAdjust="spacingAndGlyphs" textLength="126" x="1425" y="514.9601">gulp-license-gatherer</text><rect fill="#3C3F41" height="22.0001" style="stroke: #808080; stroke-width: 1.0;" width="98" x="2161" y="500"/><ellipse cx="2170" cy="511" fill="#FFEFD5" rx="5" ry="5" style="stroke: #808080; stroke-width: 1.0;"/><path d="M2168.5625,509.25 L2168.5625,510.7344 L2168.9688,510.7344 Q2169.4688,510.7344 2169.6719,510.5704 Q2169.875,510.4063 2169.875,510 Q2169.875,509.5782 2169.6719,509.4141 Q2169.4688,509.25 2168.9688,509.25 L2168.5625,509.25 Z M2167.5469,508.3907 L2168.9375,508.3907 Q2170,508.3907 2170.4609,508.7735 Q2170.9219,509.1563 2170.9219,510 Q2170.9219,510.8438 2170.4609,511.2188 Q2170,511.5938 2168.9375,511.5938 L2168.5625,511.5938 L2168.5625,513.5 L2167.5469,513.5 L2167.5469,508.3907 Z "/><text fill="#D3D3D3" font-family="Ubuntu Mono" font-size="12" lengthAdjust="spacingAndGlyphs" textLength="78" x="2178" y="514.9601">gulp-contribs</text><rect fill="#3C3F41" height="22.0001" style="stroke: #808080; stroke-width: 1.0;" width="68" x="1985" y="500"/><ellipse cx="1994" cy="511" fill="#FFEFD5" rx="5" ry="5" style="stroke: #808080; stroke-width: 1.0;"/><path d="M1992.5625,509.25 L1992.5625,510.7344 L1992.9688,510.7344 Q1993.4688,510.7344 1993.6719,510.5704 Q1993.875,510.4063 1993.875,510 Q1993.875,509.5782 1993.6719,509.4141 Q1993.4688,509.25 1992.9688,509.25 L1992.5625,509.25 Z M1991.5469,508.3907 L1992.9375,508.3907 Q1994,508.3907 1994.4609,508.7735 Q1994.9219,509.1563 1994.9219,510 Q1994.9219,510.8438 1994.4609,511.2188 Q1994,511.5938 1992.9375,511.5938 L1992.5625,511.5938 L1992.5625,513.5 L1991.5469,513.5 L1991.5469,508.3907 Z "/><text fill="#D3D3D3" font-family="Ubuntu Mono" font-size="12" lengthAdjust="spacingAndGlyphs" textLength="48" x="2002" y="514.9601">mustache</text><rect fill="#3C3F41" height="22.0001" style="stroke: #808080; stroke-width: 1.0;" width="98" x="1731" y="500"/><ellipse cx="1740" cy="511" fill="#FFEFD5" rx="5" ry="5" style="stroke: #808080; stroke-width: 1.0;"/><path d="M1738.5625,509.25 L1738.5625,510.7344 L1738.9688,510.7344 Q1739.4688,510.7344 1739.6719,510.5704 Q1739.875,510.4063 1739.875,510 Q1739.875,509.5782 1739.6719,509.4141 Q1739.4688,509.25 1738.9688,509.25 L1738.5625,509.25 Z M1737.5469,508.3907 L1738.9375,508.3907 Q1740,508.3907 1740.4609,508.7735 Q1740.9219,509.1563 1740.9219,510 Q1740.9219,510.8438 1740.4609,511.2188 Q1740,511.5938 1738.9375,511.5938 L1738.5625,511.5938 L1738.5625,513.5 L1737.5469,513.5 L1737.5469,508.3907 Z "/><text fill="#D3D3D3" font-family="Ubuntu Mono" font-size="12" lengthAdjust="spacingAndGlyphs" textLength="78" x="1748" y="514.9601">tidy-markdown</text><rect fill="#3C3F41" height="22.0001" style="stroke: #808080; stroke-width: 1.0;" width="86" x="1864" y="500"/><ellipse cx="1873" cy="511" fill="#FFEFD5" rx="5" ry="5" style="stroke: #808080; stroke-width: 1.0;"/><path d="M1871.5625,509.25 L1871.5625,510.7344 L1871.9688,510.7344 Q1872.4688,510.7344 1872.6719,510.5704 Q1872.875,510.4063 1872.875,510 Q1872.875,509.5782 1872.6719,509.4141 Q1872.4688,509.25 1871.9688,509.25 L1871.5625,509.25 Z M1870.5469,508.3907 L1871.9375,508.3907 Q1873,508.3907 1873.4609,508.7735 Q1873.9219,509.1563 1873.9219,510 Q1873.9219,510.8438 1873.4609,511.2188 Q1873,511.5938 1871.9375,511.5938 L1871.5625,511.5938 L1871.5625,513.5 L1870.5469,513.5 L1870.5469,508.3907 Z "/><text fill="#D3D3D3" font-family="Ubuntu Mono" font-size="12" lengthAdjust="spacingAndGlyphs" textLength="66" x="1881" y="514.9601">gulp-doctoc</text><rect fill="#3C3F41" height="22.0001" style="stroke: #808080; stroke-width: 1.0;" width="62" x="2473" y="8"/><ellipse cx="2482" cy="19" fill="#FFEFD5" rx="5" ry="5" style="stroke: #808080; stroke-width: 1.0;"/><path d="M2480.5625,17.25 L2480.5625,18.7344 L2480.9688,18.7344 Q2481.4688,18.7344 2481.6719,18.5704 Q2481.875,18.4063 2481.875,18 Q2481.875,17.5782 2481.6719,17.4141 Q2481.4688,17.25 2480.9688,17.25 L2480.5625,17.25 Z M2479.5469,16.3907 L2480.9375,16.3907 Q2482,16.3907 2482.4609,16.7735 Q2482.9219,17.1563 2482.9219,18 Q2482.9219,18.8438 2482.4609,19.2188 Q2482,19.5938 2480.9375,19.5938 L2480.5625,19.5938 L2480.5625,21.5 L2479.5469,21.5 L2479.5469,16.3907 Z "/><text fill="#D3D3D3" font-family="Ubuntu Mono" font-size="12" lengthAdjust="spacingAndGlyphs" textLength="42" x="2490" y="22.9601">esf-dbi</text><rect fill="#3C3F41" height="22.0001" style="stroke: #808080; stroke-width: 1.0;" width="38" x="2341" y="254"/><ellipse cx="2350" cy="265" fill="#8FBC8F" rx="5" ry="5" style="stroke: #808080; stroke-width: 1.0;"/><path d="M2350.1094,266.9063 L2351,262.6407 L2352.0156,262.6407 L2350.8125,267.75 L2349.4063,267.75 L2348.1875,262.6407 L2349.2031,262.6407 L2350.1094,266.9063 Z "/><text fill="#D3D3D3" font-family="Ubuntu Mono" font-size="12" lengthAdjust="spacingAndGlyphs" textLength="18" x="2358" y="268.9601">cfg</text><rect fill="#3C3F41" height="22.0001" style="stroke: #808080; stroke-width: 1.0;" width="62" x="2378" y="336"/><ellipse cx="2387" cy="347" fill="#8FBC8F" rx="5" ry="5" style="stroke: #808080; stroke-width: 1.0;"/><path d="M2387.1094,348.9063 L2388,344.6407 L2389.0156,344.6407 L2387.8125,349.75 L2386.4063,349.75 L2385.1875,344.6407 L2386.2031,344.6407 L2387.1094,348.9063 Z "/><text fill="#D3D3D3" font-family="Ubuntu Mono" font-size="12" lengthAdjust="spacingAndGlyphs" textLength="42" x="2395" y="350.9601">cfg-pth</text><rect fill="#3C3F41" height="22.0001" style="stroke: #808080; stroke-width: 1.0;" width="62" x="2281" y="336"/><ellipse cx="2290" cy="347" fill="#8FBC8F" rx="5" ry="5" style="stroke: #808080; stroke-width: 1.0;"/><path d="M2290.1094,348.9063 L2291,344.6407 L2292.0156,344.6407 L2290.8125,349.75 L2289.4063,349.75 L2288.1875,344.6407 L2289.2031,344.6407 L2290.1094,348.9063 Z "/><text fill="#D3D3D3" font-family="Ubuntu Mono" font-size="12" lengthAdjust="spacingAndGlyphs" textLength="42" x="2298" y="350.9601">cfg-tdo</text><rect fill="#3C3F41" height="22.0001" style="stroke: #808080; stroke-width: 1.0;" width="62" x="2329" y="172"/><ellipse cx="2338" cy="183" fill="#6A5ACD" rx="5" ry="5" style="stroke: #808080; stroke-width: 1.0;"/><path d="M2338.7969,181.2813 L2336.625,181.2813 L2336.625,182.3907 L2338.6094,182.3907 L2338.6094,183.2813 L2336.625,183.2813 L2336.625,185.5 L2335.625,185.5 L2335.625,180.3907 L2338.7969,180.3907 L2338.7969,181.2813 Z "/><text fill="#D3D3D3" font-family="Ubuntu Mono" font-size="12" lengthAdjust="spacingAndGlyphs" textLength="42" x="2346" y="186.9601">loadCfg</text><rect fill="#3C3F41" height="22.0001" style="stroke: #808080; stroke-width: 1.0;" width="38" x="2297" y="582"/><ellipse cx="2306" cy="593" fill="#778899" rx="5" ry="5" style="stroke: #808080; stroke-width: 1.0;"/><path d="M2306.1094,595.5 L2305.1094,595.5 L2305.1094,591.2813 L2303.8125,591.2813 L2303.8125,590.3907 L2307.4063,590.3907 L2307.4063,591.2813 L2306.1094,591.2813 L2306.1094,595.5 Z "/><text fill="#D3D3D3" font-family="Ubuntu Mono" font-size="12" lengthAdjust="spacingAndGlyphs" textLength="18" x="2314" y="596.9601">abr</text><rect fill="#3C3F41" height="22.0001" style="stroke: #808080; stroke-width: 1.0;" width="38" x="2440" y="582"/><ellipse cx="2449" cy="593" fill="#778899" rx="5" ry="5" style="stroke: #808080; stroke-width: 1.0;"/><path d="M2449.1094,595.5 L2448.1094,595.5 L2448.1094,591.2813 L2446.8125,591.2813 L2446.8125,590.3907 L2450.4063,590.3907 L2450.4063,591.2813 L2449.1094,591.2813 L2449.1094,595.5 Z "/><text fill="#D3D3D3" font-family="Ubuntu Mono" font-size="12" lengthAdjust="spacingAndGlyphs" textLength="18" x="2457" y="596.9601">cng</text><rect fill="#3C3F41" height="22.0001" style="stroke: #808080; stroke-width: 1.0;" width="38" x="2574" y="582"/><ellipse cx="2583" cy="593" fill="#778899" rx="5" ry="5" style="stroke: #808080; stroke-width: 1.0;"/><path d="M2583.1094,595.5 L2582.1094,595.5 L2582.1094,591.2813 L2580.8125,591.2813 L2580.8125,590.3907 L2584.4063,590.3907 L2584.4063,591.2813 L2583.1094,591.2813 L2583.1094,595.5 Z "/><text fill="#D3D3D3" font-family="Ubuntu Mono" font-size="12" lengthAdjust="spacingAndGlyphs" textLength="18" x="2591" y="596.9601">uml</text><rect fill="#3C3F41" height="22.0001" style="stroke: #808080; stroke-width: 1.0;" width="50" x="1325" y="582"/><ellipse cx="1334" cy="593" fill="#778899" rx="5" ry="5" style="stroke: #808080; stroke-width: 1.0;"/><path d="M1334.1094,595.5 L1333.1094,595.5 L1333.1094,591.2813 L1331.8125,591.2813 L1331.8125,590.3907 L1335.4063,590.3907 L1335.4063,591.2813 L1334.1094,591.2813 L1334.1094,595.5 Z "/><text fill="#D3D3D3" font-family="Ubuntu Mono" font-size="12" lengthAdjust="spacingAndGlyphs" textLength="30" x="1342" y="596.9601">jsdoc</text><rect fill="#3C3F41" height="22.0001" style="stroke: #808080; stroke-width: 1.0;" width="38" x="1639" y="582"/><ellipse cx="1648" cy="593" fill="#778899" rx="5" ry="5" style="stroke: #808080; stroke-width: 1.0;"/><path d="M1648.1094,595.5 L1647.1094,595.5 L1647.1094,591.2813 L1645.8125,591.2813 L1645.8125,590.3907 L1649.4063,590.3907 L1649.4063,591.2813 L1648.1094,591.2813 L1648.1094,595.5 Z "/><text fill="#D3D3D3" font-family="Ubuntu Mono" font-size="12" lengthAdjust="spacingAndGlyphs" textLength="18" x="1656" y="596.9601">lsc</text><rect fill="#3C3F41" height="22.0001" style="stroke: #808080; stroke-width: 1.0;" width="38" x="2157" y="582"/><ellipse cx="2166" cy="593" fill="#778899" rx="5" ry="5" style="stroke: #808080; stroke-width: 1.0;"/><path d="M2166.1094,595.5 L2165.1094,595.5 L2165.1094,591.2813 L2163.8125,591.2813 L2163.8125,590.3907 L2167.4063,590.3907 L2167.4063,591.2813 L2166.1094,591.2813 L2166.1094,595.5 Z "/><text fill="#D3D3D3" font-family="Ubuntu Mono" font-size="12" lengthAdjust="spacingAndGlyphs" textLength="18" x="2174" y="596.9601">ctb</text><rect fill="#3C3F41" height="22.0001" style="stroke: #808080; stroke-width: 1.0;" width="38" x="2088" y="500"/><ellipse cx="2097" cy="511" fill="#778899" rx="5" ry="5" style="stroke: #808080; stroke-width: 1.0;"/><path d="M2097.1094,513.5 L2096.1094,513.5 L2096.1094,509.2813 L2094.8125,509.2813 L2094.8125,508.3907 L2098.4063,508.3907 L2098.4063,509.2813 L2097.1094,509.2813 L2097.1094,513.5 Z "/><text fill="#D3D3D3" font-family="Ubuntu Mono" font-size="12" lengthAdjust="spacingAndGlyphs" textLength="18" x="2105" y="514.9601">dat</text><rect fill="#3C3F41" height="22.0001" style="stroke: #808080; stroke-width: 1.0;" width="38" x="2084" y="582"/><ellipse cx="2093" cy="593" fill="#778899" rx="5" ry="5" style="stroke: #808080; stroke-width: 1.0;"/><path d="M2093.1094,595.5 L2092.1094,595.5 L2092.1094,591.2813 L2090.8125,591.2813 L2090.8125,590.3907 L2094.4063,590.3907 L2094.4063,591.2813 L2093.1094,591.2813 L2093.1094,595.5 Z "/><text fill="#D3D3D3" font-family="Ubuntu Mono" font-size="12" lengthAdjust="spacingAndGlyphs" textLength="18" x="2101" y="596.9601">pkg</text><rect fill="#3C3F41" height="22.0001" style="stroke: #808080; stroke-width: 1.0;" width="38" x="1888" y="582"/><ellipse cx="1897" cy="593" fill="#778899" rx="5" ry="5" style="stroke: #808080; stroke-width: 1.0;"/><path d="M1897.1094,595.5 L1896.1094,595.5 L1896.1094,591.2813 L1894.8125,591.2813 L1894.8125,590.3907 L1898.4063,590.3907 L1898.4063,591.2813 L1897.1094,591.2813 L1897.1094,595.5 Z "/><text fill="#D3D3D3" font-family="Ubuntu Mono" font-size="12" lengthAdjust="spacingAndGlyphs" textLength="18" x="1905" y="596.9601">rme</text><rect fill="#3C3F41" height="22.0001" style="stroke: #808080; stroke-width: 1.0;" width="32" x="2230" y="582"/><ellipse cx="2239" cy="593" fill="#778899" rx="5" ry="5" style="stroke: #808080; stroke-width: 1.0;"/><path d="M2239.1094,595.5 L2238.1094,595.5 L2238.1094,591.2813 L2236.8125,591.2813 L2236.8125,590.3907 L2240.4063,590.3907 L2240.4063,591.2813 L2239.1094,591.2813 L2239.1094,595.5 Z "/><text fill="#D3D3D3" font-family="Ubuntu Mono" font-size="12" lengthAdjust="spacingAndGlyphs" textLength="12" x="2247" y="596.9601">kb</text><rect fill="#3C3F41" height="40.0001" style="stroke: #808080; stroke-width: 1.0;" width="84" x="2097" y="664"/><ellipse cx="2127.25" cy="675" fill="#778899" rx="5" ry="5" style="stroke: #808080; stroke-width: 1.0;"/><path d="M2127.3594,677.5 L2126.3594,677.5 L2126.3594,673.2813 L2125.0625,673.2813 L2125.0625,672.3907 L2128.6563,672.3907 L2128.6563,673.2813 L2127.3594,673.2813 L2127.3594,677.5 Z "/><text fill="#D3D3D3" font-family="Ubuntu Mono" font-size="12" lengthAdjust="spacingAndGlyphs" textLength="18" x="2138.75" y="678.9601">doc</text><line style="stroke: #808080; stroke-width: 1.0;" x1="2098" x2="2180" y1="686.0001" y2="686.0001"/><text fill="#A9A9A9" font-family="Ubuntu Mono" font-size="8" lengthAdjust="spacingAndGlyphs" textLength="72" x="2103" y="696.64">process req.uc.doc</text><rect fill="#3C3F41" height="22.0001" style="stroke: #808080; stroke-width: 1.0;" width="56" x="285" y="582"/><ellipse cx="294" cy="593" fill="#778899" rx="5" ry="5" style="stroke: #808080; stroke-width: 1.0;"/><path d="M294.1094,595.5 L293.1094,595.5 L293.1094,591.2813 L291.8125,591.2813 L291.8125,590.3907 L295.4063,590.3907 L295.4063,591.2813 L294.1094,591.2813 L294.1094,595.5 Z "/><text fill="#D3D3D3" font-family="Ubuntu Mono" font-size="12" lengthAdjust="spacingAndGlyphs" textLength="36" x="302" y="596.9601">ops-bu</text><rect fill="#3C3F41" height="22.0001" style="stroke: #808080; stroke-width: 1.0;" width="56" x="376" y="582"/><ellipse cx="385" cy="593" fill="#778899" rx="5" ry="5" style="stroke: #808080; stroke-width: 1.0;"/><path d="M385.1094,595.5 L384.1094,595.5 L384.1094,591.2813 L382.8125,591.2813 L382.8125,590.3907 L386.4063,590.3907 L386.4063,591.2813 L385.1094,591.2813 L385.1094,595.5 Z "/><text fill="#D3D3D3" font-family="Ubuntu Mono" font-size="12" lengthAdjust="spacingAndGlyphs" textLength="36" x="393" y="596.9601">ops-ci</text><rect fill="#3C3F41" height="22.0001" style="stroke: #808080; stroke-width: 1.0;" width="62" x="467" y="582"/><ellipse cx="476" cy="593" fill="#778899" rx="5" ry="5" style="stroke: #808080; stroke-width: 1.0;"/><path d="M476.1094,595.5 L475.1094,595.5 L475.1094,591.2813 L473.8125,591.2813 L473.8125,590.3907 L477.4063,590.3907 L477.4063,591.2813 L476.1094,591.2813 L476.1094,595.5 Z "/><text fill="#D3D3D3" font-family="Ubuntu Mono" font-size="12" lengthAdjust="spacingAndGlyphs" textLength="42" x="484" y="596.9601">ops-mod</text><rect fill="#3C3F41" height="22.0001" style="stroke: #808080; stroke-width: 1.0;" width="56" x="6" y="582"/><ellipse cx="15" cy="593" fill="#778899" rx="5" ry="5" style="stroke: #808080; stroke-width: 1.0;"/><path d="M15.1094,595.5 L14.1094,595.5 L14.1094,591.2813 L12.8125,591.2813 L12.8125,590.3907 L16.4063,590.3907 L16.4063,591.2813 L15.1094,591.2813 L15.1094,595.5 Z "/><text fill="#D3D3D3" font-family="Ubuntu Mono" font-size="12" lengthAdjust="spacingAndGlyphs" textLength="36" x="23" y="596.9601">ops-pm</text><rect fill="#3C3F41" height="22.0001" style="stroke: #808080; stroke-width: 1.0;" width="56" x="97" y="582"/><ellipse cx="106" cy="593" fill="#778899" rx="5" ry="5" style="stroke: #808080; stroke-width: 1.0;"/><path d="M106.1094,595.5 L105.1094,595.5 L105.1094,591.2813 L103.8125,591.2813 L103.8125,590.3907 L107.4063,590.3907 L107.4063,591.2813 L106.1094,591.2813 L106.1094,595.5 Z "/><text fill="#D3D3D3" font-family="Ubuntu Mono" font-size="12" lengthAdjust="spacingAndGlyphs" textLength="36" x="114" y="596.9601">ops-qa</text><rect fill="#3C3F41" height="22.0001" style="stroke: #808080; stroke-width: 1.0;" width="62" x="188" y="582"/><ellipse cx="197" cy="593" fill="#778899" rx="5" ry="5" style="stroke: #808080; stroke-width: 1.0;"/><path d="M197.1094,595.5 L196.1094,595.5 L196.1094,591.2813 L194.8125,591.2813 L194.8125,590.3907 L198.4063,590.3907 L198.4063,591.2813 L197.1094,591.2813 L197.1094,595.5 Z "/><text fill="#D3D3D3" font-family="Ubuntu Mono" font-size="12" lengthAdjust="spacingAndGlyphs" textLength="42" x="205" y="596.9601">ops-upd</text><rect fill="#3C3F41" height="22.0001" style="stroke: #808080; stroke-width: 1.0;" width="38" x="294" y="673"/><ellipse cx="303" cy="684" fill="#778899" rx="5" ry="5" style="stroke: #808080; stroke-width: 1.0;"/><path d="M303.1094,686.5 L302.1094,686.5 L302.1094,682.2813 L300.8125,682.2813 L300.8125,681.3907 L304.4063,681.3907 L304.4063,682.2813 L303.1094,682.2813 L303.1094,686.5 Z "/><text fill="#D3D3D3" font-family="Ubuntu Mono" font-size="12" lengthAdjust="spacingAndGlyphs" textLength="18" x="311" y="687.9601">ops</text><rect fill="#3C3F41" height="22.0001" style="stroke: #808080; stroke-width: 1.0;" width="56" x="779" y="500"/><ellipse cx="788" cy="511" fill="#778899" rx="5" ry="5" style="stroke: #808080; stroke-width: 1.0;"/><path d="M788.1094,513.5 L787.1094,513.5 L787.1094,509.2813 L785.8125,509.2813 L785.8125,508.3907 L789.4063,508.3907 L789.4063,509.2813 L788.1094,509.2813 L788.1094,513.5 Z "/><text fill="#D3D3D3" font-family="Ubuntu Mono" font-size="12" lengthAdjust="spacingAndGlyphs" textLength="36" x="796" y="514.9601">be-ast</text><rect fill="#3C3F41" height="22.0001" style="stroke: #808080; stroke-width: 1.0;" width="50" x="870" y="500"/><ellipse cx="879" cy="511" fill="#778899" rx="5" ry="5" style="stroke: #808080; stroke-width: 1.0;"/><path d="M879.1094,513.5 L878.1094,513.5 L878.1094,509.2813 L876.8125,509.2813 L876.8125,508.3907 L880.4063,508.3907 L880.4063,509.2813 L879.1094,509.2813 L879.1094,513.5 Z "/><text fill="#D3D3D3" font-family="Ubuntu Mono" font-size="12" lengthAdjust="spacingAndGlyphs" textLength="30" x="887" y="514.9601">be-es</text><rect fill="#3C3F41" height="22.0001" style="stroke: #808080; stroke-width: 1.0;" width="50" x="955" y="500"/><ellipse cx="964" cy="511" fill="#778899" rx="5" ry="5" style="stroke: #808080; stroke-width: 1.0;"/><path d="M964.1094,513.5 L963.1094,513.5 L963.1094,509.2813 L961.8125,509.2813 L961.8125,508.3907 L965.4063,508.3907 L965.4063,509.2813 L964.1094,509.2813 L964.1094,513.5 Z "/><text fill="#D3D3D3" font-family="Ubuntu Mono" font-size="12" lengthAdjust="spacingAndGlyphs" textLength="30" x="972" y="514.9601">be-nm</text><rect fill="#3C3F41" height="22.0001" style="stroke: #808080; stroke-width: 1.0;" width="56" x="1040" y="500"/><ellipse cx="1049" cy="511" fill="#778899" rx="5" ry="5" style="stroke: #808080; stroke-width: 1.0;"/><path d="M1049.1094,513.5 L1048.1094,513.5 L1048.1094,509.2813 L1046.8125,509.2813 L1046.8125,508.3907 L1050.4063,508.3907 L1050.4063,509.2813 L1049.1094,509.2813 L1049.1094,513.5 Z "/><text fill="#D3D3D3" font-family="Ubuntu Mono" font-size="12" lengthAdjust="spacingAndGlyphs" textLength="36" x="1057" y="514.9601">be-tpl</text><rect fill="#3C3F41" height="22.0001" style="stroke: #808080; stroke-width: 1.0;" width="56" x="846" y="582"/><ellipse cx="855" cy="593" fill="#778899" rx="5" ry="5" style="stroke: #808080; stroke-width: 1.0;"/><path d="M855.1094,595.5 L854.1094,595.5 L854.1094,591.2813 L852.8125,591.2813 L852.8125,590.3907 L856.4063,590.3907 L856.4063,591.2813 L855.1094,591.2813 L855.1094,595.5 Z "/><text fill="#D3D3D3" font-family="Ubuntu Mono" font-size="12" lengthAdjust="spacingAndGlyphs" textLength="36" x="863" y="596.9601">bld-be</text><rect fill="#3C3F41" height="22.0001" style="stroke: #808080; stroke-width: 1.0;" width="50" x="609" y="500"/><ellipse cx="618" cy="511" fill="#778899" rx="5" ry="5" style="stroke: #808080; stroke-width: 1.0;"/><path d="M618.1094,513.5 L617.1094,513.5 L617.1094,509.2813 L615.8125,509.2813 L615.8125,508.3907 L619.4063,508.3907 L619.4063,509.2813 L618.1094,509.2813 L618.1094,513.5 Z "/><text fill="#D3D3D3" font-family="Ubuntu Mono" font-size="12" lengthAdjust="spacingAndGlyphs" textLength="30" x="626" y="514.9601">fe-ng</text><rect fill="#3C3F41" height="22.0001" style="stroke: #808080; stroke-width: 1.0;" width="50" x="694" y="500"/><ellipse cx="703" cy="511" fill="#778899" rx="5" ry="5" style="stroke: #808080; stroke-width: 1.0;"/><path d="M703.1094,513.5 L702.1094,513.5 L702.1094,509.2813 L700.8125,509.2813 L700.8125,508.3907 L704.4063,508.3907 L704.4063,509.2813 L703.1094,509.2813 L703.1094,513.5 Z "/><text fill="#D3D3D3" font-family="Ubuntu Mono" font-size="12" lengthAdjust="spacingAndGlyphs" textLength="30" x="711" y="514.9601">fe-js</text><rect fill="#3C3F41" height="22.0001" style="stroke: #808080; stroke-width: 1.0;" width="56" x="245" y="500"/><ellipse cx="254" cy="511" fill="#778899" rx="5" ry="5" style="stroke: #808080; stroke-width: 1.0;"/><path d="M254.1094,513.5 L253.1094,513.5 L253.1094,509.2813 L251.8125,509.2813 L251.8125,508.3907 L255.4063,508.3907 L255.4063,509.2813 L254.1094,509.2813 L254.1094,513.5 Z "/><text fill="#D3D3D3" font-family="Ubuntu Mono" font-size="12" lengthAdjust="spacingAndGlyphs" textLength="36" x="262" y="514.9601">fe-css</text><rect fill="#3C3F41" height="22.0001" style="stroke: #808080; stroke-width: 1.0;" width="56" x="336" y="500"/><ellipse cx="345" cy="511" fill="#778899" rx="5" ry="5" style="stroke: #808080; stroke-width: 1.0;"/><path d="M345.1094,513.5 L344.1094,513.5 L344.1094,509.2813 L342.8125,509.2813 L342.8125,508.3907 L346.4063,508.3907 L346.4063,509.2813 L345.1094,509.2813 L345.1094,513.5 Z "/><text fill="#D3D3D3" font-family="Ubuntu Mono" font-size="12" lengthAdjust="spacingAndGlyphs" textLength="36" x="353" y="514.9601">fe-ast</text><rect fill="#3C3F41" height="22.0001" style="stroke: #808080; stroke-width: 1.0;" width="62" x="427" y="500"/><ellipse cx="436" cy="511" fill="#778899" rx="5" ry="5" style="stroke: #808080; stroke-width: 1.0;"/><path d="M436.1094,513.5 L435.1094,513.5 L435.1094,509.2813 L433.8125,509.2813 L433.8125,508.3907 L437.4063,508.3907 L437.4063,509.2813 L436.1094,509.2813 L436.1094,513.5 Z "/><text fill="#D3D3D3" font-family="Ubuntu Mono" font-size="12" lengthAdjust="spacingAndGlyphs" textLength="42" x="444" y="514.9601">fe-html</text><rect fill="#3C3F41" height="22.0001" style="stroke: #808080; stroke-width: 1.0;" width="50" x="524" y="500"/><ellipse cx="533" cy="511" fill="#778899" rx="5" ry="5" style="stroke: #808080; stroke-width: 1.0;"/><path d="M533.1094,513.5 L532.1094,513.5 L532.1094,509.2813 L530.8125,509.2813 L530.8125,508.3907 L534.4063,508.3907 L534.4063,509.2813 L533.1094,509.2813 L533.1094,513.5 Z "/><text fill="#D3D3D3" font-family="Ubuntu Mono" font-size="12" lengthAdjust="spacingAndGlyphs" textLength="30" x="541" y="514.9601">fe-lr</text><rect fill="#3C3F41" height="22.0001" style="stroke: #808080; stroke-width: 1.0;" width="56" x="564" y="582"/><ellipse cx="573" cy="593" fill="#778899" rx="5" ry="5" style="stroke: #808080; stroke-width: 1.0;"/><path d="M573.1094,595.5 L572.1094,595.5 L572.1094,591.2813 L570.8125,591.2813 L570.8125,590.3907 L574.4063,590.3907 L574.4063,591.2813 L573.1094,591.2813 L573.1094,595.5 Z "/><text fill="#D3D3D3" font-family="Ubuntu Mono" font-size="12" lengthAdjust="spacingAndGlyphs" textLength="36" x="581" y="596.9601">bld-fe</text><rect fill="#3C3F41" height="22.0001" style="stroke: #808080; stroke-width: 1.0;" width="38" x="855" y="673"/><ellipse cx="864" cy="684" fill="#778899" rx="5" ry="5" style="stroke: #808080; stroke-width: 1.0;"/><path d="M864.1094,686.5 L863.1094,686.5 L863.1094,682.2813 L861.8125,682.2813 L861.8125,681.3907 L865.4063,681.3907 L865.4063,682.2813 L864.1094,682.2813 L864.1094,686.5 Z "/><text fill="#D3D3D3" font-family="Ubuntu Mono" font-size="12" lengthAdjust="spacingAndGlyphs" textLength="18" x="872" y="687.9601">bld</text><rect fill="#3C3F41" height="22.0001" style="stroke: #808080; stroke-width: 1.0;" width="62" x="1228" y="582"/><ellipse cx="1237" cy="593" fill="#DDA0DD" rx="5" ry="5" style="stroke: #808080; stroke-width: 1.0;"/><path d="M1234.7656,595.5 L1234.7656,590.3907 L1235.7813,590.3907 L1235.7813,594.6094 L1237.9375,594.6094 L1237.9375,595.5 L1234.7656,595.5 Z "/><text fill="#D3D3D3" font-family="Ubuntu Mono" font-size="12" lengthAdjust="spacingAndGlyphs" textLength="42" x="1245" y="596.9601">nfr-cpl</text><rect fill="#3C3F41" height="22.0001" style="stroke: #808080; stroke-width: 1.0;" width="62" x="937" y="582"/><ellipse cx="946" cy="593" fill="#DDA0DD" rx="5" ry="5" style="stroke: #808080; stroke-width: 1.0;"/><path d="M943.7656,595.5 L943.7656,590.3907 L944.7813,590.3907 L944.7813,594.6094 L946.9375,594.6094 L946.9375,595.5 L943.7656,595.5 Z "/><text fill="#D3D3D3" font-family="Ubuntu Mono" font-size="12" lengthAdjust="spacingAndGlyphs" textLength="42" x="954" y="596.9601">nfr-cps</text><rect fill="#3C3F41" height="22.0001" style="stroke: #808080; stroke-width: 1.0;" width="62" x="1034" y="582"/><ellipse cx="1043" cy="593" fill="#DDA0DD" rx="5" ry="5" style="stroke: #808080; stroke-width: 1.0;"/><path d="M1040.7656,595.5 L1040.7656,590.3907 L1041.7813,590.3907 L1041.7813,594.6094 L1043.9375,594.6094 L1043.9375,595.5 L1040.7656,595.5 Z "/><text fill="#D3D3D3" font-family="Ubuntu Mono" font-size="12" lengthAdjust="spacingAndGlyphs" textLength="42" x="1051" y="596.9601">nfr-dbg</text><rect fill="#3C3F41" height="22.0001" style="stroke: #808080; stroke-width: 1.0;" width="62" x="1131" y="582"/><ellipse cx="1140" cy="593" fill="#DDA0DD" rx="5" ry="5" style="stroke: #808080; stroke-width: 1.0;"/><path d="M1137.7656,595.5 L1137.7656,590.3907 L1138.7813,590.3907 L1138.7813,594.6094 L1140.9375,594.6094 L1140.9375,595.5 L1137.7656,595.5 Z "/><text fill="#D3D3D3" font-family="Ubuntu Mono" font-size="12" lengthAdjust="spacingAndGlyphs" textLength="42" x="1148" y="596.9601">nfr-cpy</text><rect fill="#3C3F41" height="22.0001" style="stroke: #808080; stroke-width: 1.0;" width="38" x="1046" y="673"/><ellipse cx="1055" cy="684" fill="#DDA0DD" rx="5" ry="5" style="stroke: #808080; stroke-width: 1.0;"/><path d="M1052.7656,686.5 L1052.7656,681.3907 L1053.7813,681.3907 L1053.7813,685.6094 L1055.9375,685.6094 L1055.9375,686.5 L1052.7656,686.5 Z "/><text fill="#D3D3D3" font-family="Ubuntu Mono" font-size="12" lengthAdjust="spacingAndGlyphs" textLength="18" x="1063" y="687.9601">nfr</text><rect fill="#3C3F41" height="22.0001" style="stroke: #808080; stroke-width: 1.0;" width="38" x="950" y="764"/><ellipse cx="959" cy="775" fill="#778899" rx="5" ry="5" style="stroke: #808080; stroke-width: 1.0;"/><path d="M959.1094,777.5 L958.1094,777.5 L958.1094,773.2813 L956.8125,773.2813 L956.8125,772.3907 L960.4063,772.3907 L960.4063,773.2813 L959.1094,773.2813 L959.1094,777.5 Z "/><text fill="#D3D3D3" font-family="Ubuntu Mono" font-size="12" lengthAdjust="spacingAndGlyphs" textLength="18" x="967" y="778.9601">wch</text><path d="M2650,445.216 C2650,461.288 2650,486.169 2650,499.95 " fill="none" style="stroke: #808080; stroke-width: 1.0; stroke-dasharray: 7.0,7.0;"/><polygon fill="#808080" points="2650,440.132,2646,449.132,2650,445.132,2654,449.132,2650,440.132" style="stroke: #808080; stroke-width: 1.0;"/><path d="M2347.14,287.441 C2337.69,303.181 2325.29,323.847 2318.03,335.95 " fill="none" style="stroke: #808080; stroke-width: 1.0;"/><polygon fill="#808080" points="2353.92,276.132,2347.4028,279.2184,2347.7451,286.4213,2354.2623,283.335,2353.92,276.132" style="stroke: #808080; stroke-width: 1.0;"/><path d="M2373.13,287.441 C2382.77,303.181 2395.43,323.847 2402.84,335.95 " fill="none" style="stroke: #808080; stroke-width: 1.0;"/><polygon fill="#808080" points="2366.21,276.132,2365.9329,283.3378,2372.4777,286.3651,2372.7549,279.1593,2366.21,276.132" style="stroke: #808080; stroke-width: 1.0;"/><path d="M2399.93,34.973 C2391.08,67.572 2370.25,144.259 2362.75,171.87 " fill="none" style="stroke: #808080; stroke-width: 1.0; stroke-dasharray: 7.0,7.0;"/><polygon fill="#808080" points="2401.25,30.134,2395.0309,37.7709,2399.9395,34.9592,2402.7512,39.8678,2401.25,30.134" style="stroke: #808080; stroke-width: 1.0;"/><path d="M2324.95,116.799 C2333.58,132.854 2347.13,158.049 2354.6,171.95 " fill="none" style="stroke: #808080; stroke-width: 1.0; stroke-dasharray: 7.0,7.0;"/><polygon fill="#808080" points="2322.45,112.132,2323.1914,121.9529,2324.8189,116.5352,2330.2366,118.1627,2322.45,112.132" style="stroke: #808080; stroke-width: 1.0;"/><path d="M2360,194.132 C2360,207.958 2360,232.843 2360,248.88 " fill="none" style="stroke: #808080; stroke-width: 1.0;"/><polygon fill="#808080" points="2360,253.95,2364,244.95,2360,248.95,2356,244.95,2360,253.95" style="stroke: #808080; stroke-width: 1.0;"/><path d="M2387.41,525.572 C2370.24,541.543 2342.13,567.689 2326.8,581.95 " fill="none" style="stroke: #808080; stroke-width: 1.0; stroke-dasharray: 7.0,7.0;"/><polygon fill="#808080" points="2391.11,522.132,2381.7931,525.325,2387.4461,525.5343,2387.2368,531.1873,2391.11,522.132" style="stroke: #808080; stroke-width: 1.0;"/><path d="M2312.25,363.29 C2313,408.962 2315.21,543.575 2315.83,581.783 " fill="none" style="stroke: #808080; stroke-width: 1.0; stroke-dasharray: 7.0,7.0;"/><polygon fill="#808080" points="2312.17,358.174,2308.3197,367.239,2312.2528,363.1733,2316.3186,367.1065,2312.17,358.174" style="stroke: #808080; stroke-width: 1.0;"/><path d="M2514.29,525.977 C2500.89,541.982 2479.26,567.809 2467.42,581.95 " fill="none" style="stroke: #808080; stroke-width: 1.0; stroke-dasharray: 7.0,7.0;"/><polygon fill="#808080" points="2517.51,522.132,2508.6704,526.4749,2514.3046,525.9694,2514.8102,531.6036,2517.51,522.132" style="stroke: #808080; stroke-width: 1.0;"/><path d="M2639.75,526.386 C2628.33,542.419 2610.15,567.929 2600.16,581.95 " fill="none" style="stroke: #808080; stroke-width: 1.0; stroke-dasharray: 7.0,7.0;"/><polygon fill="#808080" points="2642.78,522.132,2634.2994,527.1399,2639.8783,526.2039,2640.8144,531.7827,2642.78,522.132" style="stroke: #808080; stroke-width: 1.0;"/><path d="M1234.04,524.775 C1261.44,540.661 1307.65,567.45 1332.66,581.95 " fill="none" style="stroke: #808080; stroke-width: 1.0; stroke-dasharray: 7.0,7.0;"/><polygon fill="#808080" points="1229.48,522.132,1235.2707,530.0987,1233.809,524.6339,1239.2738,523.1722,1229.48,522.132" style="stroke: #808080; stroke-width: 1.0;"/><path d="M1333.8,527.216 C1337.82,543.288 1344.04,568.169 1347.49,581.95 " fill="none" style="stroke: #808080; stroke-width: 1.0; stroke-dasharray: 7.0,7.0;"/><polygon fill="#808080" points="1332.53,522.132,1330.8363,531.8341,1333.7447,526.9822,1338.5966,529.8906,1332.53,522.132" style="stroke: #808080; stroke-width: 1.0;"/><path d="M1508.11,524.253 C1544.2,540.566 1607.14,569.013 1638.74,583.295 " fill="none" style="stroke: #808080; stroke-width: 1.0; stroke-dasharray: 7.0,7.0;"/><polygon fill="#808080" points="1503.42,522.132,1509.9764,529.4814,1507.977,524.1897,1513.2687,522.1903,1503.42,522.132" style="stroke: #808080; stroke-width: 1.0;"/><path d="M2203.71,526.799 C2196.89,542.854 2186.18,568.049 2180.27,581.95 " fill="none" style="stroke: #808080; stroke-width: 1.0; stroke-dasharray: 7.0,7.0;"/><polygon fill="#808080" points="2205.69,522.132,2198.4875,528.8495,2203.7337,526.7334,2205.8498,531.9796,2205.69,522.132" style="stroke: #808080; stroke-width: 1.0;"/><path d="M2106.24,527.216 C2105.44,543.288 2104.19,568.169 2103.5,581.95 " fill="none" style="stroke: #808080; stroke-width: 1.0; stroke-dasharray: 7.0,7.0;"/><polygon fill="#808080" points="2106.49,522.132,2102.0443,530.9204,2106.2396,527.1257,2110.0343,531.321,2106.49,522.132" style="stroke: #808080; stroke-width: 1.0;"/><path d="M2083.13,521.547 C2043,537.599 1962.81,569.677 1926.12,584.352 " fill="none" style="stroke: #808080; stroke-width: 1.0; stroke-dasharray: 7.0,7.0;"/><polygon fill="#808080" points="2087.82,519.671,2077.9781,519.2996,2083.1776,521.528,2080.9493,526.7274,2087.82,519.671" style="stroke: #808080; stroke-width: 1.0;"/><path d="M2000.56,525.171 C1978.26,541.103 1941.2,567.57 1921.07,581.95 " fill="none" style="stroke: #808080; stroke-width: 1.0; stroke-dasharray: 7.0,7.0;"/><polygon fill="#808080" points="2004.82,522.132,1995.1695,524.0986,2000.7484,525.0341,1999.8129,530.6131,2004.82,522.132" style="stroke: #808080; stroke-width: 1.0;"/><path d="M1907,527.216 C1907,543.288 1907,568.169 1907,581.95 " fill="none" style="stroke: #808080; stroke-width: 1.0; stroke-dasharray: 7.0,7.0;"/><polygon fill="#808080" points="1907,522.132,1903,531.132,1907,527.132,1911,531.132,1907,522.132" style="stroke: #808080; stroke-width: 1.0;"/><path d="M1800.59,524.973 C1825.85,540.882 1868.12,567.51 1891.05,581.95 " fill="none" style="stroke: #808080; stroke-width: 1.0; stroke-dasharray: 7.0,7.0;"/><polygon fill="#808080" points="1796.08,522.132,1801.5549,530.3189,1800.3079,524.8012,1805.8256,523.5542,1796.08,522.132" style="stroke: #808080; stroke-width: 1.0;"/><path d="M1721.09,444.764 C1710.63,464.227 1696.65,498.718 1713,522 C1753.74,580.018 1847.51,590.164 1887.91,591.783 " fill="none" style="stroke: #808080; stroke-width: 1.0; stroke-dasharray: 7.0,7.0;"/><polygon fill="#808080" points="1723.66,440.156,1715.7911,446.0789,1721.2307,444.5262,1722.7834,449.9658,1723.66,440.156" style="stroke: #808080; stroke-width: 1.0;"/><path d="M1572.42,443.253 C1598.54,462.643 1649.95,498.939 1698,522 C1764.93,554.119 1850.44,577.757 1887.94,587.323 " fill="none" style="stroke: #808080; stroke-width: 1.0; stroke-dasharray: 7.0,7.0;"/><polygon fill="#808080" points="1568.14,440.063,1572.9474,448.6589,1572.1426,443.0596,1577.7419,442.2548,1568.14,440.063" style="stroke: #808080; stroke-width: 1.0;"/><path d="M2292.16,605.988 C2262.57,620.868 2211.74,646.425 2176.81,663.989 " fill="none" style="stroke: #808080; stroke-width: 1.0; stroke-dasharray: 7.0,7.0;"/><polygon fill="#808080" points="2296.72,603.694,2286.8821,604.1576,2292.2516,605.9375,2290.4717,611.307,2296.72,603.694" style="stroke: #808080; stroke-width: 1.0;"/><path d="M2434.96,600.686 C2380.93,615.714 2249.31,652.321 2181.27,671.243 " fill="none" style="stroke: #808080; stroke-width: 1.0; stroke-dasharray: 7.0,7.0;"/><polygon fill="#808080" points="2439.94,599.301,2430.1964,597.8647,2435.1236,600.6436,2432.3447,605.5708,2439.94,599.301" style="stroke: #808080; stroke-width: 1.0;"/><path d="M2568.75,598.754 C2495.26,613.161 2274.36,656.464 2181.19,674.73 " fill="none" style="stroke: #808080; stroke-width: 1.0; stroke-dasharray: 7.0,7.0;"/><polygon fill="#808080" points="2573.78,597.767,2564.1807,595.564,2568.8725,598.7242,2565.7122,603.416,2573.78,597.767" style="stroke: #808080; stroke-width: 1.0;"/><path d="M1380.58,597.45 C1502.71,611.226 1955.64,662.316 2096.74,678.234 " fill="none" style="stroke: #808080; stroke-width: 1.0; stroke-dasharray: 7.0,7.0;"/><polygon fill="#808080" points="1375.36,596.86,1383.8582,601.838,1380.3289,597.4172,1384.7497,593.8878,1375.36,596.86" style="stroke: #808080; stroke-width: 1.0;"/><path d="M1682.43,598.52 C1759.67,612.813 1999.28,657.147 2096.93,675.216 " fill="none" style="stroke: #808080; stroke-width: 1.0; stroke-dasharray: 7.0,7.0;"/><polygon fill="#808080" points="1677.15,597.544,1685.2668,603.1223,1682.0657,598.4583,1686.7297,595.2572,1677.15,597.544" style="stroke: #808080; stroke-width: 1.0;"/><path d="M2169.77,608.994 C2163.49,624.1 2153.77,647.464 2146.94,663.89 " fill="none" style="stroke: #808080; stroke-width: 1.0; stroke-dasharray: 7.0,7.0;"/><polygon fill="#808080" points="2171.76,604.209,2164.6112,610.9836,2169.8404,608.8258,2171.9981,614.055,2171.76,604.209" style="stroke: #808080; stroke-width: 1.0;"/><path d="M2109.06,608.994 C2115.18,624.1 2124.63,647.464 2131.27,663.89 " fill="none" style="stroke: #808080; stroke-width: 1.0; stroke-dasharray: 7.0,7.0;"/><polygon fill="#808080" points="2107.13,604.209,2106.7925,614.0521,2109.0029,608.845,2114.21,611.0554,2107.13,604.209" style="stroke: #808080; stroke-width: 1.0;"/><path d="M1931.43,603.37 C1970.65,618.416 2048.15,648.15 2096.56,666.721 " fill="none" style="stroke: #808080; stroke-width: 1.0; stroke-dasharray: 7.0,7.0;"/><polygon fill="#808080" points="1926.38,601.435,1933.3385,608.4049,1931.0453,603.2337,1936.2164,600.9405,1926.38,601.435" style="stroke: #808080; stroke-width: 1.0;"/><path d="M2229.83,607.448 C2211.78,622.466 2182.41,646.892 2161.97,663.89 " fill="none" style="stroke: #808080; stroke-width: 1.0; stroke-dasharray: 7.0,7.0;"/><polygon fill="#808080" points="2233.73,604.209,2224.2538,606.8926,2229.8871,607.4078,2229.3719,613.0412,2233.73,604.209" style="stroke: #808080; stroke-width: 1.0;"/><path d="M313,609.465 C313,627.683 313,657.424 313,672.91 " fill="none" style="stroke: #808080; stroke-width: 1.0; stroke-dasharray: 7.0,7.0;"/><polygon fill="#808080" points="313,604.209,309,613.209,313,609.209,317,613.209,313,604.209" style="stroke: #808080; stroke-width: 1.0;"/><path d="M389.609,608.075 C371.143,626.135 339.56,657.024 323.317,672.91 " fill="none" style="stroke: #808080; stroke-width: 1.0; stroke-dasharray: 7.0,7.0;"/><polygon fill="#808080" points="393.561,604.209,384.3292,607.6403,389.9857,607.7043,389.9217,613.3608,393.561,604.209" style="stroke: #808080; stroke-width: 1.0;"/><path d="M472.27,606.378 C434.667,624.468 365.552,657.718 332.116,673.804 " fill="none" style="stroke: #808080; stroke-width: 1.0; stroke-dasharray: 7.0,7.0;"/><polygon fill="#808080" points="477.138,604.036,467.2937,604.3348,472.6327,606.2044,470.7631,611.5434,477.138,604.036" style="stroke: #808080; stroke-width: 1.0;"/><path d="M66.831,604.473 C125.563,623.208 246.859,661.901 293.833,676.886 " fill="none" style="stroke: #808080; stroke-width: 1.0; stroke-dasharray: 7.0,7.0;"/><polygon fill="#808080" points="62.029,602.941,69.3874,609.4873,66.7924,604.4608,71.819,601.8658,62.029,602.941" style="stroke: #808080; stroke-width: 1.0;"/><path d="M151.161,606.385 C189.48,624.525 259.983,657.902 293.852,673.935 " fill="none" style="stroke: #808080; stroke-width: 1.0; stroke-dasharray: 7.0,7.0;"/><polygon fill="#808080" points="146.201,604.036,152.6237,611.5025,150.7201,606.1756,156.047,604.272,146.201,604.036" style="stroke: #808080; stroke-width: 1.0;"/><path d="M233.866,608.075 C252.941,626.135 285.564,657.024 302.343,672.91 " fill="none" style="stroke: #808080; stroke-width: 1.0; stroke-dasharray: 7.0,7.0;"/><polygon fill="#808080" points="229.783,604.209,233.5698,613.3008,233.4143,607.6461,239.0691,607.4906,229.783,604.209" style="stroke: #808080; stroke-width: 1.0;"/><path d="M818.705,525.977 C832.11,541.982 853.74,567.809 865.583,581.95 " fill="none" style="stroke: #808080; stroke-width: 1.0; stroke-dasharray: 7.0,7.0;"/><polygon fill="#808080" points="815.486,522.132,818.1963,531.6006,818.6956,525.9658,824.3304,526.4652,815.486,522.132" style="stroke: #808080; stroke-width: 1.0;"/><path d="M891.006,527.216 C886.787,543.288 880.256,568.169 876.638,581.95 " fill="none" style="stroke: #808080; stroke-width: 1.0; stroke-dasharray: 7.0,7.0;"/><polygon fill="#808080" points="892.34,522.132,886.1851,529.8207,891.0699,526.968,893.9227,531.8529,892.34,522.132" style="stroke: #808080; stroke-width: 1.0;"/><path d="M962.548,525.171 C941.439,541.103 906.37,567.57 887.316,581.95 " fill="none" style="stroke: #808080; stroke-width: 1.0; stroke-dasharray: 7.0,7.0;"/><polygon fill="#808080" points="966.575,522.132,956.9813,524.3594,962.5836,525.1434,961.7996,530.7457,966.575,522.132" style="stroke: #808080; stroke-width: 1.0;"/><path d="M1038.44,524.189 C1000.112,539.995 933.97,567.27 898.371,581.95 " fill="none" style="stroke: #808080; stroke-width: 1.0; stroke-dasharray: 7.0,7.0;"/><polygon fill="#808080" points="1043.43,522.132,1033.5851,521.8536,1038.8054,524.0327,1036.6262,529.253,1043.43,522.132" style="stroke: #808080; stroke-width: 1.0;"/><path d="M626.231,526.799 C617.802,542.854 604.574,568.049 597.276,581.95 " fill="none" style="stroke: #808080; stroke-width: 1.0; stroke-dasharray: 7.0,7.0;"/><polygon fill="#808080" points="628.681,522.132,620.9559,528.2412,626.3568,526.559,628.039,531.9599,628.681,522.132" style="stroke: #808080; stroke-width: 1.0;"/><path d="M698.406,524.973 C673.149,540.882 630.878,567.51 607.954,581.95 " fill="none" style="stroke: #808080; stroke-width: 1.0; stroke-dasharray: 7.0,7.0;"/><polygon fill="#808080" points="702.915,522.132,693.1677,523.5425,698.6839,524.7961,697.4302,530.3123,702.915,522.132" style="stroke: #808080; stroke-width: 1.0;"/><path d="M306.16,520.316 C369.076,536.094 504.741,570.117 563.691,584.901 " fill="none" style="stroke: #808080; stroke-width: 1.0; stroke-dasharray: 7.0,7.0;"/><polygon fill="#808080" points="301.03,519.029,308.7874,525.0972,305.88,520.2447,310.7325,517.3373,301.03,519.029" style="stroke: #808080; stroke-width: 1.0;"/><path d="M397.193,523.647 C442.194,539.436 521.768,567.357 563.943,582.155 " fill="none" style="stroke: #808080; stroke-width: 1.0; stroke-dasharray: 7.0,7.0;"/><polygon fill="#808080" points="392.415,521.97,399.5823,528.725,397.1328,523.626,402.2318,521.1765,392.415,521.97" style="stroke: #808080; stroke-width: 1.0;"/><path d="M479.398,524.775 C506.007,540.661 550.878,567.45 575.167,581.95 " fill="none" style="stroke: #808080; stroke-width: 1.0; stroke-dasharray: 7.0,7.0;"/><polygon fill="#808080" points="474.971,522.132,480.6482,530.1799,479.2641,524.695,484.749,523.3109,474.971,522.132" style="stroke: #808080; stroke-width: 1.0;"/><path d="M556.954,526.799 C565.584,542.854 579.126,568.049 586.598,581.95 " fill="none" style="stroke: #808080; stroke-width: 1.0; stroke-dasharray: 7.0,7.0;"/><polygon fill="#808080" points="554.446,522.132,555.1834,531.9532,556.8131,526.5362,562.2301,528.1659,554.446,522.132" style="stroke: #808080; stroke-width: 1.0;"/><path d="M874,609.465 C874,627.683 874,657.424 874,672.91 " fill="none" style="stroke: #808080; stroke-width: 1.0; stroke-dasharray: 7.0,7.0;"/><polygon fill="#808080" points="874,604.209,870,613.209,874,609.209,878,613.209,874,604.209" style="stroke: #808080; stroke-width: 1.0;"/><path d="M624.925,604.391 C684.321,623.137 807.618,662.05 854.939,676.984 " fill="none" style="stroke: #808080; stroke-width: 1.0; stroke-dasharray: 7.0,7.0;"/><polygon fill="#808080" points="620.07,602.859,627.4497,609.3813,624.8384,604.3632,629.8564,601.7519,620.07,602.859" style="stroke: #808080; stroke-width: 1.0;"/><path d="M1232.46,606.175 C1192.81,624.365 1119.05,658.204 1084.19,674.195 " fill="none" style="stroke: #808080; stroke-width: 1.0; stroke-dasharray: 7.0,7.0;"/><polygon fill="#808080" points="1237.12,604.036,1227.2719,604.1549,1232.5758,606.1217,1230.609,611.4256,1237.12,604.036" style="stroke: #808080; stroke-width: 1.0;"/><path d="M982.847,607.622 C1002.457,625.615 1036.54,656.89 1054,672.91 " fill="none" style="stroke: #808080; stroke-width: 1.0; stroke-dasharray: 7.0,7.0;"/><polygon fill="#808080" points="979.127,604.209,983.0548,613.2407,982.8114,607.5891,988.463,607.3457,979.127,604.209" style="stroke: #808080; stroke-width: 1.0;"/><path d="M1065,609.465 C1065,627.683 1065,657.424 1065,672.91 " fill="none" style="stroke: #808080; stroke-width: 1.0; stroke-dasharray: 7.0,7.0;"/><polygon fill="#808080" points="1065,604.209,1061,613.209,1065,609.209,1069,613.209,1065,604.209" style="stroke: #808080; stroke-width: 1.0;"/><path d="M1147.15,607.622 C1127.54,625.615 1093.46,656.89 1076,672.91 " fill="none" style="stroke: #808080; stroke-width: 1.0; stroke-dasharray: 7.0,7.0;"/><polygon fill="#808080" points="1150.87,604.209,1141.53,607.3339,1147.1813,607.5844,1146.9307,613.2357,1150.87,604.209" style="stroke: #808080; stroke-width: 1.0;"/><path d="M337.327,688.3005 C442.29,702.5409 855.337,758.5792 949.721,771.3845 " fill="none" style="stroke: #808080; stroke-width: 1.0; stroke-dasharray: 7.0,7.0;"/><polygon fill="#808080" points="332.278,687.6154,340.6593,692.7878,337.2327,688.2868,341.7336,684.8602,332.278,687.6154" style="stroke: #808080; stroke-width: 1.0;"/><path d="M889.024,699.075 C908.302,717.1352 941.272,748.0236 958.229,763.9096 " fill="none" style="stroke: #808080; stroke-width: 1.0; stroke-dasharray: 7.0,7.0;"/><polygon fill="#808080" points="884.898,695.2094,888.731,704.2818,888.5468,698.6279,894.2007,698.4437,884.898,695.2094" style="stroke: #808080; stroke-width: 1.0;"/><path d="M2091.48,688.6151 C1891.22,703.8485 1120.37,762.4859 988.305,772.5315 " fill="none" style="stroke: #808080; stroke-width: 1.0; stroke-dasharray: 7.0,7.0;"/><polygon fill="#808080" points="2096.67,688.2201,2087.3883,684.9262,2091.6849,688.6058,2088.0054,692.9024,2096.67,688.2201" style="stroke: #808080; stroke-width: 1.0;"/><path d="M1050.31,698.6224 C1030.9,716.615 997.164,747.8901 979.884,763.9096 " fill="none" style="stroke: #808080; stroke-width: 1.0; stroke-dasharray: 7.0,7.0;"/><polygon fill="#808080" points="1053.99,695.2094,1044.6708,698.3957,1050.3236,698.6091,1050.1103,704.2619,1053.99,695.2094" style="stroke: #808080; stroke-width: 1.0;"/></g></svg>