<?xml version="1.0" encoding="UTF-8" standalone="yes"?><svg xmlns="http://www.w3.org/2000/svg" xmlns:xlink="http://www.w3.org/1999/xlink" height="505px" style="width:407px;height:505px;background:#3C3F41;" version="1.1" viewBox="0 0 407 505" width="407px"><defs/><g><ellipse cx="208" cy="20" fill="#808080" rx="10" ry="10" style="stroke: none; stroke-width: 1.0;"/><polygon fill="#3C3F41" points="189,50,237,50,227,66,237,82.0001,189,82.0001" style="stroke: #808080; stroke-width: 1.5;"/><text fill="#D3D3D3" font-family="Ubuntu Mono" font-size="12" lengthAdjust="spacingAndGlyphs" textLength="18" x="199" y="69.9601">src</text><rect fill="#3C3F41" height="32.0001" style="stroke: #808080; stroke-width: 1.5;" width="32" x="112" y="135.5001"/><line style="stroke: #808080; stroke-width: 1.5;" x1="117" x2="117" y1="135.5001" y2="167.5002"/><line style="stroke: #808080; stroke-width: 1.5;" x1="139" x2="139" y1="135.5001" y2="167.5002"/><text fill="#D3D3D3" font-family="Ubuntu Mono" font-size="12" lengthAdjust="spacingAndGlyphs" textLength="12" x="122" y="155.4602">be</text><rect fill="#3C3F41" height="32.0001" style="stroke: #808080; stroke-width: 1.5;" width="38" x="10" y="221.0003"/><text fill="#D3D3D3" font-family="Ubuntu Mono" font-size="12" lengthAdjust="spacingAndGlyphs" textLength="18" x="20" y="240.9603">nm1</text><rect fill="#3C3F41" height="32.0001" style="stroke: #808080; stroke-width: 1.5;" width="38" x="76" y="221.0003"/><text fill="#D3D3D3" font-family="Ubuntu Mono" font-size="12" lengthAdjust="spacingAndGlyphs" textLength="18" x="86" y="240.9603">nm2</text><rect fill="#3C3F41" height="32.0001" style="stroke: #808080; stroke-width: 1.5;" width="38" x="142" y="221.0003"/><text fill="#D3D3D3" font-family="Ubuntu Mono" font-size="12" lengthAdjust="spacingAndGlyphs" textLength="18" x="152" y="240.9603">...</text><rect fill="#3C3F41" height="32.0001" style="stroke: #808080; stroke-width: 1.5;" width="38" x="208" y="221.0003"/><text fill="#D3D3D3" font-family="Ubuntu Mono" font-size="12" lengthAdjust="spacingAndGlyphs" textLength="18" x="218" y="240.9603">nmN</text><rect fill="#3C3F41" height="32.0001" style="stroke: #808080; stroke-width: 1.5;" width="32" x="46" y="326.5004"/><line style="stroke: #808080; stroke-width: 1.5;" x1="51" x2="51" y1="326.5004" y2="358.5005"/><line style="stroke: #808080; stroke-width: 1.5;" x1="73" x2="73" y1="326.5004" y2="358.5005"/><text fill="#D3D3D3" font-family="Ubuntu Mono" font-size="12" lengthAdjust="spacingAndGlyphs" textLength="12" x="56" y="346.4604">es</text><rect fill="#3C3F41" height="32.0001" style="stroke: #808080; stroke-width: 1.5;" width="38" x="106" y="326.5004"/><line style="stroke: #808080; stroke-width: 1.5;" x1="111" x2="111" y1="326.5004" y2="358.5005"/><line style="stroke: #808080; stroke-width: 1.5;" x1="139" x2="139" y1="326.5004" y2="358.5005"/><text fill="#D3D3D3" font-family="Ubuntu Mono" font-size="12" lengthAdjust="spacingAndGlyphs" textLength="18" x="116" y="346.4604">tpl</text><rect fill="#3C3F41" height="32.0001" style="stroke: #808080; stroke-width: 1.5;" width="38" x="172" y="326.5004"/><line style="stroke: #808080; stroke-width: 1.5;" x1="177" x2="177" y1="326.5004" y2="358.5005"/><line style="stroke: #808080; stroke-width: 1.5;" x1="205" x2="205" y1="326.5004" y2="358.5005"/><text fill="#D3D3D3" font-family="Ubuntu Mono" font-size="12" lengthAdjust="spacingAndGlyphs" textLength="18" x="182" y="346.4604">ast</text><rect fill="#3C3F41" height="32.0001" style="stroke: #808080; stroke-width: 1.5;" width="32" x="338" y="122.0001"/><line style="stroke: #808080; stroke-width: 1.5;" x1="343" x2="343" y1="122.0001" y2="154.0002"/><line style="stroke: #808080; stroke-width: 1.5;" x1="365" x2="365" y1="122.0001" y2="154.0002"/><text fill="#D3D3D3" font-family="Ubuntu Mono" font-size="12" lengthAdjust="spacingAndGlyphs" textLength="12" x="348" y="141.9602">fe</text><rect fill="#3C3F41" height="32.0001" style="stroke: #808080; stroke-width: 1.5;" width="38" x="302" y="207.5002"/><line style="stroke: #808080; stroke-width: 1.5;" x1="307" x2="307" y1="207.5002" y2="239.5003"/><line style="stroke: #808080; stroke-width: 1.5;" x1="335" x2="335" y1="207.5002" y2="239.5003"/><text fill="#D3D3D3" font-family="Ubuntu Mono" font-size="12" lengthAdjust="spacingAndGlyphs" textLength="18" x="312" y="227.4603">css</text><rect fill="#3C3F41" height="32.0001" style="stroke: #808080; stroke-width: 1.5;" width="38" x="368" y="207.5002"/><line style="stroke: #808080; stroke-width: 1.5;" x1="373" x2="373" y1="207.5002" y2="239.5003"/><line style="stroke: #808080; stroke-width: 1.5;" x1="401" x2="401" y1="207.5002" y2="239.5003"/><text fill="#D3D3D3" font-family="Ubuntu Mono" font-size="12" lengthAdjust="spacingAndGlyphs" textLength="18" x="378" y="227.4603">ast</text><rect fill="#3C3F41" height="32.0001" style="stroke: #808080; stroke-width: 1.5;" width="44" x="332" y="293.0003"/><line style="stroke: #808080; stroke-width: 1.5;" x1="337" x2="337" y1="293.0003" y2="325.0004"/><line style="stroke: #808080; stroke-width: 1.5;" x1="371" x2="371" y1="293.0003" y2="325.0004"/><text fill="#D3D3D3" font-family="Ubuntu Mono" font-size="12" lengthAdjust="spacingAndGlyphs" textLength="24" x="342" y="312.9604">html</text><rect fill="#3C3F41" height="32.0001" style="stroke: #808080; stroke-width: 1.5;" width="32" x="338" y="360.0004"/><line style="stroke: #808080; stroke-width: 1.5;" x1="343" x2="343" y1="360.0004" y2="392.0005"/><line style="stroke: #808080; stroke-width: 1.5;" x1="365" x2="365" y1="360.0004" y2="392.0005"/><text fill="#D3D3D3" font-family="Ubuntu Mono" font-size="12" lengthAdjust="spacingAndGlyphs" textLength="12" x="348" y="379.9605">lr</text><polygon fill="#3C3F41" points="189,432.0005,227,432.0005,237,448.0005,227,464.0006,189,464.0006" style="stroke: #808080; stroke-width: 1.5;"/><text fill="#D3D3D3" font-family="Ubuntu Mono" font-size="12" lengthAdjust="spacingAndGlyphs" textLength="18" x="199" y="451.9606">bld</text><ellipse cx="208" cy="494.0006" fill="none" rx="10" ry="10" style="stroke: #808080; stroke-width: 1.0;"/><ellipse cx="208.5" cy="494.5006" fill="#808080" rx="6" ry="6" style="stroke: none; stroke-width: 1.0;"/><line style="stroke: #808080; stroke-width: 1.5;" x1="208" x2="208" y1="30" y2="50"/><polygon fill="#808080" points="204,40,208,50,212,40,208,44" style="stroke: #808080; stroke-width: 1.0;"/><line style="stroke: #808080; stroke-width: 1.5;" x1="29" x2="29" y1="201.0003" y2="221.0003"/><polygon fill="#808080" points="25,211.0003,29,221.0003,33,211.0003,29,215.0003" style="stroke: #808080; stroke-width: 1.0;"/><line style="stroke: #808080; stroke-width: 1.5;" x1="29" x2="29" y1="253.0003" y2="273.0003"/><polygon fill="#808080" points="25,263.0003,29,273.0003,33,263.0003,29,267.0003" style="stroke: #808080; stroke-width: 1.0;"/><line style="stroke: #808080; stroke-width: 1.5;" x1="95" x2="95" y1="201.0003" y2="221.0003"/><polygon fill="#808080" points="91,211.0003,95,221.0003,99,211.0003,95,215.0003" style="stroke: #808080; stroke-width: 1.0;"/><line style="stroke: #808080; stroke-width: 1.5;" x1="95" x2="95" y1="253.0003" y2="273.0003"/><polygon fill="#808080" points="91,263.0003,95,273.0003,99,263.0003,95,267.0003" style="stroke: #808080; stroke-width: 1.0;"/><line style="stroke: #808080; stroke-width: 1.5;" x1="161" x2="161" y1="201.0003" y2="221.0003"/><polygon fill="#808080" points="157,211.0003,161,221.0003,165,211.0003,161,215.0003" style="stroke: #808080; stroke-width: 1.0;"/><line style="stroke: #808080; stroke-width: 1.5;" x1="161" x2="161" y1="253.0003" y2="273.0003"/><polygon fill="#808080" points="157,263.0003,161,273.0003,165,263.0003,161,267.0003" style="stroke: #808080; stroke-width: 1.0;"/><line style="stroke: #808080; stroke-width: 1.5;" x1="227" x2="227" y1="201.0003" y2="221.0003"/><polygon fill="#808080" points="223,211.0003,227,221.0003,231,211.0003,227,215.0003" style="stroke: #808080; stroke-width: 1.0;"/><line style="stroke: #808080; stroke-width: 1.5;" x1="227" x2="227" y1="253.0003" y2="273.0003"/><polygon fill="#808080" points="223,263.0003,227,273.0003,231,263.0003,227,267.0003" style="stroke: #808080; stroke-width: 1.0;"/><line style="stroke: #808080; stroke-width: 1.5;" x1="29" x2="227" y1="201.0003" y2="201.0003"/><line style="stroke: #808080; stroke-width: 1.5;" x1="29" x2="227" y1="273.0003" y2="273.0003"/><line style="stroke: #808080; stroke-width: 1.5;" x1="128" x2="128" y1="167.5002" y2="201.0003"/><polygon fill="#808080" points="124,191.0003,128,201.0003,132,191.0003,128,195.0003" style="stroke: #808080; stroke-width: 1.0;"/><line style="stroke: #808080; stroke-width: 1.5;" x1="62" x2="62" y1="306.5004" y2="326.5004"/><polygon fill="#808080" points="58,316.5004,62,326.5004,66,316.5004,62,320.5004" style="stroke: #808080; stroke-width: 1.0;"/><line style="stroke: #808080; stroke-width: 1.5;" x1="62" x2="62" y1="358.5005" y2="378.5005"/><polygon fill="#808080" points="58,368.5005,62,378.5005,66,368.5005,62,372.5005" style="stroke: #808080; stroke-width: 1.0;"/><line style="stroke: #808080; stroke-width: 1.5;" x1="125" x2="125" y1="306.5004" y2="326.5004"/><polygon fill="#808080" points="121,316.5004,125,326.5004,129,316.5004,125,320.5004" style="stroke: #808080; stroke-width: 1.0;"/><line style="stroke: #808080; stroke-width: 1.5;" x1="125" x2="125" y1="358.5005" y2="378.5005"/><polygon fill="#808080" points="121,368.5005,125,378.5005,129,368.5005,125,372.5005" style="stroke: #808080; stroke-width: 1.0;"/><line style="stroke: #808080; stroke-width: 1.5;" x1="191" x2="191" y1="306.5004" y2="326.5004"/><polygon fill="#808080" points="187,316.5004,191,326.5004,195,316.5004,191,320.5004" style="stroke: #808080; stroke-width: 1.0;"/><line style="stroke: #808080; stroke-width: 1.5;" x1="191" x2="191" y1="358.5005" y2="378.5005"/><polygon fill="#808080" points="187,368.5005,191,378.5005,195,368.5005,191,372.5005" style="stroke: #808080; stroke-width: 1.0;"/><line style="stroke: #808080; stroke-width: 1.5;" x1="62" x2="191" y1="306.5004" y2="306.5004"/><line style="stroke: #808080; stroke-width: 1.5;" x1="62" x2="191" y1="378.5005" y2="378.5005"/><line style="stroke: #808080; stroke-width: 1.5;" x1="128" x2="128" y1="273.0003" y2="306.5004"/><polygon fill="#808080" points="124,296.5004,128,306.5004,132,296.5004,128,300.5004" style="stroke: #808080; stroke-width: 1.0;"/><line style="stroke: #808080; stroke-width: 1.5;" x1="321" x2="321" y1="187.5002" y2="207.5002"/><polygon fill="#808080" points="317,197.5002,321,207.5002,325,197.5002,321,201.5002" style="stroke: #808080; stroke-width: 1.0;"/><line style="stroke: #808080; stroke-width: 1.5;" x1="321" x2="321" y1="239.5003" y2="259.5003"/><polygon fill="#808080" points="317,249.5003,321,259.5003,325,249.5003,321,253.5003" style="stroke: #808080; stroke-width: 1.0;"/><line style="stroke: #808080; stroke-width: 1.5;" x1="387" x2="387" y1="187.5002" y2="207.5002"/><polygon fill="#808080" points="383,197.5002,387,207.5002,391,197.5002,387,201.5002" style="stroke: #808080; stroke-width: 1.0;"/><line style="stroke: #808080; stroke-width: 1.5;" x1="387" x2="387" y1="239.5003" y2="259.5003"/><polygon fill="#808080" points="383,249.5003,387,259.5003,391,249.5003,387,253.5003" style="stroke: #808080; stroke-width: 1.0;"/><line style="stroke: #808080; stroke-width: 1.5;" x1="321" x2="387" y1="187.5002" y2="187.5002"/><line style="stroke: #808080; stroke-width: 1.5;" x1="321" x2="387" y1="259.5003" y2="259.5003"/><line style="stroke: #808080; stroke-width: 1.5;" x1="354" x2="354" y1="154.0002" y2="187.5002"/><polygon fill="#808080" points="350,177.5002,354,187.5002,358,177.5002,354,181.5002" style="stroke: #808080; stroke-width: 1.0;"/><line style="stroke: #808080; stroke-width: 1.5;" x1="354" x2="354" y1="259.5003" y2="293.0003"/><polygon fill="#808080" points="350,283.0003,354,293.0003,358,283.0003,354,287.0003" style="stroke: #808080; stroke-width: 1.0;"/><line style="stroke: #808080; stroke-width: 1.5;" x1="354" x2="354" y1="325.0004" y2="360.0004"/><polygon fill="#808080" points="350,350.0004,354,360.0004,358,350.0004,354,354.0004" style="stroke: #808080; stroke-width: 1.0;"/><line style="stroke: #808080; stroke-width: 1.5;" x1="128" x2="128" y1="102.0001" y2="135.5001"/><polygon fill="#808080" points="124,125.5001,128,135.5001,132,125.5001,128,129.5001" style="stroke: #808080; stroke-width: 1.0;"/><line style="stroke: #808080; stroke-width: 1.5;" x1="128" x2="128" y1="378.5005" y2="412.0005"/><polygon fill="#808080" points="124,402.0005,128,412.0005,132,402.0005,128,406.0005" style="stroke: #808080; stroke-width: 1.0;"/><line style="stroke: #808080; stroke-width: 1.5;" x1="354" x2="354" y1="102.0001" y2="122.0001"/><polygon fill="#808080" points="350,112.0001,354,122.0001,358,112.0001,354,116.0001" style="stroke: #808080; stroke-width: 1.0;"/><line style="stroke: #808080; stroke-width: 1.5;" x1="354" x2="354" y1="392.0005" y2="412.0005"/><polygon fill="#808080" points="350,402.0005,354,412.0005,358,402.0005,354,406.0005" style="stroke: #808080; stroke-width: 1.0;"/><line style="stroke: #808080; stroke-width: 1.5;" x1="128" x2="354" y1="102.0001" y2="102.0001"/><line style="stroke: #808080; stroke-width: 1.5;" x1="128" x2="354" y1="412.0005" y2="412.0005"/><line style="stroke: #808080; stroke-width: 1.5;" x1="208" x2="208" y1="82.0001" y2="102.0001"/><polygon fill="#808080" points="204,92.0001,208,102.0001,212,92.0001,208,96.0001" style="stroke: #808080; stroke-width: 1.0;"/><line style="stroke: #808080; stroke-width: 1.5;" x1="208" x2="208" y1="412.0005" y2="432.0005"/><polygon fill="#808080" points="204,422.0005,208,432.0005,212,422.0005,208,426.0005" style="stroke: #808080; stroke-width: 1.0;"/><line style="stroke: #808080; stroke-width: 1.5;" x1="208" x2="208" y1="464.0006" y2="484.0006"/><polygon fill="#808080" points="204,474.0006,208,484.0006,212,474.0006,208,478.0006" style="stroke: #808080; stroke-width: 1.0;"/></g></svg>