<?xml version="1.0" encoding="UTF-8" standalone="yes"?><svg xmlns="http://www.w3.org/2000/svg" xmlns:xlink="http://www.w3.org/1999/xlink" height="518.4px" style="width:373px;height:518px;background:#3C3F41;" version="1.1" viewBox="0 0 373 518" width="373.6px"><defs/><g><text fill="#A9A9A9" font-family="Ubuntu Mono" font-size="5.6" lengthAdjust="spacingAndGlyphs" textLength="32" x="340.8" y="12.648">2015-09-10</text><a target="_top" xlink:href="https://esf.itms.pro" xlink:title="https://esf.itms.pro"><text fill="#0000FF" font-family="Ubuntu Mono" font-size="5.6" lengthAdjust="spacingAndGlyphs" text-decoration="underline" textLength="38.4" x="334.4" y="20.648">esf.itms.pro</text><line style="stroke: #0000FF; stroke-width: 1.0;" x1="334.4" x2="372.8" y1="22.248" y2="22.248"/></a><text fill="#D3D3D3" font-family="Helvetica" font-size="24" lengthAdjust="spacingAndGlyphs" textLength="48.8" x="166" y="46.2773">BLD</text><ellipse cx="190.4" cy="59.9375" fill="#808080" rx="8" ry="8" style="stroke: none; stroke-width: 0.800000011920929;"/><polygon fill="#3C3F41" points="175.2,83.9375,213.6,83.9375,205.6,96.7375,213.6,109.5376,175.2,109.5376" style="stroke: #808080; stroke-width: 1.2000000178813934;"/><text fill="#D3D3D3" font-family="Ubuntu Mono" font-size="9.6" lengthAdjust="spacingAndGlyphs" textLength="14.4" x="183.2" y="99.9056">src</text><rect fill="#3C3F41" height="25.6001" style="stroke: #808080; stroke-width: 1.2000000178813934;" width="25.6" x="89.6" y="179.1376"/><line style="stroke: #808080; stroke-width: 1.2000000178813934;" x1="93.6" x2="93.6" y1="179.1376" y2="204.7377"/><line style="stroke: #808080; stroke-width: 1.2000000178813934;" x1="111.2" x2="111.2" y1="179.1376" y2="204.7377"/><text fill="#D3D3D3" font-family="Ubuntu Mono" font-size="9.6" lengthAdjust="spacingAndGlyphs" textLength="9.6" x="97.6" y="195.1057">be</text><rect fill="#3C3F41" height="25.6001" style="stroke: #808080; stroke-width: 1.2000000178813934;" width="30.4" x="8" y="248.7377"/><text fill="#D3D3D3" font-family="Ubuntu Mono" font-size="9.6" lengthAdjust="spacingAndGlyphs" textLength="14.4" x="16" y="264.7058">nm1</text><rect fill="#3C3F41" height="25.6001" style="stroke: #808080; stroke-width: 1.2000000178813934;" width="30.4" x="60.8" y="248.7377"/><text fill="#D3D3D3" font-family="Ubuntu Mono" font-size="9.6" lengthAdjust="spacingAndGlyphs" textLength="14.4" x="68.8" y="264.7058">nm2</text><rect fill="#3C3F41" height="25.6001" style="stroke: #808080; stroke-width: 1.2000000178813934;" width="30.4" x="113.6" y="248.7377"/><text fill="#D3D3D3" font-family="Ubuntu Mono" font-size="9.6" lengthAdjust="spacingAndGlyphs" textLength="14.4" x="121.6" y="264.7058">...</text><rect fill="#3C3F41" height="25.6001" style="stroke: #808080; stroke-width: 1.2000000178813934;" width="30.4" x="166.4" y="248.7377"/><text fill="#D3D3D3" font-family="Ubuntu Mono" font-size="9.6" lengthAdjust="spacingAndGlyphs" textLength="14.4" x="174.4" y="264.7058">nmN</text><rect fill="#3C3F41" height="25.6001" style="stroke: #808080; stroke-width: 1.2000000178813934;" width="25.6" x="36.8" y="334.3378"/><line style="stroke: #808080; stroke-width: 1.2000000178813934;" x1="40.8" x2="40.8" y1="334.3378" y2="359.9378"/><line style="stroke: #808080; stroke-width: 1.2000000178813934;" x1="58.4" x2="58.4" y1="334.3378" y2="359.9378"/><text fill="#D3D3D3" font-family="Ubuntu Mono" font-size="9.6" lengthAdjust="spacingAndGlyphs" textLength="9.6" x="44.8" y="350.3058">es</text><rect fill="#3C3F41" height="25.6001" style="stroke: #808080; stroke-width: 1.2000000178813934;" width="30.4" x="84.8" y="334.3378"/><line style="stroke: #808080; stroke-width: 1.2000000178813934;" x1="88.8" x2="88.8" y1="334.3378" y2="359.9378"/><line style="stroke: #808080; stroke-width: 1.2000000178813934;" x1="111.2" x2="111.2" y1="334.3378" y2="359.9378"/><text fill="#D3D3D3" font-family="Ubuntu Mono" font-size="9.6" lengthAdjust="spacingAndGlyphs" textLength="14.4" x="92.8" y="350.3058">tpl</text><rect fill="#3C3F41" height="25.6001" style="stroke: #808080; stroke-width: 1.2000000178813934;" width="30.4" x="137.6" y="334.3378"/><line style="stroke: #808080; stroke-width: 1.2000000178813934;" x1="141.6" x2="141.6" y1="334.3378" y2="359.9378"/><line style="stroke: #808080; stroke-width: 1.2000000178813934;" x1="164" x2="164" y1="334.3378" y2="359.9378"/><text fill="#D3D3D3" font-family="Ubuntu Mono" font-size="9.6" lengthAdjust="spacingAndGlyphs" textLength="14.4" x="145.6" y="350.3058">ast</text><rect fill="#3C3F41" height="25.6001" style="stroke: #808080; stroke-width: 1.2000000178813934;" width="25.6" x="294.4" y="141.5376"/><line style="stroke: #808080; stroke-width: 1.2000000178813934;" x1="298.4" x2="298.4" y1="141.5376" y2="167.1376"/><line style="stroke: #808080; stroke-width: 1.2000000178813934;" x1="316" x2="316" y1="141.5376" y2="167.1376"/><text fill="#D3D3D3" font-family="Ubuntu Mono" font-size="9.6" lengthAdjust="spacingAndGlyphs" textLength="9.6" x="302.4" y="157.5056">fe</text><rect fill="#3C3F41" height="25.6001" style="stroke: #808080; stroke-width: 1.2000000178813934;" width="25.6" x="241.6" y="211.1376"/><line style="stroke: #808080; stroke-width: 1.2000000178813934;" x1="245.6" x2="245.6" y1="211.1376" y2="236.7377"/><line style="stroke: #808080; stroke-width: 1.2000000178813934;" x1="263.2" x2="263.2" y1="211.1376" y2="236.7377"/><text fill="#D3D3D3" font-family="Ubuntu Mono" font-size="9.6" lengthAdjust="spacingAndGlyphs" textLength="9.6" x="249.6" y="227.1057">ng</text><rect fill="#3C3F41" height="25.6001" style="stroke: #808080; stroke-width: 1.2000000178813934;" width="25.6" x="241.6" y="264.7377"/><line style="stroke: #808080; stroke-width: 1.2000000178813934;" x1="245.6" x2="245.6" y1="264.7377" y2="290.3378"/><line style="stroke: #808080; stroke-width: 1.2000000178813934;" x1="263.2" x2="263.2" y1="264.7377" y2="290.3378"/><text fill="#D3D3D3" font-family="Ubuntu Mono" font-size="9.6" lengthAdjust="spacingAndGlyphs" textLength="9.6" x="249.6" y="280.7058">js</text><rect fill="#3C3F41" height="25.6001" style="stroke: #808080; stroke-width: 1.2000000178813934;" width="30.4" x="289.6" y="237.9377"/><line style="stroke: #808080; stroke-width: 1.2000000178813934;" x1="293.6" x2="293.6" y1="237.9377" y2="263.5377"/><line style="stroke: #808080; stroke-width: 1.2000000178813934;" x1="316" x2="316" y1="237.9377" y2="263.5377"/><text fill="#D3D3D3" font-family="Ubuntu Mono" font-size="9.6" lengthAdjust="spacingAndGlyphs" textLength="14.4" x="297.6" y="253.9057">css</text><rect fill="#3C3F41" height="25.6001" style="stroke: #808080; stroke-width: 1.2000000178813934;" width="30.4" x="342.4" y="237.9377"/><line style="stroke: #808080; stroke-width: 1.2000000178813934;" x1="346.4" x2="346.4" y1="237.9377" y2="263.5377"/><line style="stroke: #808080; stroke-width: 1.2000000178813934;" x1="368.8" x2="368.8" y1="237.9377" y2="263.5377"/><text fill="#D3D3D3" font-family="Ubuntu Mono" font-size="9.6" lengthAdjust="spacingAndGlyphs" textLength="14.4" x="350.4" y="253.9057">ast</text><rect fill="#3C3F41" height="25.6001" style="stroke: #808080; stroke-width: 1.2000000178813934;" width="35.2" x="289.6" y="334.3378"/><line style="stroke: #808080; stroke-width: 1.2000000178813934;" x1="293.6" x2="293.6" y1="334.3378" y2="359.9378"/><line style="stroke: #808080; stroke-width: 1.2000000178813934;" x1="320.8" x2="320.8" y1="334.3378" y2="359.9378"/><text fill="#D3D3D3" font-family="Ubuntu Mono" font-size="9.6" lengthAdjust="spacingAndGlyphs" textLength="19.2" x="297.6" y="350.3058">html</text><rect fill="#3C3F41" height="25.6001" style="stroke: #808080; stroke-width: 1.2000000178813934;" width="25.6" x="294.4" y="387.9378"/><line style="stroke: #808080; stroke-width: 1.2000000178813934;" x1="298.4" x2="298.4" y1="387.9378" y2="413.5379"/><line style="stroke: #808080; stroke-width: 1.2000000178813934;" x1="316" x2="316" y1="387.9378" y2="413.5379"/><text fill="#D3D3D3" font-family="Ubuntu Mono" font-size="9.6" lengthAdjust="spacingAndGlyphs" textLength="9.6" x="302.4" y="403.9059">lr</text><polygon fill="#3C3F41" points="175.2,445.5379,205.6,445.5379,213.6,458.3379,205.6,471.138,175.2,471.138" style="stroke: #808080; stroke-width: 1.2000000178813934;"/><text fill="#D3D3D3" font-family="Ubuntu Mono" font-size="9.6" lengthAdjust="spacingAndGlyphs" textLength="14.4" x="183.2" y="461.506">bld</text><ellipse cx="190.4" cy="495.138" fill="none" rx="8" ry="8" style="stroke: #808080; stroke-width: 0.800000011920929;"/><ellipse cx="190.8" cy="495.538" fill="#808080" rx="4.8" ry="4.8" style="stroke: none; stroke-width: 0.800000011920929;"/><line style="stroke: #808080; stroke-width: 1.2000000178813934;" x1="190.4" x2="190.4" y1="67.9375" y2="83.9375"/><polygon fill="#808080" points="187.2,75.9375,190.4,83.9375,193.6,75.9375,190.4,79.1375" style="stroke: #808080; stroke-width: 0.800000011920929;"/><line style="stroke: #808080; stroke-width: 1.2000000178813934;" x1="23.2" x2="23.2" y1="232.7377" y2="248.7377"/><polygon fill="#808080" points="20,240.7377,23.2,248.7377,26.4,240.7377,23.2,243.9377" style="stroke: #808080; stroke-width: 0.800000011920929;"/><line style="stroke: #808080; stroke-width: 1.2000000178813934;" x1="23.2" x2="23.2" y1="274.3378" y2="290.3378"/><polygon fill="#808080" points="20,282.3378,23.2,290.3378,26.4,282.3378,23.2,285.5378" style="stroke: #808080; stroke-width: 0.800000011920929;"/><line style="stroke: #808080; stroke-width: 1.2000000178813934;" x1="76" x2="76" y1="232.7377" y2="248.7377"/><polygon fill="#808080" points="72.8,240.7377,76,248.7377,79.2,240.7377,76,243.9377" style="stroke: #808080; stroke-width: 0.800000011920929;"/><line style="stroke: #808080; stroke-width: 1.2000000178813934;" x1="76" x2="76" y1="274.3378" y2="290.3378"/><polygon fill="#808080" points="72.8,282.3378,76,290.3378,79.2,282.3378,76,285.5378" style="stroke: #808080; stroke-width: 0.800000011920929;"/><line style="stroke: #808080; stroke-width: 1.2000000178813934;" x1="128.8" x2="128.8" y1="232.7377" y2="248.7377"/><polygon fill="#808080" points="125.6,240.7377,128.8,248.7377,132,240.7377,128.8,243.9377" style="stroke: #808080; stroke-width: 0.800000011920929;"/><line style="stroke: #808080; stroke-width: 1.2000000178813934;" x1="128.8" x2="128.8" y1="274.3378" y2="290.3378"/><polygon fill="#808080" points="125.6,282.3378,128.8,290.3378,132,282.3378,128.8,285.5378" style="stroke: #808080; stroke-width: 0.800000011920929;"/><line style="stroke: #808080; stroke-width: 1.2000000178813934;" x1="181.6" x2="181.6" y1="232.7377" y2="248.7377"/><polygon fill="#808080" points="178.4,240.7377,181.6,248.7377,184.8,240.7377,181.6,243.9377" style="stroke: #808080; stroke-width: 0.800000011920929;"/><line style="stroke: #808080; stroke-width: 1.2000000178813934;" x1="181.6" x2="181.6" y1="274.3378" y2="290.3378"/><polygon fill="#808080" points="178.4,282.3378,181.6,290.3378,184.8,282.3378,181.6,285.5378" style="stroke: #808080; stroke-width: 0.800000011920929;"/><line style="stroke: #808080; stroke-width: 1.2000000178813934;" x1="23.2" x2="181.6" y1="232.7377" y2="232.7377"/><line style="stroke: #808080; stroke-width: 1.2000000178813934;" x1="23.2" x2="181.6" y1="290.3378" y2="290.3378"/><line style="stroke: #808080; stroke-width: 1.2000000178813934;" x1="102.4" x2="102.4" y1="204.7377" y2="232.7377"/><polygon fill="#808080" points="99.2,224.7377,102.4,232.7377,105.6,224.7377,102.4,227.9377" style="stroke: #808080; stroke-width: 0.800000011920929;"/><line style="stroke: #808080; stroke-width: 1.2000000178813934;" x1="49.6" x2="49.6" y1="318.3378" y2="334.3378"/><polygon fill="#808080" points="46.4,326.3378,49.6,334.3378,52.8,326.3378,49.6,329.5378" style="stroke: #808080; stroke-width: 0.800000011920929;"/><line style="stroke: #808080; stroke-width: 1.2000000178813934;" x1="49.6" x2="49.6" y1="359.9378" y2="375.9378"/><polygon fill="#808080" points="46.4,367.9378,49.6,375.9378,52.8,367.9378,49.6,371.1378" style="stroke: #808080; stroke-width: 0.800000011920929;"/><line style="stroke: #808080; stroke-width: 1.2000000178813934;" x1="100" x2="100" y1="318.3378" y2="334.3378"/><polygon fill="#808080" points="96.8,326.3378,100,334.3378,103.2,326.3378,100,329.5378" style="stroke: #808080; stroke-width: 0.800000011920929;"/><line style="stroke: #808080; stroke-width: 1.2000000178813934;" x1="100" x2="100" y1="359.9378" y2="375.9378"/><polygon fill="#808080" points="96.8,367.9378,100,375.9378,103.2,367.9378,100,371.1378" style="stroke: #808080; stroke-width: 0.800000011920929;"/><line style="stroke: #808080; stroke-width: 1.2000000178813934;" x1="152.8" x2="152.8" y1="318.3378" y2="334.3378"/><polygon fill="#808080" points="149.6,326.3378,152.8,334.3378,156,326.3378,152.8,329.5378" style="stroke: #808080; stroke-width: 0.800000011920929;"/><line style="stroke: #808080; stroke-width: 1.2000000178813934;" x1="152.8" x2="152.8" y1="359.9378" y2="375.9378"/><polygon fill="#808080" points="149.6,367.9378,152.8,375.9378,156,367.9378,152.8,371.1378" style="stroke: #808080; stroke-width: 0.800000011920929;"/><line style="stroke: #808080; stroke-width: 1.2000000178813934;" x1="49.6" x2="152.8" y1="318.3378" y2="318.3378"/><line style="stroke: #808080; stroke-width: 1.2000000178813934;" x1="49.6" x2="152.8" y1="375.9378" y2="375.9378"/><line style="stroke: #808080; stroke-width: 1.2000000178813934;" x1="102.4" x2="102.4" y1="290.3378" y2="318.3378"/><polygon fill="#808080" points="99.2,310.3378,102.4,318.3378,105.6,310.3378,102.4,313.5378" style="stroke: #808080; stroke-width: 0.800000011920929;"/><line style="stroke: #808080; stroke-width: 1.2000000178813934;" x1="254.4" x2="254.4" y1="236.7377" y2="264.7377"/><polygon fill="#808080" points="251.2,256.7377,254.4,264.7377,257.6,256.7377,254.4,259.9377" style="stroke: #808080; stroke-width: 0.800000011920929;"/><line style="stroke: #808080; stroke-width: 1.2000000178813934;" x1="254.4" x2="254.4" y1="195.1376" y2="211.1376"/><polygon fill="#808080" points="251.2,203.1376,254.4,211.1376,257.6,203.1376,254.4,206.3376" style="stroke: #808080; stroke-width: 0.800000011920929;"/><line style="stroke: #808080; stroke-width: 1.2000000178813934;" x1="254.4" x2="254.4" y1="290.3378" y2="306.3378"/><polygon fill="#808080" points="251.2,298.3378,254.4,306.3378,257.6,298.3378,254.4,301.5378" style="stroke: #808080; stroke-width: 0.800000011920929;"/><line style="stroke: #808080; stroke-width: 1.2000000178813934;" x1="304.8" x2="304.8" y1="195.1376" y2="237.9377"/><polygon fill="#808080" points="301.6,229.9377,304.8,237.9377,308,229.9377,304.8,233.1377" style="stroke: #808080; stroke-width: 0.800000011920929;"/><line style="stroke: #808080; stroke-width: 1.2000000178813934;" x1="304.8" x2="304.8" y1="263.5377" y2="306.3378"/><polygon fill="#808080" points="301.6,298.3378,304.8,306.3378,308,298.3378,304.8,301.5378" style="stroke: #808080; stroke-width: 0.800000011920929;"/><line style="stroke: #808080; stroke-width: 1.2000000178813934;" x1="357.6" x2="357.6" y1="195.1376" y2="237.9377"/><polygon fill="#808080" points="354.4,229.9377,357.6,237.9377,360.8,229.9377,357.6,233.1377" style="stroke: #808080; stroke-width: 0.800000011920929;"/><line style="stroke: #808080; stroke-width: 1.2000000178813934;" x1="357.6" x2="357.6" y1="263.5377" y2="306.3378"/><polygon fill="#808080" points="354.4,298.3378,357.6,306.3378,360.8,298.3378,357.6,301.5378" style="stroke: #808080; stroke-width: 0.800000011920929;"/><line style="stroke: #808080; stroke-width: 1.2000000178813934;" x1="254.4" x2="357.6" y1="195.1376" y2="195.1376"/><line style="stroke: #808080; stroke-width: 1.2000000178813934;" x1="254.4" x2="357.6" y1="306.3378" y2="306.3378"/><line style="stroke: #808080; stroke-width: 1.2000000178813934;" x1="307.2" x2="307.2" y1="167.1376" y2="195.1376"/><polygon fill="#808080" points="304,187.1376,307.2,195.1376,310.4,187.1376,307.2,190.3376" style="stroke: #808080; stroke-width: 0.800000011920929;"/><line style="stroke: #808080; stroke-width: 1.2000000178813934;" x1="307.2" x2="307.2" y1="306.3378" y2="334.3378"/><polygon fill="#808080" points="304,326.3378,307.2,334.3378,310.4,326.3378,307.2,329.5378" style="stroke: #808080; stroke-width: 0.800000011920929;"/><line style="stroke: #808080; stroke-width: 1.2000000178813934;" x1="307.2" x2="307.2" y1="359.9378" y2="387.9378"/><polygon fill="#808080" points="304,379.9378,307.2,387.9378,310.4,379.9378,307.2,383.1378" style="stroke: #808080; stroke-width: 0.800000011920929;"/><line style="stroke: #808080; stroke-width: 1.2000000178813934;" x1="102.4" x2="102.4" y1="125.5376" y2="179.1376"/><polygon fill="#808080" points="99.2,171.1376,102.4,179.1376,105.6,171.1376,102.4,174.3376" style="stroke: #808080; stroke-width: 0.800000011920929;"/><line style="stroke: #808080; stroke-width: 1.2000000178813934;" x1="102.4" x2="102.4" y1="375.9378" y2="429.5379"/><polygon fill="#808080" points="99.2,421.5379,102.4,429.5379,105.6,421.5379,102.4,424.7379" style="stroke: #808080; stroke-width: 0.800000011920929;"/><line style="stroke: #808080; stroke-width: 1.2000000178813934;" x1="307.2" x2="307.2" y1="125.5376" y2="141.5376"/><polygon fill="#808080" points="304,133.5376,307.2,141.5376,310.4,133.5376,307.2,136.7376" style="stroke: #808080; stroke-width: 0.800000011920929;"/><line style="stroke: #808080; stroke-width: 1.2000000178813934;" x1="307.2" x2="307.2" y1="413.5379" y2="429.5379"/><polygon fill="#808080" points="304,421.5379,307.2,429.5379,310.4,421.5379,307.2,424.7379" style="stroke: #808080; stroke-width: 0.800000011920929;"/><line style="stroke: #808080; stroke-width: 1.2000000178813934;" x1="102.4" x2="307.2" y1="125.5376" y2="125.5376"/><line style="stroke: #808080; stroke-width: 1.2000000178813934;" x1="102.4" x2="307.2" y1="429.5379" y2="429.5379"/><line style="stroke: #808080; stroke-width: 1.2000000178813934;" x1="190.4" x2="190.4" y1="109.5376" y2="125.5376"/><polygon fill="#808080" points="187.2,117.5376,190.4,125.5376,193.6,117.5376,190.4,120.7376" style="stroke: #808080; stroke-width: 0.800000011920929;"/><line style="stroke: #808080; stroke-width: 1.2000000178813934;" x1="190.4" x2="190.4" y1="429.5379" y2="445.5379"/><polygon fill="#808080" points="187.2,437.5379,190.4,445.5379,193.6,437.5379,190.4,440.7379" style="stroke: #808080; stroke-width: 0.800000011920929;"/><line style="stroke: #808080; stroke-width: 1.2000000178813934;" x1="190.4" x2="190.4" y1="471.138" y2="487.138"/><polygon fill="#808080" points="187.2,479.138,190.4,487.138,193.6,479.138,190.4,482.338" style="stroke: #808080; stroke-width: 0.800000011920929;"/><text fill="#A9A9A9" font-family="Ubuntu Mono" font-size="8" lengthAdjust="spacingAndGlyphs" textLength="0" x="192.4" y="509.778"/><text fill="#A9A9A9" font-family="Ubuntu Mono" font-size="8" lengthAdjust="spacingAndGlyphs" textLength="64" x="158.4" y="517.778">© ITMS 2015-2016</text></g></svg>