<?xml version="1.0" encoding="UTF-8" standalone="yes"?><svg xmlns="http://www.w3.org/2000/svg" xmlns:xlink="http://www.w3.org/1999/xlink" height="743px" style="width:611px;height:743px;background:#3C3F41;" version="1.1" viewBox="0 0 611 743" width="611px"><defs/><g><ellipse cx="310" cy="20" fill="#808080" rx="10" ry="10" style="stroke: none; stroke-width: 1.0;"/><polygon fill="#3C3F41" points="291,50,339,50,329,66,339,82.0001,291,82.0001" style="stroke: #808080; stroke-width: 1.5;"/><text fill="#D3D3D3" font-family="Ubuntu Mono" font-size="12" lengthAdjust="spacingAndGlyphs" textLength="18" x="301" y="69.9601">bld</text><rect fill="#3C3F41" height="32.0001" style="stroke: #808080; stroke-width: 1.5;" width="32" x="112" y="187.5002"/><line style="stroke: #808080; stroke-width: 1.5;" x1="117" x2="117" y1="187.5002" y2="219.5003"/><line style="stroke: #808080; stroke-width: 1.5;" x1="139" x2="139" y1="187.5002" y2="219.5003"/><text fill="#D3D3D3" font-family="Ubuntu Mono" font-size="12" lengthAdjust="spacingAndGlyphs" textLength="12" x="122" y="207.4603">be</text><rect fill="#3C3F41" height="32.0001" style="stroke: #808080; stroke-width: 1.5;" width="38" x="10" y="274.5003"/><text fill="#D3D3D3" font-family="Ubuntu Mono" font-size="12" lengthAdjust="spacingAndGlyphs" textLength="18" x="20" y="294.4604">nm1</text><rect fill="#3C3F41" height="32.0001" style="stroke: #808080; stroke-width: 1.5;" width="38" x="76" y="274.5003"/><text fill="#D3D3D3" font-family="Ubuntu Mono" font-size="12" lengthAdjust="spacingAndGlyphs" textLength="18" x="86" y="294.4604">nm2</text><rect fill="#3C3F41" height="32.0001" style="stroke: #808080; stroke-width: 1.5;" width="38" x="142" y="274.5003"/><text fill="#D3D3D3" font-family="Ubuntu Mono" font-size="12" lengthAdjust="spacingAndGlyphs" textLength="18" x="152" y="294.4604">...</text><rect fill="#3C3F41" height="32.0001" style="stroke: #808080; stroke-width: 1.5;" width="38" x="208" y="274.5003"/><text fill="#D3D3D3" font-family="Ubuntu Mono" font-size="12" lengthAdjust="spacingAndGlyphs" textLength="18" x="218" y="294.4604">nmN</text><rect fill="#3C3F41" height="32.0001" style="stroke: #808080; stroke-width: 1.5;" width="62" x="31" y="380.0004"/><line style="stroke: #808080; stroke-width: 1.5;" x1="36" x2="36" y1="380.0004" y2="412.0005"/><line style="stroke: #808080; stroke-width: 1.5;" x1="88" x2="88" y1="380.0004" y2="412.0005"/><text fill="#D3D3D3" font-family="Ubuntu Mono" font-size="12" lengthAdjust="spacingAndGlyphs" textLength="42" x="41" y="399.9605">lnt-src</text><rect fill="#3C3F41" height="32.0001" style="stroke: #808080; stroke-width: 1.5;" width="32" x="46" y="447.0005"/><line style="stroke: #808080; stroke-width: 1.5;" x1="51" x2="51" y1="447.0005" y2="479.0006"/><line style="stroke: #808080; stroke-width: 1.5;" x1="73" x2="73" y1="447.0005" y2="479.0006"/><text fill="#D3D3D3" font-family="Ubuntu Mono" font-size="12" lengthAdjust="spacingAndGlyphs" textLength="12" x="56" y="466.9606">es</text><rect fill="#3C3F41" height="32.0001" style="stroke: #808080; stroke-width: 1.5;" width="38" x="121" y="413.5005"/><line style="stroke: #808080; stroke-width: 1.5;" x1="126" x2="126" y1="413.5005" y2="445.5005"/><line style="stroke: #808080; stroke-width: 1.5;" x1="154" x2="154" y1="413.5005" y2="445.5005"/><text fill="#D3D3D3" font-family="Ubuntu Mono" font-size="12" lengthAdjust="spacingAndGlyphs" textLength="18" x="131" y="433.4605">tpl</text><rect fill="#3C3F41" height="32.0001" style="stroke: #808080; stroke-width: 1.5;" width="38" x="187" y="413.5005"/><line style="stroke: #808080; stroke-width: 1.5;" x1="192" x2="192" y1="413.5005" y2="445.5005"/><line style="stroke: #808080; stroke-width: 1.5;" x1="220" x2="220" y1="413.5005" y2="445.5005"/><text fill="#D3D3D3" font-family="Ubuntu Mono" font-size="12" lengthAdjust="spacingAndGlyphs" textLength="18" x="197" y="433.4605">ast</text><rect fill="#3C3F41" height="32.0001" style="stroke: #808080; stroke-width: 1.5;" width="62" x="97" y="532.5006"/><line style="stroke: #808080; stroke-width: 1.5;" x1="102" x2="102" y1="532.5006" y2="564.5007"/><line style="stroke: #808080; stroke-width: 1.5;" x1="154" x2="154" y1="532.5006" y2="564.5007"/><text fill="#D3D3D3" font-family="Ubuntu Mono" font-size="12" lengthAdjust="spacingAndGlyphs" textLength="42" x="107" y="552.4607">lnt-pos</text><rect fill="#3C3F41" height="32.0001" style="stroke: #808080; stroke-width: 1.5;" width="32" x="440" y="122.0001"/><line style="stroke: #808080; stroke-width: 1.5;" x1="445" x2="445" y1="122.0001" y2="154.0002"/><line style="stroke: #808080; stroke-width: 1.5;" x1="467" x2="467" y1="122.0001" y2="154.0002"/><text fill="#D3D3D3" font-family="Ubuntu Mono" font-size="12" lengthAdjust="spacingAndGlyphs" textLength="12" x="450" y="141.9602">fe</text><rect fill="#3C3F41" height="32.0001" style="stroke: #808080; stroke-width: 1.5;" width="62" x="302" y="194.0002"/><line style="stroke: #808080; stroke-width: 1.5;" x1="307" x2="307" y1="194.0002" y2="226.0003"/><line style="stroke: #808080; stroke-width: 1.5;" x1="359" x2="359" y1="194.0002" y2="226.0003"/><text fill="#D3D3D3" font-family="Ubuntu Mono" font-size="12" lengthAdjust="spacingAndGlyphs" textLength="42" x="312" y="213.9602">lnt-src</text><rect fill="#3C3F41" height="32.0001" style="stroke: #808080; stroke-width: 1.5;" width="32" x="317" y="261.0003"/><line style="stroke: #808080; stroke-width: 1.5;" x1="322" x2="322" y1="261.0003" y2="293.0003"/><line style="stroke: #808080; stroke-width: 1.5;" x1="344" x2="344" y1="261.0003" y2="293.0003"/><text fill="#D3D3D3" font-family="Ubuntu Mono" font-size="12" lengthAdjust="spacingAndGlyphs" textLength="12" x="327" y="280.9603">js</text><rect fill="#3C3F41" height="32.0001" style="stroke: #808080; stroke-width: 1.5;" width="62" x="392" y="194.0002"/><line style="stroke: #808080; stroke-width: 1.5;" x1="397" x2="397" y1="194.0002" y2="226.0003"/><line style="stroke: #808080; stroke-width: 1.5;" x1="449" x2="449" y1="194.0002" y2="226.0003"/><text fill="#D3D3D3" font-family="Ubuntu Mono" font-size="12" lengthAdjust="spacingAndGlyphs" textLength="42" x="402" y="213.9602">lnt-src</text><rect fill="#3C3F41" height="32.0001" style="stroke: #808080; stroke-width: 1.5;" width="38" x="404" y="261.0003"/><line style="stroke: #808080; stroke-width: 1.5;" x1="409" x2="409" y1="261.0003" y2="293.0003"/><line style="stroke: #808080; stroke-width: 1.5;" x1="437" x2="437" y1="261.0003" y2="293.0003"/><text fill="#D3D3D3" font-family="Ubuntu Mono" font-size="12" lengthAdjust="spacingAndGlyphs" textLength="18" x="414" y="280.9603">css</text><rect fill="#3C3F41" height="32.0001" style="stroke: #808080; stroke-width: 1.5;" width="62" x="482" y="194.0002"/><line style="stroke: #808080; stroke-width: 1.5;" x1="487" x2="487" y1="194.0002" y2="226.0003"/><line style="stroke: #808080; stroke-width: 1.5;" x1="539" x2="539" y1="194.0002" y2="226.0003"/><text fill="#D3D3D3" font-family="Ubuntu Mono" font-size="12" lengthAdjust="spacingAndGlyphs" textLength="42" x="492" y="213.9602">lnt-src</text><rect fill="#3C3F41" height="32.0001" style="stroke: #808080; stroke-width: 1.5;" width="32" x="497" y="261.0003"/><line style="stroke: #808080; stroke-width: 1.5;" x1="502" x2="502" y1="261.0003" y2="293.0003"/><line style="stroke: #808080; stroke-width: 1.5;" x1="524" x2="524" y1="261.0003" y2="293.0003"/><text fill="#D3D3D3" font-family="Ubuntu Mono" font-size="12" lengthAdjust="spacingAndGlyphs" textLength="12" x="507" y="280.9603">ng</text><rect fill="#3C3F41" height="32.0001" style="stroke: #808080; stroke-width: 1.5;" width="38" x="572" y="227.5002"/><line style="stroke: #808080; stroke-width: 1.5;" x1="577" x2="577" y1="227.5002" y2="259.5003"/><line style="stroke: #808080; stroke-width: 1.5;" x1="605" x2="605" y1="227.5002" y2="259.5003"/><text fill="#D3D3D3" font-family="Ubuntu Mono" font-size="12" lengthAdjust="spacingAndGlyphs" textLength="18" x="582" y="247.4603">ast</text><rect fill="#3C3F41" height="32.0001" style="stroke: #808080; stroke-width: 1.5;" width="62" x="425" y="346.5004"/><line style="stroke: #808080; stroke-width: 1.5;" x1="430" x2="430" y1="346.5004" y2="378.5005"/><line style="stroke: #808080; stroke-width: 1.5;" x1="482" x2="482" y1="346.5004" y2="378.5005"/><text fill="#D3D3D3" font-family="Ubuntu Mono" font-size="12" lengthAdjust="spacingAndGlyphs" textLength="42" x="435" y="366.4604">lnt-src</text><rect fill="#3C3F41" height="32.0001" style="stroke: #808080; stroke-width: 1.5;" width="68" x="422" y="413.5005"/><line style="stroke: #808080; stroke-width: 1.5;" x1="427" x2="427" y1="413.5005" y2="445.5005"/><line style="stroke: #808080; stroke-width: 1.5;" x1="485" x2="485" y1="413.5005" y2="445.5005"/><text fill="#D3D3D3" font-family="Ubuntu Mono" font-size="12" lengthAdjust="spacingAndGlyphs" textLength="48" x="432" y="433.4605">bump ast</text><rect fill="#3C3F41" height="32.0001" style="stroke: #808080; stroke-width: 1.5;" width="44" x="434" y="480.5005"/><line style="stroke: #808080; stroke-width: 1.5;" x1="439" x2="439" y1="480.5005" y2="512.5006"/><line style="stroke: #808080; stroke-width: 1.5;" x1="473" x2="473" y1="480.5005" y2="512.5006"/><text fill="#D3D3D3" font-family="Ubuntu Mono" font-size="12" lengthAdjust="spacingAndGlyphs" textLength="24" x="444" y="500.4606">html</text><rect fill="#3C3F41" height="32.0001" style="stroke: #808080; stroke-width: 1.5;" width="38" x="437" y="546.0007"/><line style="stroke: #808080; stroke-width: 1.5;" x1="442" x2="442" y1="546.0007" y2="578.0008"/><line style="stroke: #808080; stroke-width: 1.5;" x1="470" x2="470" y1="546.0007" y2="578.0008"/><text fill="#D3D3D3" font-family="Ubuntu Mono" font-size="12" lengthAdjust="spacingAndGlyphs" textLength="18" x="447" y="565.9607">cps</text><rect fill="#3C3F41" height="32.0001" style="stroke: #808080; stroke-width: 1.5;" width="62" x="425" y="598.0008"/><line style="stroke: #808080; stroke-width: 1.5;" x1="430" x2="430" y1="598.0008" y2="630.0008"/><line style="stroke: #808080; stroke-width: 1.5;" x1="482" x2="482" y1="598.0008" y2="630.0008"/><text fill="#D3D3D3" font-family="Ubuntu Mono" font-size="12" lengthAdjust="spacingAndGlyphs" textLength="42" x="435" y="617.9608">lnt-pos</text><polygon fill="#3C3F41" points="276,670.0008,344,670.0008,354,686.0009,344,702.0009,276,702.0009" style="stroke: #808080; stroke-width: 1.5;"/><text fill="#D3D3D3" font-family="Ubuntu Mono" font-size="12" lengthAdjust="spacingAndGlyphs" textLength="48" x="286" y="689.9609">.tmp/bta</text><ellipse cx="310" cy="732.0009" fill="none" rx="10" ry="10" style="stroke: #808080; stroke-width: 1.0;"/><ellipse cx="310.5" cy="732.5009" fill="#808080" rx="6" ry="6" style="stroke: none; stroke-width: 1.0;"/><line style="stroke: #808080; stroke-width: 1.5;" x1="310" x2="310" y1="30" y2="50"/><polygon fill="#808080" points="306,40,310,50,314,40,310,44" style="stroke: #808080; stroke-width: 1.0;"/><line style="stroke: #808080; stroke-width: 1.5;" x1="29" x2="29" y1="254.5003" y2="274.5003"/><polygon fill="#808080" points="25,264.5003,29,274.5003,33,264.5003,29,268.5003" style="stroke: #808080; stroke-width: 1.0;"/><line style="stroke: #808080; stroke-width: 1.5;" x1="29" x2="29" y1="306.5004" y2="326.5004"/><polygon fill="#808080" points="25,316.5004,29,326.5004,33,316.5004,29,320.5004" style="stroke: #808080; stroke-width: 1.0;"/><line style="stroke: #808080; stroke-width: 1.5;" x1="95" x2="95" y1="254.5003" y2="274.5003"/><polygon fill="#808080" points="91,264.5003,95,274.5003,99,264.5003,95,268.5003" style="stroke: #808080; stroke-width: 1.0;"/><line style="stroke: #808080; stroke-width: 1.5;" x1="95" x2="95" y1="306.5004" y2="326.5004"/><polygon fill="#808080" points="91,316.5004,95,326.5004,99,316.5004,95,320.5004" style="stroke: #808080; stroke-width: 1.0;"/><line style="stroke: #808080; stroke-width: 1.5;" x1="161" x2="161" y1="254.5003" y2="274.5003"/><polygon fill="#808080" points="157,264.5003,161,274.5003,165,264.5003,161,268.5003" style="stroke: #808080; stroke-width: 1.0;"/><line style="stroke: #808080; stroke-width: 1.5;" x1="161" x2="161" y1="306.5004" y2="326.5004"/><polygon fill="#808080" points="157,316.5004,161,326.5004,165,316.5004,161,320.5004" style="stroke: #808080; stroke-width: 1.0;"/><line style="stroke: #808080; stroke-width: 1.5;" x1="227" x2="227" y1="254.5003" y2="274.5003"/><polygon fill="#808080" points="223,264.5003,227,274.5003,231,264.5003,227,268.5003" style="stroke: #808080; stroke-width: 1.0;"/><line style="stroke: #808080; stroke-width: 1.5;" x1="227" x2="227" y1="306.5004" y2="326.5004"/><polygon fill="#808080" points="223,316.5004,227,326.5004,231,316.5004,227,320.5004" style="stroke: #808080; stroke-width: 1.0;"/><line style="stroke: #808080; stroke-width: 1.5;" x1="29" x2="227" y1="254.5003" y2="254.5003"/><line style="stroke: #808080; stroke-width: 1.5;" x1="29" x2="227" y1="326.5004" y2="326.5004"/><line style="stroke: #808080; stroke-width: 1.5;" x1="128" x2="128" y1="219.5003" y2="254.5003"/><polygon fill="#808080" points="124,244.5003,128,254.5003,132,244.5003,128,248.5003" style="stroke: #808080; stroke-width: 1.0;"/><line style="stroke: #808080; stroke-width: 1.5;" x1="62" x2="62" y1="412.0005" y2="447.0005"/><polygon fill="#808080" points="58,437.0005,62,447.0005,66,437.0005,62,441.0005" style="stroke: #808080; stroke-width: 1.0;"/><line style="stroke: #808080; stroke-width: 1.5;" x1="62" x2="62" y1="360.0004" y2="380.0004"/><polygon fill="#808080" points="58,370.0004,62,380.0004,66,370.0004,62,374.0004" style="stroke: #808080; stroke-width: 1.0;"/><line style="stroke: #808080; stroke-width: 1.5;" x1="62" x2="62" y1="479.0006" y2="499.0006"/><polygon fill="#808080" points="58,489.0006,62,499.0006,66,489.0006,62,493.0006" style="stroke: #808080; stroke-width: 1.0;"/><line style="stroke: #808080; stroke-width: 1.5;" x1="140" x2="140" y1="360.0004" y2="413.5005"/><polygon fill="#808080" points="136,403.5005,140,413.5005,144,403.5005,140,407.5005" style="stroke: #808080; stroke-width: 1.0;"/><line style="stroke: #808080; stroke-width: 1.5;" x1="140" x2="140" y1="445.5005" y2="499.0006"/><polygon fill="#808080" points="136,489.0006,140,499.0006,144,489.0006,140,493.0006" style="stroke: #808080; stroke-width: 1.0;"/><line style="stroke: #808080; stroke-width: 1.5;" x1="206" x2="206" y1="360.0004" y2="413.5005"/><polygon fill="#808080" points="202,403.5005,206,413.5005,210,403.5005,206,407.5005" style="stroke: #808080; stroke-width: 1.0;"/><line style="stroke: #808080; stroke-width: 1.5;" x1="206" x2="206" y1="445.5005" y2="499.0006"/><polygon fill="#808080" points="202,489.0006,206,499.0006,210,489.0006,206,493.0006" style="stroke: #808080; stroke-width: 1.0;"/><line style="stroke: #808080; stroke-width: 1.5;" x1="62" x2="206" y1="360.0004" y2="360.0004"/><line style="stroke: #808080; stroke-width: 1.5;" x1="62" x2="206" y1="499.0006" y2="499.0006"/><line style="stroke: #808080; stroke-width: 1.5;" x1="128" x2="128" y1="326.5004" y2="360.0004"/><polygon fill="#808080" points="124,350.0004,128,360.0004,132,350.0004,128,354.0004" style="stroke: #808080; stroke-width: 1.0;"/><line style="stroke: #808080; stroke-width: 1.5;" x1="128" x2="128" y1="499.0006" y2="532.5006"/><polygon fill="#808080" points="124,522.5006,128,532.5006,132,522.5006,128,526.5006" style="stroke: #808080; stroke-width: 1.0;"/><line style="stroke: #808080; stroke-width: 1.5;" x1="333" x2="333" y1="226.0003" y2="261.0003"/><polygon fill="#808080" points="329,251.0003,333,261.0003,337,251.0003,333,255.0003" style="stroke: #808080; stroke-width: 1.0;"/><line style="stroke: #808080; stroke-width: 1.5;" x1="423" x2="423" y1="226.0003" y2="261.0003"/><polygon fill="#808080" points="419,251.0003,423,261.0003,427,251.0003,423,255.0003" style="stroke: #808080; stroke-width: 1.0;"/><line style="stroke: #808080; stroke-width: 1.5;" x1="513" x2="513" y1="226.0003" y2="261.0003"/><polygon fill="#808080" points="509,251.0003,513,261.0003,517,251.0003,513,255.0003" style="stroke: #808080; stroke-width: 1.0;"/><line style="stroke: #808080; stroke-width: 1.5;" x1="333" x2="333" y1="174.0002" y2="194.0002"/><polygon fill="#808080" points="329,184.0002,333,194.0002,337,184.0002,333,188.0002" style="stroke: #808080; stroke-width: 1.0;"/><line style="stroke: #808080; stroke-width: 1.5;" x1="333" x2="333" y1="293.0003" y2="313.0003"/><polygon fill="#808080" points="329,303.0003,333,313.0003,337,303.0003,333,307.0003" style="stroke: #808080; stroke-width: 1.0;"/><line style="stroke: #808080; stroke-width: 1.5;" x1="423" x2="423" y1="174.0002" y2="194.0002"/><polygon fill="#808080" points="419,184.0002,423,194.0002,427,184.0002,423,188.0002" style="stroke: #808080; stroke-width: 1.0;"/><line style="stroke: #808080; stroke-width: 1.5;" x1="423" x2="423" y1="293.0003" y2="313.0003"/><polygon fill="#808080" points="419,303.0003,423,313.0003,427,303.0003,423,307.0003" style="stroke: #808080; stroke-width: 1.0;"/><line style="stroke: #808080; stroke-width: 1.5;" x1="513" x2="513" y1="174.0002" y2="194.0002"/><polygon fill="#808080" points="509,184.0002,513,194.0002,517,184.0002,513,188.0002" style="stroke: #808080; stroke-width: 1.0;"/><line style="stroke: #808080; stroke-width: 1.5;" x1="513" x2="513" y1="293.0003" y2="313.0003"/><polygon fill="#808080" points="509,303.0003,513,313.0003,517,303.0003,513,307.0003" style="stroke: #808080; stroke-width: 1.0;"/><line style="stroke: #808080; stroke-width: 1.5;" x1="591" x2="591" y1="174.0002" y2="227.5002"/><polygon fill="#808080" points="587,217.5002,591,227.5002,595,217.5002,591,221.5002" style="stroke: #808080; stroke-width: 1.0;"/><line style="stroke: #808080; stroke-width: 1.5;" x1="591" x2="591" y1="259.5003" y2="313.0003"/><polygon fill="#808080" points="587,303.0003,591,313.0003,595,303.0003,591,307.0003" style="stroke: #808080; stroke-width: 1.0;"/><line style="stroke: #808080; stroke-width: 1.5;" x1="333" x2="591" y1="174.0002" y2="174.0002"/><line style="stroke: #808080; stroke-width: 1.5;" x1="333" x2="591" y1="313.0003" y2="313.0003"/><line style="stroke: #808080; stroke-width: 1.5;" x1="456" x2="456" y1="154.0002" y2="174.0002"/><polygon fill="#808080" points="452,164.0002,456,174.0002,460,164.0002,456,168.0002" style="stroke: #808080; stroke-width: 1.0;"/><line style="stroke: #808080; stroke-width: 1.5;" x1="456" x2="456" y1="313.0003" y2="346.5004"/><polygon fill="#808080" points="452,336.5004,456,346.5004,460,336.5004,456,340.5004" style="stroke: #808080; stroke-width: 1.0;"/><line style="stroke: #808080; stroke-width: 1.5;" x1="456" x2="456" y1="378.5005" y2="413.5005"/><polygon fill="#808080" points="452,403.5005,456,413.5005,460,403.5005,456,407.5005" style="stroke: #808080; stroke-width: 1.0;"/><line style="stroke: #808080; stroke-width: 1.5;" x1="456" x2="456" y1="445.5005" y2="480.5005"/><polygon fill="#808080" points="452,470.5005,456,480.5005,460,470.5005,456,474.5005" style="stroke: #808080; stroke-width: 1.0;"/><line style="stroke: #808080; stroke-width: 1.5;" x1="456" x2="456" y1="512.5006" y2="546.0007"/><polygon fill="#808080" points="452,536.0007,456,546.0007,460,536.0007,456,540.0007" style="stroke: #808080; stroke-width: 1.0;"/><line style="stroke: #808080; stroke-width: 1.5;" x1="456" x2="456" y1="578.0008" y2="598.0008"/><polygon fill="#808080" points="452,588.0008,456,598.0008,460,588.0008,456,592.0008" style="stroke: #808080; stroke-width: 1.0;"/><line style="stroke: #808080; stroke-width: 1.5;" x1="128" x2="128" y1="102.0001" y2="187.5002"/><polygon fill="#808080" points="124,177.5002,128,187.5002,132,177.5002,128,181.5002" style="stroke: #808080; stroke-width: 1.0;"/><line style="stroke: #808080; stroke-width: 1.5;" x1="128" x2="128" y1="564.5007" y2="650.0008"/><polygon fill="#808080" points="124,640.0008,128,650.0008,132,640.0008,128,644.0008" style="stroke: #808080; stroke-width: 1.0;"/><line style="stroke: #808080; stroke-width: 1.5;" x1="456" x2="456" y1="102.0001" y2="122.0001"/><polygon fill="#808080" points="452,112.0001,456,122.0001,460,112.0001,456,116.0001" style="stroke: #808080; stroke-width: 1.0;"/><line style="stroke: #808080; stroke-width: 1.5;" x1="456" x2="456" y1="630.0008" y2="650.0008"/><polygon fill="#808080" points="452,640.0008,456,650.0008,460,640.0008,456,644.0008" style="stroke: #808080; stroke-width: 1.0;"/><line style="stroke: #808080; stroke-width: 1.5;" x1="128" x2="456" y1="102.0001" y2="102.0001"/><line style="stroke: #808080; stroke-width: 1.5;" x1="128" x2="456" y1="650.0008" y2="650.0008"/><line style="stroke: #808080; stroke-width: 1.5;" x1="310" x2="310" y1="82.0001" y2="102.0001"/><polygon fill="#808080" points="306,92.0001,310,102.0001,314,92.0001,310,96.0001" style="stroke: #808080; stroke-width: 1.0;"/><line style="stroke: #808080; stroke-width: 1.5;" x1="310" x2="310" y1="650.0008" y2="670.0008"/><polygon fill="#808080" points="306,660.0008,310,670.0008,314,660.0008,310,664.0008" style="stroke: #808080; stroke-width: 1.0;"/><line style="stroke: #808080; stroke-width: 1.5;" x1="310" x2="310" y1="702.0009" y2="722.0009"/><polygon fill="#808080" points="306,712.0009,310,722.0009,314,712.0009,310,716.0009" style="stroke: #808080; stroke-width: 1.0;"/></g></svg>