<?xml version="1.0" encoding="UTF-8" standalone="yes"?><svg xmlns="http://www.w3.org/2000/svg" xmlns:xlink="http://www.w3.org/1999/xlink" height="1051px" style="width:611px;height:1051px;background:#3C3F41;" version="1.1" viewBox="0 0 611 1051" width="611px"><defs/><g><text fill="#A9A9A9" font-family="Ubuntu Mono" font-size="7" lengthAdjust="spacingAndGlyphs" textLength="40" x="570" y="15.81">2015-09-10</text><a target="_top" xlink:href="https://esf.itms.pro" xlink:title="https://esf.itms.pro"><text fill="#0000FF" font-family="Ubuntu Mono" font-size="7" lengthAdjust="spacingAndGlyphs" text-decoration="underline" textLength="48" x="562" y="25.81">esf.itms.pro</text><line style="stroke: #0000FF; stroke-width: 1.0;" x1="562" x2="610" y1="27.81" y2="27.81"/></a><text fill="#D3D3D3" font-family="Helvetica" font-size="30" lengthAdjust="spacingAndGlyphs" textLength="113" x="253.5" y="57.8467">BTA UC</text><text fill="#D3D3D3" font-family="Helvetica" font-size="30" lengthAdjust="spacingAndGlyphs" textLength="0" x="315" y="92.7686"/><ellipse cx="310" cy="109.8438" fill="#808080" rx="10" ry="10" style="stroke: none; stroke-width: 1.0;"/><polygon fill="#3C3F41" points="291,139.8438,339,139.8438,329,155.8438,339,171.8438,291,171.8438" style="stroke: #808080; stroke-width: 1.5;"/><text fill="#D3D3D3" font-family="Ubuntu Mono" font-size="12" lengthAdjust="spacingAndGlyphs" textLength="18" x="301" y="159.8038">bld</text><rect fill="#3C3F41" height="32.0001" style="stroke: #808080; stroke-width: 1.5;" width="32" x="112" y="277.344"/><line style="stroke: #808080; stroke-width: 1.5;" x1="117" x2="117" y1="277.344" y2="309.344"/><line style="stroke: #808080; stroke-width: 1.5;" x1="139" x2="139" y1="277.344" y2="309.344"/><text fill="#D3D3D3" font-family="Ubuntu Mono" font-size="12" lengthAdjust="spacingAndGlyphs" textLength="12" x="122" y="297.304">be</text><rect fill="#3C3F41" height="32.0001" style="stroke: #808080; stroke-width: 1.5;" width="38" x="10" y="364.344"/><text fill="#D3D3D3" font-family="Ubuntu Mono" font-size="12" lengthAdjust="spacingAndGlyphs" textLength="18" x="20" y="384.3041">nm1</text><rect fill="#3C3F41" height="32.0001" style="stroke: #808080; stroke-width: 1.5;" width="38" x="76" y="364.344"/><text fill="#D3D3D3" font-family="Ubuntu Mono" font-size="12" lengthAdjust="spacingAndGlyphs" textLength="18" x="86" y="384.3041">nm2</text><rect fill="#3C3F41" height="32.0001" style="stroke: #808080; stroke-width: 1.5;" width="38" x="142" y="364.344"/><text fill="#D3D3D3" font-family="Ubuntu Mono" font-size="12" lengthAdjust="spacingAndGlyphs" textLength="18" x="152" y="384.3041">...</text><rect fill="#3C3F41" height="32.0001" style="stroke: #808080; stroke-width: 1.5;" width="38" x="208" y="364.344"/><text fill="#D3D3D3" font-family="Ubuntu Mono" font-size="12" lengthAdjust="spacingAndGlyphs" textLength="18" x="218" y="384.3041">nmN</text><rect fill="#3C3F41" height="32.0001" style="stroke: #808080; stroke-width: 1.5;" width="62" x="31" y="469.8442"/><line style="stroke: #808080; stroke-width: 1.5;" x1="36" x2="36" y1="469.8442" y2="501.8443"/><line style="stroke: #808080; stroke-width: 1.5;" x1="88" x2="88" y1="469.8442" y2="501.8443"/><text fill="#D3D3D3" font-family="Ubuntu Mono" font-size="12" lengthAdjust="spacingAndGlyphs" textLength="42" x="41" y="489.8042">lnt-src</text><rect fill="#3C3F41" height="32.0001" style="stroke: #808080; stroke-width: 1.5;" width="32" x="46" y="536.8443"/><line style="stroke: #808080; stroke-width: 1.5;" x1="51" x2="51" y1="536.8443" y2="568.8443"/><line style="stroke: #808080; stroke-width: 1.5;" x1="73" x2="73" y1="536.8443" y2="568.8443"/><text fill="#D3D3D3" font-family="Ubuntu Mono" font-size="12" lengthAdjust="spacingAndGlyphs" textLength="12" x="56" y="556.8043">es</text><rect fill="#3C3F41" height="32.0001" style="stroke: #808080; stroke-width: 1.5;" width="38" x="121" y="503.3442"/><line style="stroke: #808080; stroke-width: 1.5;" x1="126" x2="126" y1="503.3442" y2="535.3443"/><line style="stroke: #808080; stroke-width: 1.5;" x1="154" x2="154" y1="503.3442" y2="535.3443"/><text fill="#D3D3D3" font-family="Ubuntu Mono" font-size="12" lengthAdjust="spacingAndGlyphs" textLength="18" x="131" y="523.3043">tpl</text><rect fill="#3C3F41" height="32.0001" style="stroke: #808080; stroke-width: 1.5;" width="38" x="187" y="503.3442"/><line style="stroke: #808080; stroke-width: 1.5;" x1="192" x2="192" y1="503.3442" y2="535.3443"/><line style="stroke: #808080; stroke-width: 1.5;" x1="220" x2="220" y1="503.3442" y2="535.3443"/><text fill="#D3D3D3" font-family="Ubuntu Mono" font-size="12" lengthAdjust="spacingAndGlyphs" textLength="18" x="197" y="523.3043">ast</text><rect fill="#3C3F41" height="32.0001" style="stroke: #808080; stroke-width: 1.5;" width="62" x="97" y="622.3444"/><line style="stroke: #808080; stroke-width: 1.5;" x1="102" x2="102" y1="622.3444" y2="654.3445"/><line style="stroke: #808080; stroke-width: 1.5;" x1="154" x2="154" y1="622.3444" y2="654.3445"/><text fill="#D3D3D3" font-family="Ubuntu Mono" font-size="12" lengthAdjust="spacingAndGlyphs" textLength="42" x="107" y="642.3044">lnt-pos</text><rect fill="#3C3F41" height="32.0001" style="stroke: #808080; stroke-width: 1.5;" width="32" x="440" y="211.8438"/><line style="stroke: #808080; stroke-width: 1.5;" x1="445" x2="445" y1="211.8438" y2="243.8439"/><line style="stroke: #808080; stroke-width: 1.5;" x1="467" x2="467" y1="211.8438" y2="243.8439"/><text fill="#D3D3D3" font-family="Ubuntu Mono" font-size="12" lengthAdjust="spacingAndGlyphs" textLength="12" x="450" y="231.8039">fe</text><rect fill="#3C3F41" height="32.0001" style="stroke: #808080; stroke-width: 1.5;" width="62" x="302" y="283.8439"/><line style="stroke: #808080; stroke-width: 1.5;" x1="307" x2="307" y1="283.8439" y2="315.844"/><line style="stroke: #808080; stroke-width: 1.5;" x1="359" x2="359" y1="283.8439" y2="315.844"/><text fill="#D3D3D3" font-family="Ubuntu Mono" font-size="12" lengthAdjust="spacingAndGlyphs" textLength="42" x="312" y="303.804">lnt-src</text><rect fill="#3C3F41" height="32.0001" style="stroke: #808080; stroke-width: 1.5;" width="32" x="317" y="350.844"/><line style="stroke: #808080; stroke-width: 1.5;" x1="322" x2="322" y1="350.844" y2="382.8441"/><line style="stroke: #808080; stroke-width: 1.5;" x1="344" x2="344" y1="350.844" y2="382.8441"/><text fill="#D3D3D3" font-family="Ubuntu Mono" font-size="12" lengthAdjust="spacingAndGlyphs" textLength="12" x="327" y="370.8041">js</text><rect fill="#3C3F41" height="32.0001" style="stroke: #808080; stroke-width: 1.5;" width="62" x="392" y="283.8439"/><line style="stroke: #808080; stroke-width: 1.5;" x1="397" x2="397" y1="283.8439" y2="315.844"/><line style="stroke: #808080; stroke-width: 1.5;" x1="449" x2="449" y1="283.8439" y2="315.844"/><text fill="#D3D3D3" font-family="Ubuntu Mono" font-size="12" lengthAdjust="spacingAndGlyphs" textLength="42" x="402" y="303.804">lnt-src</text><rect fill="#3C3F41" height="32.0001" style="stroke: #808080; stroke-width: 1.5;" width="38" x="404" y="350.844"/><line style="stroke: #808080; stroke-width: 1.5;" x1="409" x2="409" y1="350.844" y2="382.8441"/><line style="stroke: #808080; stroke-width: 1.5;" x1="437" x2="437" y1="350.844" y2="382.8441"/><text fill="#D3D3D3" font-family="Ubuntu Mono" font-size="12" lengthAdjust="spacingAndGlyphs" textLength="18" x="414" y="370.8041">css</text><rect fill="#3C3F41" height="32.0001" style="stroke: #808080; stroke-width: 1.5;" width="62" x="482" y="283.8439"/><line style="stroke: #808080; stroke-width: 1.5;" x1="487" x2="487" y1="283.8439" y2="315.844"/><line style="stroke: #808080; stroke-width: 1.5;" x1="539" x2="539" y1="283.8439" y2="315.844"/><text fill="#D3D3D3" font-family="Ubuntu Mono" font-size="12" lengthAdjust="spacingAndGlyphs" textLength="42" x="492" y="303.804">lnt-src</text><rect fill="#3C3F41" height="32.0001" style="stroke: #808080; stroke-width: 1.5;" width="32" x="497" y="350.844"/><line style="stroke: #808080; stroke-width: 1.5;" x1="502" x2="502" y1="350.844" y2="382.8441"/><line style="stroke: #808080; stroke-width: 1.5;" x1="524" x2="524" y1="350.844" y2="382.8441"/><text fill="#D3D3D3" font-family="Ubuntu Mono" font-size="12" lengthAdjust="spacingAndGlyphs" textLength="12" x="507" y="370.8041">ng</text><rect fill="#3C3F41" height="32.0001" style="stroke: #808080; stroke-width: 1.5;" width="38" x="572" y="317.344"/><line style="stroke: #808080; stroke-width: 1.5;" x1="577" x2="577" y1="317.344" y2="349.344"/><line style="stroke: #808080; stroke-width: 1.5;" x1="605" x2="605" y1="317.344" y2="349.344"/><text fill="#D3D3D3" font-family="Ubuntu Mono" font-size="12" lengthAdjust="spacingAndGlyphs" textLength="18" x="582" y="337.304">ast</text><rect fill="#3C3F41" height="32.0001" style="stroke: #808080; stroke-width: 1.5;" width="62" x="425" y="436.3441"/><line style="stroke: #808080; stroke-width: 1.5;" x1="430" x2="430" y1="436.3441" y2="468.3442"/><line style="stroke: #808080; stroke-width: 1.5;" x1="482" x2="482" y1="436.3441" y2="468.3442"/><text fill="#D3D3D3" font-family="Ubuntu Mono" font-size="12" lengthAdjust="spacingAndGlyphs" textLength="42" x="435" y="456.3042">lnt-src</text><rect fill="#3C3F41" height="32.0001" style="stroke: #808080; stroke-width: 1.5;" width="68" x="422" y="503.3442"/><line style="stroke: #808080; stroke-width: 1.5;" x1="427" x2="427" y1="503.3442" y2="535.3443"/><line style="stroke: #808080; stroke-width: 1.5;" x1="485" x2="485" y1="503.3442" y2="535.3443"/><text fill="#D3D3D3" font-family="Ubuntu Mono" font-size="12" lengthAdjust="spacingAndGlyphs" textLength="48" x="432" y="523.3043">bump ast</text><rect fill="#3C3F41" height="32.0001" style="stroke: #808080; stroke-width: 1.5;" width="44" x="434" y="570.3443"/><line style="stroke: #808080; stroke-width: 1.5;" x1="439" x2="439" y1="570.3443" y2="602.3444"/><line style="stroke: #808080; stroke-width: 1.5;" x1="473" x2="473" y1="570.3443" y2="602.3444"/><text fill="#D3D3D3" font-family="Ubuntu Mono" font-size="12" lengthAdjust="spacingAndGlyphs" textLength="24" x="444" y="590.3044">html</text><rect fill="#3C3F41" height="32.0001" style="stroke: #808080; stroke-width: 1.5;" width="38" x="437" y="635.8444"/><line style="stroke: #808080; stroke-width: 1.5;" x1="442" x2="442" y1="635.8444" y2="667.8445"/><line style="stroke: #808080; stroke-width: 1.5;" x1="470" x2="470" y1="635.8444" y2="667.8445"/><text fill="#D3D3D3" font-family="Ubuntu Mono" font-size="12" lengthAdjust="spacingAndGlyphs" textLength="18" x="447" y="655.8045">cps</text><rect fill="#3C3F41" height="32.0001" style="stroke: #808080; stroke-width: 1.5;" width="62" x="425" y="687.8445"/><line style="stroke: #808080; stroke-width: 1.5;" x1="430" x2="430" y1="687.8445" y2="719.8446"/><line style="stroke: #808080; stroke-width: 1.5;" x1="482" x2="482" y1="687.8445" y2="719.8446"/><text fill="#D3D3D3" font-family="Ubuntu Mono" font-size="12" lengthAdjust="spacingAndGlyphs" textLength="42" x="435" y="707.8046">lnt-pos</text><polygon fill="#3C3F41" points="276,759.8446,344,759.8446,354,775.8446,344,791.8447,276,791.8447" style="stroke: #808080; stroke-width: 1.5;"/><text fill="#D3D3D3" font-family="Ubuntu Mono" font-size="12" lengthAdjust="spacingAndGlyphs" textLength="48" x="286" y="779.8047">.tmp/bta</text><rect fill="#3C3F41" height="32.0001" style="stroke: #808080; stroke-width: 1.5;" width="38" x="291" y="811.8447"/><line style="stroke: #808080; stroke-width: 1.5;" x1="296" x2="296" y1="811.8447" y2="843.8448"/><line style="stroke: #808080; stroke-width: 1.5;" x1="324" x2="324" y1="811.8447" y2="843.8448"/><text fill="#D3D3D3" font-family="Ubuntu Mono" font-size="12" lengthAdjust="spacingAndGlyphs" textLength="18" x="301" y="831.8047">tst</text><polygon fill="#3C3F41" points="282.5,863.8448,337.5,863.8448,349.5,875.8448,337.5,887.8448,282.5,887.8448,270.5,875.8448,282.5,863.8448" style="stroke: #808080; stroke-width: 1.5;"/><text fill="#D3D3D3" font-family="Ubuntu Mono" font-size="10" lengthAdjust="spacingAndGlyphs" textLength="55" x="282.5" y="879.1447">test result</text><text fill="#D3D3D3" font-family="Ubuntu Mono" font-size="10" lengthAdjust="spacingAndGlyphs" textLength="35" x="235.5" y="874.1447">success</text><text fill="#D3D3D3" font-family="Ubuntu Mono" font-size="10" lengthAdjust="spacingAndGlyphs" textLength="20" x="349.5" y="874.1447">fail</text><rect fill="#3C3F41" height="32.0001" style="stroke: #808080; stroke-width: 1.5;" width="38" x="236.5" y="907.8448"/><line style="stroke: #808080; stroke-width: 1.5;" x1="241.5" x2="241.5" y1="907.8448" y2="939.8448"/><line style="stroke: #808080; stroke-width: 1.5;" x1="269.5" x2="269.5" y1="907.8448" y2="939.8448"/><text fill="#D3D3D3" font-family="Ubuntu Mono" font-size="12" lengthAdjust="spacingAndGlyphs" textLength="18" x="246.5" y="927.8048">dpy</text><polygon fill="#3C3F41" points="236.5,959.8448,274.5,959.8448,284.5,975.8449,274.5,991.8449,236.5,991.8449" style="stroke: #808080; stroke-width: 1.5;"/><text fill="#D3D3D3" font-family="Ubuntu Mono" font-size="12" lengthAdjust="spacingAndGlyphs" textLength="18" x="246.5" y="979.8049">bta</text><ellipse cx="364.5" cy="917.8448" fill="none" rx="10" ry="10" style="stroke: #808080; stroke-width: 1.0;"/><ellipse cx="365" cy="918.3448" fill="#808080" rx="6" ry="6" style="stroke: none; stroke-width: 1.0;"/><ellipse cx="310" cy="1021.8449" fill="none" rx="10" ry="10" style="stroke: #808080; stroke-width: 1.0;"/><ellipse cx="310.5" cy="1022.3449" fill="#808080" rx="6" ry="6" style="stroke: none; stroke-width: 1.0;"/><line style="stroke: #808080; stroke-width: 1.5;" x1="310" x2="310" y1="119.8438" y2="139.8438"/><polygon fill="#808080" points="306,129.8438,310,139.8438,314,129.8438,310,133.8438" style="stroke: #808080; stroke-width: 1.0;"/><line style="stroke: #808080; stroke-width: 1.5;" x1="29" x2="29" y1="344.344" y2="364.344"/><polygon fill="#808080" points="25,354.344,29,364.344,33,354.344,29,358.344" style="stroke: #808080; stroke-width: 1.0;"/><line style="stroke: #808080; stroke-width: 1.5;" x1="29" x2="29" y1="396.3441" y2="416.3441"/><polygon fill="#808080" points="25,406.3441,29,416.3441,33,406.3441,29,410.3441" style="stroke: #808080; stroke-width: 1.0;"/><line style="stroke: #808080; stroke-width: 1.5;" x1="95" x2="95" y1="344.344" y2="364.344"/><polygon fill="#808080" points="91,354.344,95,364.344,99,354.344,95,358.344" style="stroke: #808080; stroke-width: 1.0;"/><line style="stroke: #808080; stroke-width: 1.5;" x1="95" x2="95" y1="396.3441" y2="416.3441"/><polygon fill="#808080" points="91,406.3441,95,416.3441,99,406.3441,95,410.3441" style="stroke: #808080; stroke-width: 1.0;"/><line style="stroke: #808080; stroke-width: 1.5;" x1="161" x2="161" y1="344.344" y2="364.344"/><polygon fill="#808080" points="157,354.344,161,364.344,165,354.344,161,358.344" style="stroke: #808080; stroke-width: 1.0;"/><line style="stroke: #808080; stroke-width: 1.5;" x1="161" x2="161" y1="396.3441" y2="416.3441"/><polygon fill="#808080" points="157,406.3441,161,416.3441,165,406.3441,161,410.3441" style="stroke: #808080; stroke-width: 1.0;"/><line style="stroke: #808080; stroke-width: 1.5;" x1="227" x2="227" y1="344.344" y2="364.344"/><polygon fill="#808080" points="223,354.344,227,364.344,231,354.344,227,358.344" style="stroke: #808080; stroke-width: 1.0;"/><line style="stroke: #808080; stroke-width: 1.5;" x1="227" x2="227" y1="396.3441" y2="416.3441"/><polygon fill="#808080" points="223,406.3441,227,416.3441,231,406.3441,227,410.3441" style="stroke: #808080; stroke-width: 1.0;"/><line style="stroke: #808080; stroke-width: 1.5;" x1="29" x2="227" y1="344.344" y2="344.344"/><line style="stroke: #808080; stroke-width: 1.5;" x1="29" x2="227" y1="416.3441" y2="416.3441"/><line style="stroke: #808080; stroke-width: 1.5;" x1="128" x2="128" y1="309.344" y2="344.344"/><polygon fill="#808080" points="124,334.344,128,344.344,132,334.344,128,338.344" style="stroke: #808080; stroke-width: 1.0;"/><line style="stroke: #808080; stroke-width: 1.5;" x1="62" x2="62" y1="501.8443" y2="536.8443"/><polygon fill="#808080" points="58,526.8443,62,536.8443,66,526.8443,62,530.8443" style="stroke: #808080; stroke-width: 1.0;"/><line style="stroke: #808080; stroke-width: 1.5;" x1="62" x2="62" y1="449.8442" y2="469.8442"/><polygon fill="#808080" points="58,459.8442,62,469.8442,66,459.8442,62,463.8442" style="stroke: #808080; stroke-width: 1.0;"/><line style="stroke: #808080; stroke-width: 1.5;" x1="62" x2="62" y1="568.8443" y2="588.8443"/><polygon fill="#808080" points="58,578.8443,62,588.8443,66,578.8443,62,582.8443" style="stroke: #808080; stroke-width: 1.0;"/><line style="stroke: #808080; stroke-width: 1.5;" x1="140" x2="140" y1="449.8442" y2="503.3442"/><polygon fill="#808080" points="136,493.3442,140,503.3442,144,493.3442,140,497.3442" style="stroke: #808080; stroke-width: 1.0;"/><line style="stroke: #808080; stroke-width: 1.5;" x1="140" x2="140" y1="535.3443" y2="588.8443"/><polygon fill="#808080" points="136,578.8443,140,588.8443,144,578.8443,140,582.8443" style="stroke: #808080; stroke-width: 1.0;"/><line style="stroke: #808080; stroke-width: 1.5;" x1="206" x2="206" y1="449.8442" y2="503.3442"/><polygon fill="#808080" points="202,493.3442,206,503.3442,210,493.3442,206,497.3442" style="stroke: #808080; stroke-width: 1.0;"/><line style="stroke: #808080; stroke-width: 1.5;" x1="206" x2="206" y1="535.3443" y2="588.8443"/><polygon fill="#808080" points="202,578.8443,206,588.8443,210,578.8443,206,582.8443" style="stroke: #808080; stroke-width: 1.0;"/><line style="stroke: #808080; stroke-width: 1.5;" x1="62" x2="206" y1="449.8442" y2="449.8442"/><line style="stroke: #808080; stroke-width: 1.5;" x1="62" x2="206" y1="588.8443" y2="588.8443"/><line style="stroke: #808080; stroke-width: 1.5;" x1="128" x2="128" y1="416.3441" y2="449.8442"/><polygon fill="#808080" points="124,439.8442,128,449.8442,132,439.8442,128,443.8442" style="stroke: #808080; stroke-width: 1.0;"/><line style="stroke: #808080; stroke-width: 1.5;" x1="128" x2="128" y1="588.8443" y2="622.3444"/><polygon fill="#808080" points="124,612.3444,128,622.3444,132,612.3444,128,616.3444" style="stroke: #808080; stroke-width: 1.0;"/><line style="stroke: #808080; stroke-width: 1.5;" x1="333" x2="333" y1="315.844" y2="350.844"/><polygon fill="#808080" points="329,340.844,333,350.844,337,340.844,333,344.844" style="stroke: #808080; stroke-width: 1.0;"/><line style="stroke: #808080; stroke-width: 1.5;" x1="423" x2="423" y1="315.844" y2="350.844"/><polygon fill="#808080" points="419,340.844,423,350.844,427,340.844,423,344.844" style="stroke: #808080; stroke-width: 1.0;"/><line style="stroke: #808080; stroke-width: 1.5;" x1="513" x2="513" y1="315.844" y2="350.844"/><polygon fill="#808080" points="509,340.844,513,350.844,517,340.844,513,344.844" style="stroke: #808080; stroke-width: 1.0;"/><line style="stroke: #808080; stroke-width: 1.5;" x1="333" x2="333" y1="263.8439" y2="283.8439"/><polygon fill="#808080" points="329,273.8439,333,283.8439,337,273.8439,333,277.8439" style="stroke: #808080; stroke-width: 1.0;"/><line style="stroke: #808080; stroke-width: 1.5;" x1="333" x2="333" y1="382.8441" y2="402.8441"/><polygon fill="#808080" points="329,392.8441,333,402.8441,337,392.8441,333,396.8441" style="stroke: #808080; stroke-width: 1.0;"/><line style="stroke: #808080; stroke-width: 1.5;" x1="423" x2="423" y1="263.8439" y2="283.8439"/><polygon fill="#808080" points="419,273.8439,423,283.8439,427,273.8439,423,277.8439" style="stroke: #808080; stroke-width: 1.0;"/><line style="stroke: #808080; stroke-width: 1.5;" x1="423" x2="423" y1="382.8441" y2="402.8441"/><polygon fill="#808080" points="419,392.8441,423,402.8441,427,392.8441,423,396.8441" style="stroke: #808080; stroke-width: 1.0;"/><line style="stroke: #808080; stroke-width: 1.5;" x1="513" x2="513" y1="263.8439" y2="283.8439"/><polygon fill="#808080" points="509,273.8439,513,283.8439,517,273.8439,513,277.8439" style="stroke: #808080; stroke-width: 1.0;"/><line style="stroke: #808080; stroke-width: 1.5;" x1="513" x2="513" y1="382.8441" y2="402.8441"/><polygon fill="#808080" points="509,392.8441,513,402.8441,517,392.8441,513,396.8441" style="stroke: #808080; stroke-width: 1.0;"/><line style="stroke: #808080; stroke-width: 1.5;" x1="591" x2="591" y1="263.8439" y2="317.344"/><polygon fill="#808080" points="587,307.344,591,317.344,595,307.344,591,311.344" style="stroke: #808080; stroke-width: 1.0;"/><line style="stroke: #808080; stroke-width: 1.5;" x1="591" x2="591" y1="349.344" y2="402.8441"/><polygon fill="#808080" points="587,392.8441,591,402.8441,595,392.8441,591,396.8441" style="stroke: #808080; stroke-width: 1.0;"/><line style="stroke: #808080; stroke-width: 1.5;" x1="333" x2="591" y1="263.8439" y2="263.8439"/><line style="stroke: #808080; stroke-width: 1.5;" x1="333" x2="591" y1="402.8441" y2="402.8441"/><line style="stroke: #808080; stroke-width: 1.5;" x1="456" x2="456" y1="243.8439" y2="263.8439"/><polygon fill="#808080" points="452,253.8439,456,263.8439,460,253.8439,456,257.8439" style="stroke: #808080; stroke-width: 1.0;"/><line style="stroke: #808080; stroke-width: 1.5;" x1="456" x2="456" y1="402.8441" y2="436.3441"/><polygon fill="#808080" points="452,426.3441,456,436.3441,460,426.3441,456,430.3441" style="stroke: #808080; stroke-width: 1.0;"/><line style="stroke: #808080; stroke-width: 1.5;" x1="456" x2="456" y1="468.3442" y2="503.3442"/><polygon fill="#808080" points="452,493.3442,456,503.3442,460,493.3442,456,497.3442" style="stroke: #808080; stroke-width: 1.0;"/><line style="stroke: #808080; stroke-width: 1.5;" x1="456" x2="456" y1="535.3443" y2="570.3443"/><polygon fill="#808080" points="452,560.3443,456,570.3443,460,560.3443,456,564.3443" style="stroke: #808080; stroke-width: 1.0;"/><line style="stroke: #808080; stroke-width: 1.5;" x1="456" x2="456" y1="602.3444" y2="635.8444"/><polygon fill="#808080" points="452,625.8444,456,635.8444,460,625.8444,456,629.8444" style="stroke: #808080; stroke-width: 1.0;"/><line style="stroke: #808080; stroke-width: 1.5;" x1="456" x2="456" y1="667.8445" y2="687.8445"/><polygon fill="#808080" points="452,677.8445,456,687.8445,460,677.8445,456,681.8445" style="stroke: #808080; stroke-width: 1.0;"/><line style="stroke: #808080; stroke-width: 1.5;" x1="128" x2="128" y1="191.8438" y2="277.344"/><polygon fill="#808080" points="124,267.344,128,277.344,132,267.344,128,271.344" style="stroke: #808080; stroke-width: 1.0;"/><line style="stroke: #808080; stroke-width: 1.5;" x1="128" x2="128" y1="654.3445" y2="739.8446"/><polygon fill="#808080" points="124,729.8446,128,739.8446,132,729.8446,128,733.8446" style="stroke: #808080; stroke-width: 1.0;"/><line style="stroke: #808080; stroke-width: 1.5;" x1="456" x2="456" y1="191.8438" y2="211.8438"/><polygon fill="#808080" points="452,201.8438,456,211.8438,460,201.8438,456,205.8438" style="stroke: #808080; stroke-width: 1.0;"/><line style="stroke: #808080; stroke-width: 1.5;" x1="456" x2="456" y1="719.8446" y2="739.8446"/><polygon fill="#808080" points="452,729.8446,456,739.8446,460,729.8446,456,733.8446" style="stroke: #808080; stroke-width: 1.0;"/><line style="stroke: #808080; stroke-width: 1.5;" x1="128" x2="456" y1="191.8438" y2="191.8438"/><line style="stroke: #808080; stroke-width: 1.5;" x1="128" x2="456" y1="739.8446" y2="739.8446"/><line style="stroke: #808080; stroke-width: 1.5;" x1="310" x2="310" y1="171.8438" y2="191.8438"/><polygon fill="#808080" points="306,181.8438,310,191.8438,314,181.8438,310,185.8438" style="stroke: #808080; stroke-width: 1.0;"/><line style="stroke: #808080; stroke-width: 1.5;" x1="310" x2="310" y1="739.8446" y2="759.8446"/><polygon fill="#808080" points="306,749.8446,310,759.8446,314,749.8446,310,753.8446" style="stroke: #808080; stroke-width: 1.0;"/><line style="stroke: #808080; stroke-width: 1.5;" x1="310" x2="310" y1="791.8447" y2="811.8447"/><polygon fill="#808080" points="306,801.8447,310,811.8447,314,801.8447,310,805.8447" style="stroke: #808080; stroke-width: 1.0;"/><line style="stroke: #808080; stroke-width: 1.5;" x1="255.5" x2="255.5" y1="939.8448" y2="959.8448"/><polygon fill="#808080" points="251.5,949.8448,255.5,959.8448,259.5,949.8448,255.5,953.8448" style="stroke: #808080; stroke-width: 1.0;"/><line style="stroke: #808080; stroke-width: 1.5;" x1="270.5" x2="255.5" y1="875.8448" y2="875.8448"/><line style="stroke: #808080; stroke-width: 1.5;" x1="255.5" x2="255.5" y1="875.8448" y2="907.8448"/><polygon fill="#808080" points="251.5,897.8448,255.5,907.8448,259.5,897.8448,255.5,901.8448" style="stroke: #808080; stroke-width: 1.0;"/><line style="stroke: #808080; stroke-width: 1.5;" x1="349.5" x2="364.5" y1="875.8448" y2="875.8448"/><line style="stroke: #808080; stroke-width: 1.5;" x1="364.5" x2="364.5" y1="875.8448" y2="907.8448"/><polygon fill="#808080" points="360.5,897.8448,364.5,907.8448,368.5,897.8448,364.5,901.8448" style="stroke: #808080; stroke-width: 1.0;"/><line style="stroke: #808080; stroke-width: 1.5;" x1="255.5" x2="255.5" y1="991.8449" y2="996.8449"/><line style="stroke: #808080; stroke-width: 1.5;" x1="255.5" x2="310" y1="996.8449" y2="996.8449"/><line style="stroke: #808080; stroke-width: 1.5;" x1="310" x2="310" y1="996.8449" y2="1011.8449"/><polygon fill="#808080" points="306,1001.8449,310,1011.8449,314,1001.8449,310,1005.8449" style="stroke: #808080; stroke-width: 1.0;"/><line style="stroke: #808080; stroke-width: 1.5;" x1="310" x2="310" y1="843.8448" y2="863.8448"/><polygon fill="#808080" points="306,853.8448,310,863.8448,314,853.8448,310,857.8448" style="stroke: #808080; stroke-width: 1.0;"/><text fill="#A9A9A9" font-family="Ubuntu Mono" font-size="10" lengthAdjust="spacingAndGlyphs" textLength="0" x="312.5" y="1040.1449"/><text fill="#A9A9A9" font-family="Ubuntu Mono" font-size="10" lengthAdjust="spacingAndGlyphs" textLength="80" x="270" y="1050.1449">© ITMS 2015-2016</text></g></svg>