<?xml version="1.0" encoding="UTF-8" standalone="yes"?><svg xmlns="http://www.w3.org/2000/svg" xmlns:xlink="http://www.w3.org/1999/xlink" height="499px" style="width:444px;height:499px;background:#3C3F41;" version="1.1" viewBox="0 0 444 499" width="444px"><defs/><g><rect fill="#3C3F41" height="33" style="stroke: #D3D3D3; stroke-width: 1.5;" width="75" x="267" y="8"/><polygon fill="#3C3F41" points="325,13,325,27,337,27,337,19,331,13,325,13" style="stroke: #D3D3D3; stroke-width: 1.5;"/><line style="stroke: #D3D3D3; stroke-width: 1.5;" x1="331" x2="331" y1="13" y2="19"/><line style="stroke: #D3D3D3; stroke-width: 1.5;" x1="337" x2="331" y1="19" y2="19"/><text fill="#D3D3D3" font-family="Ubuntu Mono" font-size="10" lengthAdjust="spacingAndGlyphs" textLength="45" x="277" y="29.3">**/*.puml</text><rect fill="#3C3F41" height="40" style="stroke: #D3D3D3; stroke-width: 1.5;" width="125" x="172" y="101"/><rect fill="#3C3F41" height="10" style="stroke: #D3D3D3; stroke-width: 1.5;" width="15" x="277" y="106"/><rect fill="#3C3F41" height="2" style="stroke: #D3D3D3; stroke-width: 1.5;" width="4" x="275" y="108"/><rect fill="#3C3F41" height="2" style="stroke: #D3D3D3; stroke-width: 1.5;" width="4" x="275" y="112"/><text fill="#D3D3D3" font-family="Ubuntu Mono" font-size="10" lengthAdjust="spacingAndGlyphs" textLength="85" x="187" y="129.3">gulp-puml-to-json</text><rect fill="#3C3F41" height="33" style="stroke: #D3D3D3; stroke-width: 1.5;" width="80" x="192.5" y="201"/><polygon fill="#3C3F41" points="255.5,206,255.5,220,267.5,220,267.5,212,261.5,206,255.5,206" style="stroke: #D3D3D3; stroke-width: 1.5;"/><line style="stroke: #D3D3D3; stroke-width: 1.5;" x1="261.5" x2="261.5" y1="206" y2="212"/><line style="stroke: #D3D3D3; stroke-width: 1.5;" x1="267.5" x2="261.5" y1="212" y2="212"/><text fill="#D3D3D3" font-family="Ubuntu Mono" font-size="10" lengthAdjust="spacingAndGlyphs" textLength="50" x="202.5" y="222.3">jsn/*.json</text><rect fill="#3C3F41" height="40" style="stroke: #D3D3D3; stroke-width: 1.5;" width="85" x="333" y="101"/><rect fill="#3C3F41" height="10" style="stroke: #D3D3D3; stroke-width: 1.5;" width="15" x="398" y="106"/><rect fill="#3C3F41" height="2" style="stroke: #D3D3D3; stroke-width: 1.5;" width="4" x="396" y="108"/><rect fill="#3C3F41" height="2" style="stroke: #D3D3D3; stroke-width: 1.5;" width="4" x="396" y="112"/><text fill="#D3D3D3" font-family="Ubuntu Mono" font-size="10" lengthAdjust="spacingAndGlyphs" textLength="45" x="348" y="129.3">gulp-puml</text><rect fill="#3C3F41" height="33" style="stroke: #D3D3D3; stroke-width: 1.5;" width="90" x="334.5" y="201"/><polygon fill="#3C3F41" points="407.5,206,407.5,220,419.5,220,419.5,212,413.5,206,407.5,206" style="stroke: #D3D3D3; stroke-width: 1.5;"/><line style="stroke: #D3D3D3; stroke-width: 1.5;" x1="413.5" x2="413.5" y1="206" y2="212"/><line style="stroke: #D3D3D3; stroke-width: 1.5;" x1="419.5" x2="413.5" y1="212" y2="212"/><text fill="#D3D3D3" font-family="Ubuntu Mono" font-size="10" lengthAdjust="spacingAndGlyphs" textLength="60" x="344.5" y="222.3">svg/**/*.svg</text><rect fill="#3C3F41" height="40" style="stroke: #D3D3D3; stroke-width: 1.5;" width="125" x="318" y="294"/><rect fill="#3C3F41" height="10" style="stroke: #D3D3D3; stroke-width: 1.5;" width="15" x="423" y="299"/><rect fill="#3C3F41" height="2" style="stroke: #D3D3D3; stroke-width: 1.5;" width="4" x="421" y="301"/><rect fill="#3C3F41" height="2" style="stroke: #D3D3D3; stroke-width: 1.5;" width="4" x="421" y="305"/><text fill="#D3D3D3" font-family="Ubuntu Mono" font-size="10" lengthAdjust="spacingAndGlyphs" textLength="85" x="333" y="322.3">gulp-puml-postsvg</text><rect fill="#3C3F41" height="33" style="stroke: #D3D3D3; stroke-width: 1.5;" width="75" x="343" y="429.5"/><polygon fill="#3C3F41" points="401,434.5,401,448.5,413,448.5,413,440.5,407,434.5,401,434.5" style="stroke: #D3D3D3; stroke-width: 1.5;"/><line style="stroke: #D3D3D3; stroke-width: 1.5;" x1="407" x2="407" y1="434.5" y2="440.5"/><line style="stroke: #D3D3D3; stroke-width: 1.5;" x1="413" x2="407" y1="440.5" y2="440.5"/><text fill="#D3D3D3" font-family="Ubuntu Mono" font-size="10" lengthAdjust="spacingAndGlyphs" textLength="45" x="353" y="450.8">i/*.p.svg</text><rect fill="#3C3F41" height="40" style="stroke: #D3D3D3; stroke-width: 1.5;" width="115" x="168" y="294"/><rect fill="#3C3F41" height="10" style="stroke: #D3D3D3; stroke-width: 1.5;" width="15" x="263" y="299"/><rect fill="#3C3F41" height="2" style="stroke: #D3D3D3; stroke-width: 1.5;" width="4" x="261" y="301"/><rect fill="#3C3F41" height="2" style="stroke: #D3D3D3; stroke-width: 1.5;" width="4" x="261" y="305"/><text fill="#D3D3D3" font-family="Ubuntu Mono" font-size="10" lengthAdjust="spacingAndGlyphs" textLength="75" x="183" y="322.3">gulp-json-to-so</text><rect fill="#3C3F41" height="33" style="stroke: #D3D3D3; stroke-width: 1.5;" width="75" x="188" y="429.5"/><polygon fill="#3C3F41" points="246,434.5,246,448.5,258,448.5,258,440.5,252,434.5,246,434.5" style="stroke: #D3D3D3; stroke-width: 1.5;"/><line style="stroke: #D3D3D3; stroke-width: 1.5;" x1="252" x2="252" y1="434.5" y2="440.5"/><line style="stroke: #D3D3D3; stroke-width: 1.5;" x1="258" x2="252" y1="440.5" y2="440.5"/><text fill="#D3D3D3" font-family="Ubuntu Mono" font-size="10" lengthAdjust="spacingAndGlyphs" textLength="45" x="198" y="450.8">so/*.json</text><polygon fill="#3C3F41" points="6,394,6,498.0001,153,498.0001,153,404,143,394,6,394" style="stroke: #D3D3D3; stroke-width: 1.0;"/><polygon fill="#3C3F41" points="6,394,6,498.0001,153,498.0001,153,450,187.871,446,153,442,153,404,143,394,6,394" style="stroke: #D3D3D3; stroke-width: 1.0;"/><line style="stroke: #D3D3D3; stroke-width: 1.0;" x1="143" x2="143" y1="394" y2="404"/><line style="stroke: #D3D3D3; stroke-width: 1.0;" x1="153" x2="143" y1="404" y2="404"/><text fill="#D3D3D3" font-family="Ubuntu Mono" font-size="12" font-weight="bold" lengthAdjust="spacingAndGlyphs" textLength="126" x="12" y="408.9601">Semantic Object Types</text><line style="stroke: #D3D3D3; stroke-width: 1.0; stroke-dasharray: 1.0,2.0;" x1="7" x2="152" y1="411.0001" y2="411.0001"/><text fill="#D3D3D3" font-family="Ubuntu Mono" font-size="10" lengthAdjust="spacingAndGlyphs" textLength="10" x="12" y="423.3001">SO</text><text fill="#D3D3D3" font-family="Ubuntu Mono" font-size="10" lengthAdjust="spacingAndGlyphs" textLength="20" x="35" y="435.3001">task</text><text fill="#D3D3D3" font-family="Ubuntu Mono" font-size="10" lengthAdjust="spacingAndGlyphs" textLength="15" x="43" y="445.3001">bdr</text><text fill="#D3D3D3" font-family="Ubuntu Mono" font-size="10" lengthAdjust="spacingAndGlyphs" textLength="20" x="51" y="455.3001">gulp</text><text fill="#D3D3D3" font-family="Ubuntu Mono" font-size="10" lengthAdjust="spacingAndGlyphs" textLength="25" x="35" y="465.3001">class</text><text fill="#D3D3D3" font-family="Ubuntu Mono" font-size="10" lengthAdjust="spacingAndGlyphs" textLength="15" x="43" y="475.3001">mod</text><text fill="#D3D3D3" font-family="Ubuntu Mono" font-size="10" lengthAdjust="spacingAndGlyphs" textLength="20" x="43" y="485.3001">odbV</text><rect fill="#3C3F41" height="2" style="stroke: #D3D3D3; stroke-width: 1.0;" width="2" x="27" y="431.0001"/><line style="stroke: #D3D3D3; stroke-width: 1.0;" x1="20" x2="28" y1="432.0001" y2="432.0001"/><line style="stroke: #D3D3D3; stroke-width: 1.0;" x1="20" x2="20" y1="427.0001" y2="432.0001"/><rect fill="#3C3F41" height="2" style="stroke: #D3D3D3; stroke-width: 1.0;" width="2" x="35" y="441.0001"/><line style="stroke: #D3D3D3; stroke-width: 1.0;" x1="28" x2="36" y1="442.0001" y2="442.0001"/><line style="stroke: #D3D3D3; stroke-width: 1.0;" x1="28" x2="28" y1="432.0001" y2="442.0001"/><rect fill="#3C3F41" height="2" style="stroke: #D3D3D3; stroke-width: 1.0;" width="2" x="43" y="451.0001"/><line style="stroke: #D3D3D3; stroke-width: 1.0;" x1="36" x2="44" y1="452.0001" y2="452.0001"/><line style="stroke: #D3D3D3; stroke-width: 1.0;" x1="36" x2="36" y1="442.0001" y2="452.0001"/><rect fill="#3C3F41" height="2" style="stroke: #D3D3D3; stroke-width: 1.0;" width="2" x="27" y="461.0001"/><line style="stroke: #D3D3D3; stroke-width: 1.0;" x1="20" x2="28" y1="462.0001" y2="462.0001"/><line style="stroke: #D3D3D3; stroke-width: 1.0;" x1="20" x2="20" y1="432.0001" y2="462.0001"/><rect fill="#3C3F41" height="2" style="stroke: #D3D3D3; stroke-width: 1.0;" width="2" x="35" y="471.0001"/><line style="stroke: #D3D3D3; stroke-width: 1.0;" x1="28" x2="36" y1="472.0001" y2="472.0001"/><line style="stroke: #D3D3D3; stroke-width: 1.0;" x1="28" x2="28" y1="462.0001" y2="472.0001"/><rect fill="#3C3F41" height="2" style="stroke: #D3D3D3; stroke-width: 1.0;" width="2" x="35" y="481.0001"/><line style="stroke: #D3D3D3; stroke-width: 1.0;" x1="28" x2="36" y1="482.0001" y2="482.0001"/><line style="stroke: #D3D3D3; stroke-width: 1.0;" x1="28" x2="28" y1="472.0001" y2="482.0001"/><path d="M292.941,41.105 C281.772,56.183 264.709,79.218 251.898,96.512 " fill="none" style="stroke: #D3D3D3; stroke-width: 1.0;"/><polygon fill="#D3D3D3" points="248.739,100.777,257.3106,95.9265,251.7154,96.7594,250.8825,91.1642,248.739,100.777" style="stroke: #D3D3D3; stroke-width: 1.0;"/><path d="M234.095,141.123 C233.761,156.92 233.287,179.31 232.943,195.581 " fill="none" style="stroke: #D3D3D3; stroke-width: 1.0;"/><polygon fill="#D3D3D3" points="232.831,200.846,237.0204,191.9326,232.9367,195.8471,229.0222,191.7634,232.831,200.846" style="stroke: #D3D3D3; stroke-width: 1.0;"/><path d="M231.344,234.105 C230.246,248.927 228.579,271.44 227.305,288.628 " fill="none" style="stroke: #D3D3D3; stroke-width: 1.0;"/><polygon fill="#D3D3D3" points="226.924,293.777,231.5789,285.0976,227.2939,288.7907,223.6009,284.5057,226.924,293.777" style="stroke: #D3D3D3; stroke-width: 1.0;"/><path d="M225.5,334.182 C225.5,358.315 225.5,399.5937 225.5,424.3842 " fill="none" style="stroke: #D3D3D3; stroke-width: 1.0;"/><polygon fill="#D3D3D3" points="225.5,429.4118,229.5,420.4118,225.5,424.4118,221.5,420.4118,225.5,429.4118" style="stroke: #D3D3D3; stroke-width: 1.0;"/><path d="M316.224,41.105 C327.553,56.183 344.86,79.218 357.853,96.512 " fill="none" style="stroke: #D3D3D3; stroke-width: 1.0;"/><polygon fill="#D3D3D3" points="361.057,100.777,358.8471,91.1793,358.0529,96.7801,352.4521,95.9858,361.057,100.777" style="stroke: #D3D3D3; stroke-width: 1.0;"/><path d="M376.309,141.123 C376.978,156.92 377.926,179.31 378.615,195.581 " fill="none" style="stroke: #D3D3D3; stroke-width: 1.0;"/><polygon fill="#D3D3D3" points="378.837,200.846,382.4529,191.6849,378.6256,195.8505,374.46,192.0232,378.837,200.846" style="stroke: #D3D3D3; stroke-width: 1.0;"/><path d="M379.665,234.105 C379.822,248.927 380.06,271.44 380.242,288.628 " fill="none" style="stroke: #D3D3D3; stroke-width: 1.0;"/><polygon fill="#D3D3D3" points="380.297,293.777,384.2016,284.7352,380.2441,288.7773,376.2021,284.8198,380.297,293.777" style="stroke: #D3D3D3; stroke-width: 1.0;"/><path d="M380.5,334.182 C380.5,358.315 380.5,399.5937 380.5,424.3842 " fill="none" style="stroke: #D3D3D3; stroke-width: 1.0;"/><polygon fill="#D3D3D3" points="380.5,429.4118,384.5,420.4118,380.5,424.4118,376.5,420.4118,380.5,429.4118" style="stroke: #D3D3D3; stroke-width: 1.0;"/></g></svg>