<?xml version="1.0" encoding="UTF-8" standalone="yes"?><svg xmlns="http://www.w3.org/2000/svg" xmlns:xlink="http://www.w3.org/1999/xlink" height="1730px" style="width:1793px;height:1730px;" version="1.1" viewBox="0 0 1793 1730" width="1793px"><defs><filter height="300%" id="f1" width="300%" x="-1" y="-1"><feGaussianBlur result="blurOut" stdDeviation="2.0"/><feColorMatrix in="blurOut" result="blurOut2" type="matrix" values="0 0 0 0 0 0 0 0 0 0 0 0 0 0 0 0 0 0 .4 0"/><feOffset dx="4.0" dy="4.0" in="blurOut2" result="blurOut3"/><feBlend in="SourceGraphic" in2="blurOut3" mode="normal"/></filter></defs><g><rect fill="#FEFECE" filter="url(#f1)" height="33.9688" style="stroke: #808080; stroke-width: 1.5;" width="49" x="1315" y="8"/><rect fill="#FEFECE" height="5" style="stroke: #808080; stroke-width: 1.5;" width="10" x="1310" y="13"/><rect fill="#FEFECE" height="5" style="stroke: #808080; stroke-width: 1.5;" width="10" x="1310" y="31.9688"/><text fill="#000000" font-family="sans-serif" font-size="12" lengthAdjust="spacingAndGlyphs" textLength="29" x="1325" y="29.1387">path</text><rect fill="#FEFECE" filter="url(#f1)" height="33.9688" style="stroke: #808080; stroke-width: 1.5;" width="67" x="482" y="341"/><rect fill="#FEFECE" height="5" style="stroke: #808080; stroke-width: 1.5;" width="10" x="477" y="346"/><rect fill="#FEFECE" height="5" style="stroke: #808080; stroke-width: 1.5;" width="10" x="477" y="364.9688"/><text fill="#000000" font-family="sans-serif" font-size="12" lengthAdjust="spacingAndGlyphs" textLength="47" x="492" y="362.1387">fs-extra</text><rect fill="#FEFECE" filter="url(#f1)" height="33.9688" style="stroke: #808080; stroke-width: 1.5;" width="64" x="687.5" y="8"/><rect fill="#FEFECE" height="5" style="stroke: #808080; stroke-width: 1.5;" width="10" x="682.5" y="13"/><rect fill="#FEFECE" height="5" style="stroke: #808080; stroke-width: 1.5;" width="10" x="682.5" y="31.9688"/><text fill="#000000" font-family="sans-serif" font-size="12" lengthAdjust="spacingAndGlyphs" textLength="44" x="697.5" y="29.1387">esf-bdr</text><rect fill="#FEFECE" filter="url(#f1)" height="33.9688" style="stroke: #808080; stroke-width: 1.5;" width="65" x="347" y="341"/><rect fill="#FEFECE" height="5" style="stroke: #808080; stroke-width: 1.5;" width="10" x="342" y="346"/><rect fill="#FEFECE" height="5" style="stroke: #808080; stroke-width: 1.5;" width="10" x="342" y="364.9688"/><text fill="#000000" font-family="sans-serif" font-size="12" lengthAdjust="spacingAndGlyphs" textLength="45" x="357" y="362.1387">esf-bsc</text><rect fill="#FEFECE" filter="url(#f1)" height="33.9688" style="stroke: #808080; stroke-width: 1.5;" width="64" x="1399.5" y="8"/><rect fill="#FEFECE" height="5" style="stroke: #808080; stroke-width: 1.5;" width="10" x="1394.5" y="13"/><rect fill="#FEFECE" height="5" style="stroke: #808080; stroke-width: 1.5;" width="10" x="1394.5" y="31.9688"/><text fill="#000000" font-family="sans-serif" font-size="12" lengthAdjust="spacingAndGlyphs" textLength="44" x="1409.5" y="29.1387">esf-but</text><rect fill="#FEFECE" filter="url(#f1)" height="33.9688" style="stroke: #808080; stroke-width: 1.5;" width="88" x="825.5" y="341"/><rect fill="#FEFECE" height="5" style="stroke: #808080; stroke-width: 1.5;" width="10" x="820.5" y="346"/><rect fill="#FEFECE" height="5" style="stroke: #808080; stroke-width: 1.5;" width="10" x="820.5" y="364.9688"/><text fill="#000000" font-family="sans-serif" font-size="12" lengthAdjust="spacingAndGlyphs" textLength="68" x="835.5" y="362.1387">esf-dbi-bsc</text><rect fill="#FEFECE" filter="url(#f1)" height="33.9688" style="stroke: #808080; stroke-width: 1.5;" width="60" x="178.5" y="119"/><rect fill="#FEFECE" height="5" style="stroke: #808080; stroke-width: 1.5;" width="10" x="173.5" y="124"/><rect fill="#FEFECE" height="5" style="stroke: #808080; stroke-width: 1.5;" width="10" x="173.5" y="142.9688"/><text fill="#000000" font-family="sans-serif" font-size="12" lengthAdjust="spacingAndGlyphs" textLength="40" x="188.5" y="140.1387">esf-dft</text><rect fill="#FEFECE" filter="url(#f1)" height="33.9688" style="stroke: #808080; stroke-width: 1.5;" width="91" x="6" y="119"/><rect fill="#FEFECE" height="5" style="stroke: #808080; stroke-width: 1.5;" width="10" x="1" y="124"/><rect fill="#FEFECE" height="5" style="stroke: #808080; stroke-width: 1.5;" width="10" x="1" y="142.9688"/><text fill="#000000" font-family="sans-serif" font-size="12" lengthAdjust="spacingAndGlyphs" textLength="71" x="16" y="140.1387">esf-dft-man</text><rect fill="#FEFECE" filter="url(#f1)" height="33.9688" style="stroke: #808080; stroke-width: 1.5;" width="87" x="610" y="230"/><rect fill="#FEFECE" height="5" style="stroke: #808080; stroke-width: 1.5;" width="10" x="605" y="235"/><rect fill="#FEFECE" height="5" style="stroke: #808080; stroke-width: 1.5;" width="10" x="605" y="253.9688"/><text fill="#000000" font-family="sans-serif" font-size="12" lengthAdjust="spacingAndGlyphs" textLength="67" x="620" y="251.1387">esf-eml-rcv</text><rect fill="#FEFECE" filter="url(#f1)" height="33.9688" style="stroke: #808080; stroke-width: 1.5;" width="73" x="1499" y="8"/><rect fill="#FEFECE" height="5" style="stroke: #808080; stroke-width: 1.5;" width="10" x="1494" y="13"/><rect fill="#FEFECE" height="5" style="stroke: #808080; stroke-width: 1.5;" width="10" x="1494" y="31.9688"/><text fill="#000000" font-family="sans-serif" font-size="12" lengthAdjust="spacingAndGlyphs" textLength="53" x="1509" y="29.1387">esf-puml</text><rect fill="#FEFECE" filter="url(#f1)" height="33.9688" style="stroke: #808080; stroke-width: 1.5;" width="66" x="1306.5" y="119"/><rect fill="#FEFECE" height="5" style="stroke: #808080; stroke-width: 1.5;" width="10" x="1301.5" y="124"/><rect fill="#FEFECE" height="5" style="stroke: #808080; stroke-width: 1.5;" width="10" x="1301.5" y="142.9688"/><text fill="#000000" font-family="sans-serif" font-size="12" lengthAdjust="spacingAndGlyphs" textLength="46" x="1316.5" y="140.1387">esf-pgs</text><rect fill="#FEFECE" filter="url(#f1)" height="33.9688" style="stroke: #808080; stroke-width: 1.5;" width="61" x="1408" y="119"/><rect fill="#FEFECE" height="5" style="stroke: #808080; stroke-width: 1.5;" width="10" x="1403" y="124"/><rect fill="#FEFECE" height="5" style="stroke: #808080; stroke-width: 1.5;" width="10" x="1403" y="142.9688"/><text fill="#000000" font-family="sans-serif" font-size="12" lengthAdjust="spacingAndGlyphs" textLength="41" x="1418" y="140.1387">esf-srv</text><rect fill="#FEFECE" filter="url(#f1)" height="33.9688" style="stroke: #808080; stroke-width: 1.5;" width="59" x="410" y="452"/><rect fill="#FEFECE" height="5" style="stroke: #808080; stroke-width: 1.5;" width="10" x="405" y="457"/><rect fill="#FEFECE" height="5" style="stroke: #808080; stroke-width: 1.5;" width="10" x="405" y="475.9688"/><text fill="#000000" font-family="sans-serif" font-size="12" lengthAdjust="spacingAndGlyphs" textLength="39" x="420" y="473.1387">esf-utl</text><rect fill="#FEFECE" filter="url(#f1)" height="33.9688" style="stroke: #808080; stroke-width: 1.5;" width="96" x="1504.5" y="119"/><rect fill="#FEFECE" height="5" style="stroke: #808080; stroke-width: 1.5;" width="10" x="1499.5" y="124"/><rect fill="#FEFECE" height="5" style="stroke: #808080; stroke-width: 1.5;" width="10" x="1499.5" y="142.9688"/><text fill="#000000" font-family="sans-serif" font-size="12" lengthAdjust="spacingAndGlyphs" textLength="76" x="1514.5" y="140.1387">itms-img-psr</text><rect fill="#FEFECE" filter="url(#f1)" height="33.9688" style="stroke: #808080; stroke-width: 1.5;" width="68" x="1673.5" y="8"/><rect fill="#FEFECE" height="5" style="stroke: #808080; stroke-width: 1.5;" width="10" x="1668.5" y="13"/><rect fill="#FEFECE" height="5" style="stroke: #808080; stroke-width: 1.5;" width="10" x="1668.5" y="31.9688"/><text fill="#000000" font-family="sans-serif" font-size="12" lengthAdjust="spacingAndGlyphs" textLength="48" x="1683.5" y="29.1387">itms-lgc</text><rect fill="#FEFECE" filter="url(#f1)" height="33.9688" style="stroke: #808080; stroke-width: 1.5;" width="94" x="663.5" y="119"/><rect fill="#FEFECE" height="5" style="stroke: #808080; stroke-width: 1.5;" width="10" x="658.5" y="124"/><rect fill="#FEFECE" height="5" style="stroke: #808080; stroke-width: 1.5;" width="10" x="658.5" y="142.9688"/><text fill="#000000" font-family="sans-serif" font-size="12" lengthAdjust="spacingAndGlyphs" textLength="74" x="673.5" y="140.1387">itms-prc-psr</text><rect fill="#FEFECE" filter="url(#f1)" height="33.9688" style="stroke: #808080; stroke-width: 1.5;" width="69" x="740" y="230"/><rect fill="#FEFECE" height="5" style="stroke: #808080; stroke-width: 1.5;" width="10" x="735" y="235"/><rect fill="#FEFECE" height="5" style="stroke: #808080; stroke-width: 1.5;" width="10" x="735" y="253.9688"/><text fill="#000000" font-family="sans-serif" font-size="12" lengthAdjust="spacingAndGlyphs" textLength="49" x="750" y="251.1387">itms-dbi</text><rect fill="#FEFECE" filter="url(#f1)" height="33.9688" style="stroke: #808080; stroke-width: 1.5;" width="59" x="847" y="230"/><rect fill="#FEFECE" height="5" style="stroke: #808080; stroke-width: 1.5;" width="10" x="842" y="235"/><rect fill="#FEFECE" height="5" style="stroke: #808080; stroke-width: 1.5;" width="10" x="842" y="253.9688"/><text fill="#000000" font-family="sans-serif" font-size="12" lengthAdjust="spacingAndGlyphs" textLength="39" x="857" y="251.1387">itms-xl</text><rect fill="#FEFECE" filter="url(#f1)" height="33.9688" style="stroke: #808080; stroke-width: 1.5;" width="63" x="1308" y="230"/><rect fill="#FEFECE" height="5" style="stroke: #808080; stroke-width: 1.5;" width="10" x="1303" y="235"/><rect fill="#FEFECE" height="5" style="stroke: #808080; stroke-width: 1.5;" width="10" x="1303" y="253.9688"/><text fill="#000000" font-family="sans-serif" font-size="12" lengthAdjust="spacingAndGlyphs" textLength="43" x="1318" y="251.1387">rtracer</text><rect fill="#FEFECE" filter="url(#f1)" height="33.9688" style="stroke: #808080; stroke-width: 1.5;" width="41" x="1406" y="230"/><rect fill="#FEFECE" height="5" style="stroke: #808080; stroke-width: 1.5;" width="10" x="1401" y="235"/><rect fill="#FEFECE" height="5" style="stroke: #808080; stroke-width: 1.5;" width="10" x="1401" y="253.9688"/><text fill="#000000" font-family="sans-serif" font-size="12" lengthAdjust="spacingAndGlyphs" textLength="21" x="1416" y="251.1387">uto</text><rect fill="#FEFECE" filter="url(#f1)" height="33.9688" style="stroke: #808080; stroke-width: 1.5;" width="52" x="1635.5" y="119"/><rect fill="#FEFECE" height="5" style="stroke: #808080; stroke-width: 1.5;" width="10" x="1630.5" y="124"/><rect fill="#FEFECE" height="5" style="stroke: #808080; stroke-width: 1.5;" width="10" x="1630.5" y="142.9688"/><text fill="#000000" font-family="sans-serif" font-size="12" lengthAdjust="spacingAndGlyphs" textLength="32" x="1645.5" y="140.1387">excel</text><rect fill="#FEFECE" filter="url(#f1)" height="33.9688" style="stroke: #808080; stroke-width: 1.5;" width="61" x="1723" y="119"/><rect fill="#FEFECE" height="5" style="stroke: #808080; stroke-width: 1.5;" width="10" x="1718" y="124"/><rect fill="#FEFECE" height="5" style="stroke: #808080; stroke-width: 1.5;" width="10" x="1718" y="142.9688"/><text fill="#000000" font-family="sans-serif" font-size="12" lengthAdjust="spacingAndGlyphs" textLength="41" x="1733" y="140.1387">restler</text><rect fill="#FEFECE" filter="url(#f1)" height="33.9688" style="stroke: #808080; stroke-width: 1.5;" width="137" x="941" y="230"/><rect fill="#FEFECE" height="5" style="stroke: #808080; stroke-width: 1.5;" width="10" x="936" y="235"/><rect fill="#FEFECE" height="5" style="stroke: #808080; stroke-width: 1.5;" width="10" x="936" y="253.9688"/><text fill="#000000" font-family="sans-serif" font-size="12" lengthAdjust="spacingAndGlyphs" textLength="117" x="951" y="251.1387">es6-module-loader</text><rect fill="#FEFECE" filter="url(#f1)" height="33.9688" style="stroke: #808080; stroke-width: 1.5;" width="109" x="266" y="452"/><rect fill="#FEFECE" height="5" style="stroke: #808080; stroke-width: 1.5;" width="10" x="261" y="457"/><rect fill="#FEFECE" height="5" style="stroke: #808080; stroke-width: 1.5;" width="10" x="261" y="475.9688"/><text fill="#000000" font-family="sans-serif" font-size="12" lengthAdjust="spacingAndGlyphs" textLength="89" x="276" y="473.1387">parent-search</text><rect fill="#FEFECE" filter="url(#f1)" height="33.9688" style="stroke: #808080; stroke-width: 1.5;" width="67" x="836" y="452"/><rect fill="#FEFECE" height="5" style="stroke: #808080; stroke-width: 1.5;" width="10" x="831" y="457"/><rect fill="#FEFECE" height="5" style="stroke: #808080; stroke-width: 1.5;" width="10" x="831" y="475.9688"/><text fill="#000000" font-family="sans-serif" font-size="12" lengthAdjust="spacingAndGlyphs" textLength="47" x="846" y="473.1387">orientjs</text><rect fill="#FEFECE" filter="url(#f1)" height="33.9688" style="stroke: #808080; stroke-width: 1.5;" width="86" x="983.5" y="452"/><rect fill="#FEFECE" height="5" style="stroke: #808080; stroke-width: 1.5;" width="10" x="978.5" y="457"/><rect fill="#FEFECE" height="5" style="stroke: #808080; stroke-width: 1.5;" width="10" x="978.5" y="475.9688"/><text fill="#000000" font-family="sans-serif" font-size="12" lengthAdjust="spacingAndGlyphs" textLength="66" x="993.5" y="473.1387">line-by-line</text><rect fill="#FEFECE" filter="url(#f1)" height="33.9688" style="stroke: #808080; stroke-width: 1.5;" width="52" x="948.5" y="341"/><rect fill="#FEFECE" height="5" style="stroke: #808080; stroke-width: 1.5;" width="10" x="943.5" y="346"/><rect fill="#FEFECE" height="5" style="stroke: #808080; stroke-width: 1.5;" width="10" x="943.5" y="364.9688"/><text fill="#000000" font-family="sans-serif" font-size="12" lengthAdjust="spacingAndGlyphs" textLength="32" x="958.5" y="362.1387">iconv</text><rect fill="#FEFECE" filter="url(#f1)" height="33.9688" style="stroke: #808080; stroke-width: 1.5;" width="42" x="1152.5" y="341"/><rect fill="#FEFECE" height="5" style="stroke: #808080; stroke-width: 1.5;" width="10" x="1147.5" y="346"/><rect fill="#FEFECE" height="5" style="stroke: #808080; stroke-width: 1.5;" width="10" x="1147.5" y="364.9688"/><text fill="#000000" font-family="sans-serif" font-size="12" lengthAdjust="spacingAndGlyphs" textLength="22" x="1162.5" y="362.1387">xlsx</text><rect fill="#FEFECE" filter="url(#f1)" height="33.9688" style="stroke: #808080; stroke-width: 1.5;" width="50" x="615.5" y="341"/><rect fill="#FEFECE" height="5" style="stroke: #808080; stroke-width: 1.5;" width="10" x="610.5" y="346"/><rect fill="#FEFECE" height="5" style="stroke: #808080; stroke-width: 1.5;" width="10" x="610.5" y="364.9688"/><text fill="#000000" font-family="sans-serif" font-size="12" lengthAdjust="spacingAndGlyphs" textLength="30" x="625.5" y="362.1387">imap</text><rect fill="#FEFECE" filter="url(#f1)" height="33.9688" style="stroke: #808080; stroke-width: 1.5;" width="86" x="700.5" y="341"/><rect fill="#FEFECE" height="5" style="stroke: #808080; stroke-width: 1.5;" width="10" x="695.5" y="346"/><rect fill="#FEFECE" height="5" style="stroke: #808080; stroke-width: 1.5;" width="10" x="695.5" y="364.9688"/><text fill="#000000" font-family="sans-serif" font-size="12" lengthAdjust="spacingAndGlyphs" textLength="66" x="710.5" y="362.1387">mailparser</text><rect fill="#FEFECE" filter="url(#f1)" height="33.9688" style="stroke: #808080; stroke-width: 1.5;" width="68" x="1113.5" y="230"/><rect fill="#FEFECE" height="5" style="stroke: #808080; stroke-width: 1.5;" width="10" x="1108.5" y="235"/><rect fill="#FEFECE" height="5" style="stroke: #808080; stroke-width: 1.5;" width="10" x="1108.5" y="253.9688"/><text fill="#000000" font-family="sans-serif" font-size="12" lengthAdjust="spacingAndGlyphs" textLength="48" x="1123.5" y="251.1387">cli-color</text><polygon fill="#FBFB77" filter="url(#f1)" points="1148.5,547,1148.5,1721.0625,1358.5,1721.0625,1358.5,557,1348.5,547,1148.5,547" style="stroke: #A80036; stroke-width: 1.0;"/><line style="stroke: #A80036; stroke-width: 1.0;" x1="1348.5" x2="1348.5" y1="547" y2="557"/><line style="stroke: #A80036; stroke-width: 1.0;" x1="1358.5" x2="1348.5" y1="557" y2="557"/><text fill="#000000" font-family="sans-serif" font-size="13" lengthAdjust="spacingAndGlyphs" textLength="0" x="1158.5" y="564.0669"/><text fill="#000000" font-family="sans-serif" font-size="15" font-weight="bold" lengthAdjust="spacingAndGlyphs" textLength="143" x="1154.5" y="581.0562">devDependencies</text><text fill="#000000" font-family="sans-serif" font-size="13" lengthAdjust="spacingAndGlyphs" textLength="0" x="1158.5" y="596.6606"/><text fill="#000000" font-family="sans-serif" font-size="14" font-weight="bold" lengthAdjust="spacingAndGlyphs" textLength="34" x="1154.5" y="612.7217">flow</text><text fill="#000000" font-family="sans-serif" font-size="13" lengthAdjust="spacingAndGlyphs" textLength="27" x="1162.5" y="628.0903">gulp</text><text fill="#000000" font-family="sans-serif" font-size="13" lengthAdjust="spacingAndGlyphs" textLength="51" x="1162.5" y="643.2231">gulp-util</text><text fill="#000000" font-family="sans-serif" font-size="13" lengthAdjust="spacingAndGlyphs" textLength="87" x="1162.5" y="658.356">gulp-changed</text><text fill="#000000" font-family="sans-serif" font-size="13" lengthAdjust="spacingAndGlyphs" textLength="85" x="1162.5" y="673.4888">gulp-plumber</text><text fill="#000000" font-family="sans-serif" font-size="13" lengthAdjust="spacingAndGlyphs" textLength="53" x="1162.5" y="688.6216">gulp-tap</text><text fill="#000000" font-family="sans-serif" font-size="13" lengthAdjust="spacingAndGlyphs" textLength="0" x="1158.5" y="703.7544"/><text fill="#000000" font-family="sans-serif" font-size="14" font-weight="bold" lengthAdjust="spacingAndGlyphs" textLength="50" x="1154.5" y="719.8154">debug</text><text fill="#000000" font-family="sans-serif" font-size="13" lengthAdjust="spacingAndGlyphs" textLength="111" x="1162.5" y="735.1841">gulp-sourcemaps</text><text fill="#000000" font-family="sans-serif" font-size="13" lengthAdjust="spacingAndGlyphs" textLength="49" x="1162.5" y="750.3169">cli-color</text><text fill="#000000" font-family="sans-serif" font-size="13" lengthAdjust="spacingAndGlyphs" textLength="93" x="1162.5" y="765.4497">gulp-livereload</text><text fill="#000000" font-family="sans-serif" font-size="13" lengthAdjust="spacingAndGlyphs" textLength="0" x="1158.5" y="780.5825"/><text fill="#000000" font-family="sans-serif" font-size="14" font-weight="bold" lengthAdjust="spacingAndGlyphs" textLength="38" x="1154.5" y="796.6436">build</text><text fill="#000000" font-family="sans-serif" font-size="13" lengthAdjust="spacingAndGlyphs" textLength="0" x="1158.5" y="812.0122"/><text fill="#000000" font-family="sans-serif" font-size="13" font-style="italic" lengthAdjust="spacingAndGlyphs" textLength="47" x="1154.5" y="827.145">buildBe</text><text fill="#000000" font-family="sans-serif" font-size="13" lengthAdjust="spacingAndGlyphs" textLength="64" x="1162.5" y="842.2778">mustache</text><text fill="#000000" font-family="sans-serif" font-size="13" lengthAdjust="spacingAndGlyphs" textLength="67" x="1162.5" y="857.4106">gulp-babel</text><text fill="#000000" font-family="sans-serif" font-size="13" lengthAdjust="spacingAndGlyphs" textLength="79" x="1162.5" y="872.5435">gulp-replace</text><text fill="#000000" font-family="sans-serif" font-size="13" lengthAdjust="spacingAndGlyphs" textLength="0" x="1158.5" y="887.6763"/><text fill="#000000" font-family="sans-serif" font-size="13" font-style="italic" lengthAdjust="spacingAndGlyphs" textLength="45" x="1154.5" y="902.8091">buildFe</text><text fill="#000000" font-family="sans-serif" font-size="13" lengthAdjust="spacingAndGlyphs" textLength="181" x="1162.5" y="917.9419">gulp-angular-templatecache</text><text fill="#000000" font-family="sans-serif" font-size="13" lengthAdjust="spacingAndGlyphs" textLength="57" x="1162.5" y="933.0747">gulp-less</text><text fill="#000000" font-family="sans-serif" font-size="13" lengthAdjust="spacingAndGlyphs" textLength="0" x="1158.5" y="948.2075"/><text fill="#000000" font-family="sans-serif" font-size="14" font-weight="bold" lengthAdjust="spacingAndGlyphs" textLength="99" x="1154.5" y="964.2686">postprocess</text><text fill="#000000" font-family="sans-serif" font-size="13" lengthAdjust="spacingAndGlyphs" textLength="109" x="1162.5" y="979.6372">gulp-autoprefixer</text><text fill="#000000" font-family="sans-serif" font-size="13" lengthAdjust="spacingAndGlyphs" textLength="0" x="1158.5" y="994.77"/><text fill="#000000" font-family="sans-serif" font-size="14" font-weight="bold" lengthAdjust="spacingAndGlyphs" textLength="24" x="1154.5" y="1010.8311">lint</text><text fill="#000000" font-family="sans-serif" font-size="13" font-style="italic" lengthAdjust="spacingAndGlyphs" textLength="56" x="1154.5" y="1026.1997">lintSrcBe</text><text fill="#000000" font-family="sans-serif" font-size="13" lengthAdjust="spacingAndGlyphs" textLength="66" x="1162.5" y="1041.3325">gulp-eslint</text><text fill="#000000" font-family="sans-serif" font-size="13" font-style="italic" lengthAdjust="spacingAndGlyphs" textLength="54" x="1154.5" y="1056.4653">lintSrcFe</text><text fill="#000000" font-family="sans-serif" font-size="13" lengthAdjust="spacingAndGlyphs" textLength="66" x="1162.5" y="1071.5981">gulp-eslint</text><text fill="#000000" font-family="sans-serif" font-size="13" font-style="italic" lengthAdjust="spacingAndGlyphs" textLength="56" x="1154.5" y="1086.731">lintBldBe</text><text fill="#000000" font-family="sans-serif" font-size="13" lengthAdjust="spacingAndGlyphs" textLength="66" x="1162.5" y="1101.8638">gulp-eslint</text><text fill="#000000" font-family="sans-serif" font-size="13" font-style="italic" lengthAdjust="spacingAndGlyphs" textLength="54" x="1154.5" y="1116.9966">lintBldFe</text><text fill="#000000" font-family="sans-serif" font-size="13" lengthAdjust="spacingAndGlyphs" textLength="66" x="1162.5" y="1132.1294">gulp-eslint</text><text fill="#000000" font-family="sans-serif" font-size="13" lengthAdjust="spacingAndGlyphs" textLength="85" x="1162.5" y="1147.2622">gulp-htmlhint</text><text fill="#000000" font-family="sans-serif" font-size="13" lengthAdjust="spacingAndGlyphs" textLength="66" x="1162.5" y="1162.395">gulp-w3cjs</text><text fill="#000000" font-family="sans-serif" font-size="13" lengthAdjust="spacingAndGlyphs" textLength="72" x="1162.5" y="1177.5278">gulp-csslint</text><text fill="#000000" font-family="sans-serif" font-size="13" lengthAdjust="spacingAndGlyphs" textLength="0" x="1158.5" y="1192.6606"/><text fill="#000000" font-family="sans-serif" font-size="14" font-weight="bold" lengthAdjust="spacingAndGlyphs" textLength="78" x="1154.5" y="1208.7217">compress</text><text fill="#000000" font-family="sans-serif" font-size="13" lengthAdjust="spacingAndGlyphs" textLength="65" x="1162.5" y="1224.0903">gulp-uglify</text><text fill="#000000" font-family="sans-serif" font-size="13" lengthAdjust="spacingAndGlyphs" textLength="61" x="1162.5" y="1239.2231">gulp-csso</text><text fill="#000000" font-family="sans-serif" font-size="13" lengthAdjust="spacingAndGlyphs" textLength="85" x="1162.5" y="1254.356">gulp-htmlmin</text><text fill="#000000" font-family="sans-serif" font-size="13" lengthAdjust="spacingAndGlyphs" textLength="57" x="1162.5" y="1269.4888">gulp-sort</text><text fill="#000000" font-family="sans-serif" font-size="13" lengthAdjust="spacingAndGlyphs" textLength="75" x="1162.5" y="1284.6216">gulp-concat</text><text fill="#000000" font-family="sans-serif" font-size="13" lengthAdjust="spacingAndGlyphs" textLength="50" x="1162.5" y="1299.7544">gulp-zip</text><text fill="#000000" font-family="sans-serif" font-size="13" lengthAdjust="spacingAndGlyphs" textLength="0" x="1158.5" y="1314.8872"/><text fill="#000000" font-family="sans-serif" font-size="14" font-weight="bold" lengthAdjust="spacingAndGlyphs" textLength="59" x="1154.5" y="1330.9482">release</text><text fill="#000000" font-family="sans-serif" font-size="13" lengthAdjust="spacingAndGlyphs" textLength="82" x="1162.5" y="1346.3169">gulp-rename</text><text fill="#000000" font-family="sans-serif" font-size="13" lengthAdjust="spacingAndGlyphs" textLength="69" x="1162.5" y="1361.4497">gulp-bump</text><text fill="#000000" font-family="sans-serif" font-size="13" lengthAdjust="spacingAndGlyphs" textLength="0" x="1158.5" y="1376.5825"/><text fill="#000000" font-family="sans-serif" font-size="14" font-weight="bold" lengthAdjust="spacingAndGlyphs" textLength="27" x="1154.5" y="1392.6436">vcs</text><text fill="#000000" font-family="sans-serif" font-size="13" lengthAdjust="spacingAndGlyphs" textLength="48" x="1162.5" y="1408.0122">gulp-git</text><text fill="#000000" font-family="sans-serif" font-size="13" lengthAdjust="spacingAndGlyphs" textLength="0" x="1158.5" y="1423.145"/><text fill="#000000" font-family="sans-serif" font-size="14" font-weight="bold" lengthAdjust="spacingAndGlyphs" textLength="31" x="1154.5" y="1439.2061">test</text><text fill="#000000" font-family="sans-serif" font-size="13" lengthAdjust="spacingAndGlyphs" textLength="0" x="1158.5" y="1454.5747"/><text fill="#000000" font-family="sans-serif" font-size="13" font-style="italic" lengthAdjust="spacingAndGlyphs" textLength="42" x="1154.5" y="1469.7075">testBe</text><text fill="#000000" font-family="sans-serif" font-size="13" lengthAdjust="spacingAndGlyphs" textLength="26" x="1162.5" y="1484.8403">chai</text><text fill="#000000" font-family="sans-serif" font-size="13" lengthAdjust="spacingAndGlyphs" textLength="131" x="1162.5" y="1499.9731">mocha-lcov-reporter</text><text fill="#000000" font-family="sans-serif" font-size="13" lengthAdjust="spacingAndGlyphs" textLength="76" x="1162.5" y="1515.106">gulp-mocha</text><text fill="#000000" font-family="sans-serif" font-size="13" lengthAdjust="spacingAndGlyphs" textLength="82" x="1162.5" y="1530.2388">gulp-istanbul</text><text fill="#000000" font-family="sans-serif" font-size="13" lengthAdjust="spacingAndGlyphs" textLength="0" x="1158.5" y="1545.3716"/><text fill="#000000" font-family="sans-serif" font-size="13" font-style="italic" lengthAdjust="spacingAndGlyphs" textLength="40" x="1154.5" y="1560.5044">testFe</text><text fill="#000000" font-family="sans-serif" font-size="13" lengthAdjust="spacingAndGlyphs" textLength="149" x="1162.5" y="1575.6372">gulp-angular-protractor</text><text fill="#000000" font-family="sans-serif" font-size="13" lengthAdjust="spacingAndGlyphs" textLength="120" x="1162.5" y="1590.77">gulp-karma-runner</text><text fill="#000000" font-family="sans-serif" font-size="13" lengthAdjust="spacingAndGlyphs" textLength="145" x="1162.5" y="1605.9028">gulp-jasmine-phantom</text><text fill="#000000" font-family="sans-serif" font-size="13" lengthAdjust="spacingAndGlyphs" textLength="58" x="1162.5" y="1621.0356">phantom</text><text fill="#000000" font-family="sans-serif" font-size="13" lengthAdjust="spacingAndGlyphs" textLength="124" x="1162.5" y="1636.1685">selenium-webdriver</text><text fill="#000000" font-family="sans-serif" font-size="13" lengthAdjust="spacingAndGlyphs" textLength="0" x="1158.5" y="1651.3013"/><text fill="#000000" font-family="sans-serif" font-size="14" font-weight="bold" lengthAdjust="spacingAndGlyphs" textLength="50" x="1154.5" y="1667.3623">report</text><text fill="#000000" font-family="sans-serif" font-size="13" lengthAdjust="spacingAndGlyphs" textLength="61" x="1162.5" y="1682.731">gulp-todo</text><text fill="#000000" font-family="sans-serif" font-size="13" lengthAdjust="spacingAndGlyphs" textLength="57" x="1162.5" y="1697.8638">gulp-size</text><text fill="#000000" font-family="sans-serif" font-size="13" lengthAdjust="spacingAndGlyphs" textLength="0" x="1158.5" y="1712.9966"/><path d="M97.3329,136 C121.465,136 150.61,136 173.003,136 " fill="none" style="stroke: #808080; stroke-width: 1.0; stroke-dasharray: 7.0,7.0;"/><polygon fill="#808080" points="178.252,136,169.252,132,173.252,136,169.252,140,178.252,136" style="stroke: #808080; stroke-width: 1.0;"/><text fill="#BBBBBB" font-family="sans-serif" font-size="13" lengthAdjust="spacingAndGlyphs" textLength="45" x="115.25" y="129.0669">require</text><path d="M1686.41,42.04 C1677.64,49.99 1668.38,60.38 1663.5,72 C1658.01,85.07 1657.57,101.03 1658.46,113.63 " fill="none" style="stroke: #808080; stroke-width: 1.0; stroke-dasharray: 7.0,7.0;"/><polygon fill="#808080" points="1658.92,118.8,1662.1057,109.4806,1658.4764,113.8197,1654.1372,110.1904,1658.92,118.8" style="stroke: #808080; stroke-width: 1.0;"/><text fill="#BBBBBB" font-family="sans-serif" font-size="13" lengthAdjust="spacingAndGlyphs" textLength="45" x="1664.5" y="85.0669">require</text><path d="M1714.29,42.08 C1722.34,61.16 1735.78,93.02 1744.65,114.02 " fill="none" style="stroke: #808080; stroke-width: 1.0; stroke-dasharray: 7.0,7.0;"/><polygon fill="#808080" points="1746.68,118.85,1746.8631,109.0028,1744.7346,114.244,1739.4935,112.1155,1746.68,118.85" style="stroke: #808080; stroke-width: 1.0;"/><text fill="#BBBBBB" font-family="sans-serif" font-size="13" lengthAdjust="spacingAndGlyphs" textLength="45" x="1734.5" y="85.0669">require</text><path d="M809.065,259.39 C834.858,268.67 866.897,282.13 874.5,294 C882.391,306.32 880.708,322.89 877.282,335.94 " fill="none" style="stroke: #808080; stroke-width: 1.0; stroke-dasharray: 7.0,7.0;"/><polygon fill="#808080" points="875.844,340.94,882.1815,333.4011,877.2297,336.1358,874.4949,331.184,875.844,340.94" style="stroke: #808080; stroke-width: 1.0;"/><text fill="#BBBBBB" font-family="sans-serif" font-size="13" lengthAdjust="spacingAndGlyphs" textLength="45" x="881.5" y="307.0669">require</text><path d="M663.314,139.96 C601.451,146.34 493.325,166.47 429.5,230 C400.094,259.27 387.523,307.92 382.514,335.74 " fill="none" style="stroke: #808080; stroke-width: 1.0; stroke-dasharray: 7.0,7.0;"/><polygon fill="#808080" points="381.664,340.68,387.1243,332.4833,382.5071,335.7516,379.2388,331.1344,381.664,340.68" style="stroke: #808080; stroke-width: 1.0;"/><text fill="#BBBBBB" font-family="sans-serif" font-size="13" lengthAdjust="spacingAndGlyphs" textLength="45" x="430.5" y="251.5669">require</text><path d="M747.002,153.08 C764.07,161.18 784.361,171.69 801.5,183 C820.96,195.84 841.089,213 855.588,226.17 " fill="none" style="stroke: #808080; stroke-width: 1.0; stroke-dasharray: 7.0,7.0;"/><polygon fill="#808080" points="859.523,229.77,855.5858,220.7423,855.8351,226.3937,850.1837,226.643,859.523,229.77" style="stroke: #808080; stroke-width: 1.0;"/><text fill="#BBBBBB" font-family="sans-serif" font-size="13" lengthAdjust="spacingAndGlyphs" textLength="45" x="826.5" y="196.0669">require</text><path d="M692.349,153.39 C684.286,161.57 675.322,172.04 669.5,183 C662.597,195.99 658.576,212.09 656.291,224.76 " fill="none" style="stroke: #808080; stroke-width: 1.0; stroke-dasharray: 7.0,7.0;"/><polygon fill="#808080" points="655.414,229.96,660.85,221.7472,656.2425,225.0291,652.9606,220.4216,655.414,229.96" style="stroke: #808080; stroke-width: 1.0;"/><text fill="#BBBBBB" font-family="sans-serif" font-size="13" lengthAdjust="spacingAndGlyphs" textLength="45" x="670.5" y="196.0669">require</text><path d="M719.943,153.08 C731.193,172.24 750.009,204.29 762.338,225.29 " fill="none" style="stroke: #808080; stroke-width: 1.0; stroke-dasharray: 7.0,7.0;"/><polygon fill="#808080" points="765.018,229.85,763.8912,220.0658,762.4779,225.5433,757.0005,224.13,765.018,229.85" style="stroke: #808080; stroke-width: 1.0;"/><text fill="#BBBBBB" font-family="sans-serif" font-size="13" lengthAdjust="spacingAndGlyphs" textLength="45" x="747.5" y="196.0669">require</text><path d="M757.796,147.25 C792.332,155.34 839.998,167.79 880.5,183 C913.997,195.58 950.494,213.86 976.091,227.5 " fill="none" style="stroke: #808080; stroke-width: 1.0; stroke-dasharray: 7.0,7.0;"/><polygon fill="#808080" points="980.741,229.99,974.69,222.2192,976.3316,227.6326,970.9182,229.2742,980.741,229.99" style="stroke: #808080; stroke-width: 1.0;"/><text fill="#BBBBBB" font-family="sans-serif" font-size="13" lengthAdjust="spacingAndGlyphs" textLength="45" x="921.5" y="196.0669">require</text><path d="M663.303,150.57 C603.675,170.66 504.28,214.77 466.5,294 C458.813,310.12 471.286,325.98 485.568,337.75 " fill="none" style="stroke: #808080; stroke-width: 1.0; stroke-dasharray: 7.0,7.0;"/><polygon fill="#808080" points="489.629,340.96,485.057,332.2366,485.7094,337.8558,480.0902,338.5081,489.629,340.96" style="stroke: #808080; stroke-width: 1.0;"/><text fill="#BBBBBB" font-family="sans-serif" font-size="13" lengthAdjust="spacingAndGlyphs" textLength="45" x="517.5" y="251.5669">require</text><path d="M388.353,375.08 C398.9,394.24 416.54,426.29 428.098,447.29 " fill="none" style="stroke: #808080; stroke-width: 1.0; stroke-dasharray: 7.0,7.0;"/><polygon fill="#808080" points="430.61,451.85,429.7931,442.0351,428.2073,447.4651,422.7773,445.8794,430.61,451.85" style="stroke: #808080; stroke-width: 1.0;"/><text fill="#BBBBBB" font-family="sans-serif" font-size="13" lengthAdjust="spacingAndGlyphs" textLength="45" x="414.5" y="418.0669">require</text><path d="M368.069,375.25 C362.201,383.89 355.124,394.82 349.5,405 C341.945,418.68 334.597,434.68 329.188,447.13 " fill="none" style="stroke: #808080; stroke-width: 1.0; stroke-dasharray: 7.0,7.0;"/><polygon fill="#808080" points="327.141,451.89,334.3842,445.2164,329.1252,447.3006,327.0411,442.0416,327.141,451.89" style="stroke: #808080; stroke-width: 1.0;"/><text fill="#BBBBBB" font-family="sans-serif" font-size="13" lengthAdjust="spacingAndGlyphs" textLength="45" x="350.5" y="418.0669">require</text><path d="M869.5,375.08 C869.5,394.08 869.5,425.75 869.5,446.75 " fill="none" style="stroke: #808080; stroke-width: 1.0; stroke-dasharray: 7.0,7.0;"/><polygon fill="#808080" points="869.5,451.85,873.5,442.85,869.5,446.85,865.5,442.85,869.5,451.85" style="stroke: #808080; stroke-width: 1.0;"/><text fill="#BBBBBB" font-family="sans-serif" font-size="13" lengthAdjust="spacingAndGlyphs" textLength="45" x="870.5" y="418.0669">require</text><path d="M892.666,375.08 C920.958,394.73 968.761,427.91 998.922,448.85 " fill="none" style="stroke: #808080; stroke-width: 1.0; stroke-dasharray: 7.0,7.0;"/><polygon fill="#808080" points="1003.239,451.85,998.1204,443.4358,999.1295,449.0019,993.5634,450.011,1003.239,451.85" style="stroke: #808080; stroke-width: 1.0;"/><text fill="#BBBBBB" font-family="sans-serif" font-size="13" lengthAdjust="spacingAndGlyphs" textLength="45" x="958.5" y="418.0669">require</text><path d="M901.107,264.16 C912.379,272.29 925.436,282.79 935.5,294 C946.979,306.79 957.098,323.39 964.15,336.34 " fill="none" style="stroke: #808080; stroke-width: 1.0; stroke-dasharray: 7.0,7.0;"/><polygon fill="#808080" points="966.607,340.93,965.8909,331.1072,964.2495,336.5207,958.836,334.8793,966.607,340.93" style="stroke: #808080; stroke-width: 1.0;"/><text fill="#BBBBBB" font-family="sans-serif" font-size="13" lengthAdjust="spacingAndGlyphs" textLength="45" x="950.5" y="307.0669">require</text><path d="M906.307,258.33 C943.574,271.31 1002.744,292.11 1004.5,294 C1043.48,336.02 1037.03,410.33 1030.88,446.72 " fill="none" style="stroke: #808080; stroke-width: 1.0; stroke-dasharray: 7.0,7.0;"/><polygon fill="#808080" points="1029.99,451.8,1035.4959,443.6339,1030.8606,446.8764,1027.6181,442.241,1029.99,451.8" style="stroke: #808080; stroke-width: 1.0;"/><text fill="#BBBBBB" font-family="sans-serif" font-size="13" lengthAdjust="spacingAndGlyphs" textLength="45" x="1036.5" y="362.5669">require</text><path d="M906.125,258.87 C911.842,260.74 917.821,262.55 923.5,264 C999.112,283.3 1025.53,261.56 1096.5,294 C1119.09,304.33 1140.6,322.93 1155.11,337.26 " fill="none" style="stroke: #808080; stroke-width: 1.0; stroke-dasharray: 7.0,7.0;"/><polygon fill="#808080" points="1158.65,340.8,1155.1145,331.6076,1155.1145,337.2645,1149.4576,337.2645,1158.65,340.8" style="stroke: #808080; stroke-width: 1.0;"/><text fill="#BBBBBB" font-family="sans-serif" font-size="13" lengthAdjust="spacingAndGlyphs" textLength="45" x="1125.5" y="307.0669">require</text><path d="M609.853,261.17 C582.477,269.77 546.602,281.66 515.5,294 C481.204,307.61 443.176,325.47 416.073,338.7 " fill="none" style="stroke: #808080; stroke-width: 1.0; stroke-dasharray: 7.0,7.0;"/><polygon fill="#808080" points="411.481,340.95,421.323,340.5833,415.9713,338.7506,417.804,333.3989,411.481,340.95" style="stroke: #808080; stroke-width: 1.0;"/><text fill="#BBBBBB" font-family="sans-serif" font-size="13" lengthAdjust="spacingAndGlyphs" textLength="45" x="516.5" y="307.0669">require</text><path d="M631.187,264.11 C619.29,272.81 604.47,283.82 591.5,294 C573.382,308.21 553.346,324.86 538.397,337.47 " fill="none" style="stroke: #808080; stroke-width: 1.0; stroke-dasharray: 7.0,7.0;"/><polygon fill="#808080" points="534.321,340.92,543.7754,338.1605,538.1381,337.6905,538.6082,332.0532,534.321,340.92" style="stroke: #808080; stroke-width: 1.0;"/><text fill="#BBBBBB" font-family="sans-serif" font-size="13" lengthAdjust="spacingAndGlyphs" textLength="45" x="592.5" y="307.0669">require</text><path d="M692.688,264.13 C726.082,277.57 775.514,296.75 819.5,311 C868.115,326.75 881.776,325.59 930.5,341 C934.622,342.3 938.93,343.76 943.17,345.24 " fill="none" style="stroke: #808080; stroke-width: 1.0; stroke-dasharray: 7.0,7.0;"/><polygon fill="#808080" points="948.1,346.99,940.954,340.2125,943.3874,345.3192,938.2807,347.7526,948.1,346.99" style="stroke: #808080; stroke-width: 1.0;"/><text fill="#BBBBBB" font-family="sans-serif" font-size="13" lengthAdjust="spacingAndGlyphs" textLength="45" x="823.5" y="307.0669">require</text><path d="M651.582,264.08 C649.316,283.08 645.539,314.75 643.034,335.75 " fill="none" style="stroke: #808080; stroke-width: 1.0; stroke-dasharray: 7.0,7.0;"/><polygon fill="#808080" points="642.426,340.85,647.453,332.3807,643.0119,335.8844,639.5081,331.4433,642.426,340.85" style="stroke: #808080; stroke-width: 1.0;"/><text fill="#BBBBBB" font-family="sans-serif" font-size="13" lengthAdjust="spacingAndGlyphs" textLength="45" x="649.5" y="307.0669">require</text><path d="M671.749,264.26 C680.822,272.74 691.699,283.5 700.5,294 C711.712,307.38 722.778,323.68 730.876,336.35 " fill="none" style="stroke: #808080; stroke-width: 1.0; stroke-dasharray: 7.0,7.0;"/><polygon fill="#808080" points="733.72,340.84,732.2903,331.0955,731.0476,336.6141,725.5289,335.3714,733.72,340.84" style="stroke: #808080; stroke-width: 1.0;"/><text fill="#BBBBBB" font-family="sans-serif" font-size="13" lengthAdjust="spacingAndGlyphs" textLength="45" x="714.5" y="307.0669">require</text><path d="M687.269,33.45 C624.775,49.59 486.763,93.71 412.5,183 C375.583,227.39 375.068,300.27 377.415,335.96 " fill="none" style="stroke: #808080; stroke-width: 1.0; stroke-dasharray: 7.0,7.0;"/><polygon fill="#808080" points="377.779,340.95,381.1259,331.6873,377.4219,335.9628,373.1463,332.2587,377.779,340.95" style="stroke: #808080; stroke-width: 1.0;"/><text fill="#BBBBBB" font-family="sans-serif" font-size="13" lengthAdjust="spacingAndGlyphs" textLength="45" x="413.5" y="196.0669">require</text><path d="M750.972,42.18 C828.671,82.12 1029.25,185.22 1111.5,227.49 " fill="none" style="stroke: #808080; stroke-width: 1.0; stroke-dasharray: 7.0,7.0;"/><polygon fill="#808080" points="1116.27,229.95,1110.0969,222.2758,1111.8239,227.6626,1106.4371,229.3896,1116.27,229.95" style="stroke: #808080; stroke-width: 1.0;"/><text fill="#BBBBBB" font-family="sans-serif" font-size="13" lengthAdjust="spacingAndGlyphs" textLength="45" x="963.5" y="140.5669">require</text><path d="M687.335,26.7 C582.085,29.3 252.732,39.95 218.5,72 C207.438,82.36 205.344,99.64 205.792,113.49 " fill="none" style="stroke: #808080; stroke-width: 1.0; stroke-dasharray: 7.0,7.0;"/><polygon fill="#808080" points="206.09,118.8,209.5954,109.5961,205.8185,113.8074,201.6072,110.0305,206.09,118.8" style="stroke: #808080; stroke-width: 1.0;"/><text fill="#BBBBBB" font-family="sans-serif" font-size="13" lengthAdjust="spacingAndGlyphs" textLength="45" x="219.5" y="85.0669">require</text><path d="M751.702,25.67 C867.153,25.35 1253.5,31.98 1253.5,135 C1253.5,135 1253.5,135 1253.5,470 C1253.5,495.18 1253.5,520.9 1253.5,546.87 " fill="none" style="stroke: #808080; stroke-width: 1.0; stroke-dasharray: 7.0,7.0;"/><text fill="#BBBBBB" font-family="sans-serif" font-size="13" lengthAdjust="spacingAndGlyphs" textLength="45" x="1254.5" y="307.0669">require</text></g></svg>