<?xml version="1.0" encoding="UTF-8" standalone="yes"?><svg xmlns="http://www.w3.org/2000/svg" xmlns:xlink="http://www.w3.org/1999/xlink" height="598px" style="width:299px;height:598px;background:#3C3F41;" version="1.1" viewBox="0 0 299 598" width="299px"><defs/><g><text fill="#A9A9A9" font-family="Ubuntu Mono" font-size="7" lengthAdjust="spacingAndGlyphs" textLength="40" x="258" y="5.81">2015-09-10</text><a target="_top" xlink:href="https://esf.itms.pro" xlink:title="https://esf.itms.pro"><text fill="#0000FF" font-family="Ubuntu Mono" font-size="7" lengthAdjust="spacingAndGlyphs" text-decoration="underline" textLength="48" x="250" y="15.81">esf.itms.pro</text><line style="stroke: #0000FF; stroke-width: 1.0;" x1="250" x2="298" y1="17.81" y2="17.81"/></a><text fill="#D3D3D3" font-family="Helvetica" font-size="30" lengthAdjust="spacingAndGlyphs" textLength="115" x="91.5" y="47.8467">PRD UC</text><polygon fill="#3C3F41" points="104,78.9219,125,78.9219,132,94.9219,264,94.9219,264,362.9219,104,362.9219,104,78.9219" style="stroke: #808080; stroke-width: 1.0;"/><line style="stroke: #808080; stroke-width: 1.0;" x1="104" x2="132" y1="94.9219" y2="94.9219"/><text fill="#D3D3D3" font-family="Ubuntu Mono" font-size="10" font-weight="bold" lengthAdjust="spacingAndGlyphs" textLength="15" x="107" y="90.2219">tst</text><ellipse cx="184" cy="117.9219" fill="#808080" rx="10" ry="10" style="stroke: none; stroke-width: 1.0;"/><rect fill="#3C3F41" height="32.0001" rx="12.5" ry="12.5" style="stroke: #808080; stroke-width: 1.5;" width="128" x="120" y="168.9219"/><text fill="#D3D3D3" font-family="Ubuntu Mono" font-size="12" lengthAdjust="spacingAndGlyphs" textLength="108" x="130" y="188.8819">bta acceptance tst</text><rect fill="#3C3F41" height="32.0001" rx="12.5" ry="12.5" style="stroke: #808080; stroke-width: 1.5;" width="86" x="141" y="241.9219"/><text fill="#D3D3D3" font-family="Ubuntu Mono" font-size="12" lengthAdjust="spacingAndGlyphs" textLength="66" x="151" y="261.8819">bta sec tst</text><rect fill="#3C3F41" height="32.0001" rx="12.5" ry="12.5" style="stroke: #808080; stroke-width: 1.5;" width="92" x="138" y="314.9219"/><text fill="#D3D3D3" font-family="Ubuntu Mono" font-size="12" lengthAdjust="spacingAndGlyphs" textLength="72" x="148" y="334.8819">bta load tst</text><polygon fill="#3C3F41" points="184,399.9219,196,411.9219,184,423.9219,172,411.9219,184,399.9219" style="stroke: #808080; stroke-width: 1.5;"/><rect fill="#3C3F41" height="32.0001" rx="12.5" ry="12.5" style="stroke: #808080; stroke-width: 1.5;" width="170" x="6" y="475.9219"/><text fill="#D3D3D3" font-family="Ubuntu Mono" font-size="12" lengthAdjust="spacingAndGlyphs" textLength="150" x="16" y="495.8819">switch bta/prd mcn switch</text><ellipse cx="178" cy="558.9219" fill="none" rx="10" ry="10" style="stroke: #808080; stroke-width: 1.0;"/><ellipse cx="178.5" cy="559.4219" fill="#808080" rx="6" ry="6" style="stroke: none; stroke-width: 1.0;"/><path d="M184,127.9599 C184,137.0959 184,151.5269 184,163.4469 " fill="none" style="stroke: #808080; stroke-width: 1.0;"/><polygon fill="#808080" points="184,168.7179,188,159.7179,184,163.7179,180,159.7179,184,168.7179" style="stroke: #808080; stroke-width: 1.0;"/><path d="M184,200.9789 C184,211.4279 184,225.4609 184,236.8579 " fill="none" style="stroke: #808080; stroke-width: 1.0;"/><polygon fill="#808080" points="184,241.8859,188,232.8859,184,236.8859,180,232.8859,184,241.8859" style="stroke: #808080; stroke-width: 1.0;"/><path d="M184,273.9789 C184,284.4279 184,298.4609 184,309.8579 " fill="none" style="stroke: #808080; stroke-width: 1.0;"/><polygon fill="#808080" points="184,314.8859,188,305.8859,184,309.8859,180,305.8859,184,314.8859" style="stroke: #808080; stroke-width: 1.0;"/><path d="M184,347.1539 C184,360.7699 184,380.6679 184,394.6059 " fill="none" style="stroke: #808080; stroke-width: 1.0;"/><polygon fill="#808080" points="184,399.8129,188,390.8129,184,394.8129,180,390.8129,184,399.8129" style="stroke: #808080; stroke-width: 1.0;"/><text fill="#BBBBBB" font-family="Ubuntu Mono" font-size="10" lengthAdjust="spacingAndGlyphs" textLength="55" x="116.2813" y="390.2">test result</text><path d="M177.898,418.0399 C164.964,428.8879 134.24,454.6559 113.024,472.45 " fill="none" style="stroke: #808080; stroke-width: 1.0;"/><polygon fill="#808080" points="109.18,475.6743,118.6463,472.9559,113.0111,472.4614,113.5056,466.8262,109.18,475.6743" style="stroke: #808080; stroke-width: 1.0;"/><text fill="#BBBBBB" font-family="Ubuntu Mono" font-size="10" lengthAdjust="spacingAndGlyphs" textLength="35" x="147" y="453.2219">success</text><path d="M111.178,507.9976 C128.283,520.7768 152.217,538.659 166.315,549.1916 " fill="none" style="stroke: #808080; stroke-width: 1.0;"/><polygon fill="#808080" points="170.356,552.2106,165.5385,543.6204,166.3499,549.2187,160.7515,550.0302,170.356,552.2106" style="stroke: #808080; stroke-width: 1.0;"/><path d="M185.542,422.3889 C186.46,428.5119 187.534,436.6649 188,443.9219 C189.114,461.2619 187.96,488.1004 186,507.9219 C184.803,520.0274 182.563,533.6547 180.757,543.6217 " fill="none" style="stroke: #808080; stroke-width: 1.0;"/><polygon fill="#808080" points="179.807,548.7495,185.3789,540.6283,180.7174,543.8331,177.5126,539.1716,179.807,548.7495" style="stroke: #808080; stroke-width: 1.0;"/><text fill="#BBBBBB" font-family="Ubuntu Mono" font-size="10" lengthAdjust="spacingAndGlyphs" textLength="20" x="190" y="495.2219">fail</text><text fill="#A9A9A9" font-family="Ubuntu Mono" font-size="10" lengthAdjust="spacingAndGlyphs" textLength="0" x="151.5" y="587.2219"/><text fill="#A9A9A9" font-family="Ubuntu Mono" font-size="10" lengthAdjust="spacingAndGlyphs" textLength="80" x="109" y="597.2219">© ITMS 2015-2016</text></g></svg>