<?xml version="1.0" encoding="UTF-8" standalone="yes"?><svg xmlns="http://www.w3.org/2000/svg" xmlns:xlink="http://www.w3.org/1999/xlink" height="683px" style="width:202px;height:683px;background:#3C3F41;" version="1.1" viewBox="0 0 202 683" width="202px"><defs/><g><ellipse cx="69.5" cy="20" fill="#808080" rx="10" ry="10" style="stroke: none; stroke-width: 1.0;"/><rect fill="#3C3F41" height="32.0001" rx="12.5" ry="12.5" style="stroke: #808080; stroke-width: 1.5;" width="38" x="50.5" y="50"/><text fill="#D3D3D3" font-family="Ubuntu Mono" font-size="12" lengthAdjust="spacingAndGlyphs" textLength="18" x="60.5" y="69.9601">bta</text><polygon fill="#3C3F41" points="35.5,102.0001,113.5,102.0001,103.5,130.0002,113.5,158.0003,35.5,158.0003" style="stroke: #808080; stroke-width: 1.5;"/><text fill="#D3D3D3" font-family="Ubuntu Mono" font-size="12" lengthAdjust="spacingAndGlyphs" textLength="48" x="45.5" y="121.9602">.tmp/bta</text><text fill="#D3D3D3" font-family="Ubuntu Mono" font-size="12" lengthAdjust="spacingAndGlyphs" textLength="42" x="45.5" y="133.9602">src/tst</text><text fill="#D3D3D3" font-family="Ubuntu Mono" font-size="12" lengthAdjust="spacingAndGlyphs" textLength="18" x="45.5" y="145.9603">rpo</text><polygon fill="#3C3F41" points="57.5,178.0003,81.5,178.0003,93.5,190.0003,81.5,202.0003,57.5,202.0003,45.5,190.0003,57.5,178.0003" style="stroke: #808080; stroke-width: 1.5;"/><text fill="#D3D3D3" font-family="Ubuntu Mono" font-size="10" lengthAdjust="spacingAndGlyphs" textLength="10" x="64.5" y="193.3003">ut</text><text fill="#BBBBBB" font-family="Ubuntu Mono" font-size="10" lengthAdjust="spacingAndGlyphs" textLength="20" x="25.5" y="188.3003">fail</text><text fill="#BBBBBB" font-family="Ubuntu Mono" font-size="10" lengthAdjust="spacingAndGlyphs" textLength="10" x="93.5" y="188.3003">ok</text><ellipse cx="20" cy="222.0003" fill="#FFFFFF" rx="10" ry="10" style="stroke: #808080; stroke-width: 1.5;"/><line style="stroke: #808080; stroke-width: 2.5;" x1="13.8128" x2="26.1872" y1="215.8132" y2="228.1875"/><line style="stroke: #808080; stroke-width: 2.5;" x1="26.1872" x2="13.8128" y1="215.8132" y2="228.1875"/><polygon fill="#3C3F41" points="107,212.0003,131,212.0003,143,224.0003,131,236.0003,107,236.0003,95,224.0003,107,212.0003" style="stroke: #808080; stroke-width: 1.5;"/><text fill="#D3D3D3" font-family="Ubuntu Mono" font-size="10" lengthAdjust="spacingAndGlyphs" textLength="10" x="114" y="227.3003">it</text><text fill="#BBBBBB" font-family="Ubuntu Mono" font-size="10" lengthAdjust="spacingAndGlyphs" textLength="20" x="75" y="222.3003">fail</text><text fill="#BBBBBB" font-family="Ubuntu Mono" font-size="10" lengthAdjust="spacingAndGlyphs" textLength="10" x="143" y="222.3003">ok</text><ellipse cx="80" cy="256.0003" fill="#FFFFFF" rx="10" ry="10" style="stroke: #808080; stroke-width: 1.5;"/><line style="stroke: #808080; stroke-width: 2.5;" x1="73.8128" x2="86.1872" y1="249.8132" y2="262.1875"/><line style="stroke: #808080; stroke-width: 2.5;" x1="86.1872" x2="73.8128" y1="249.8132" y2="262.1875"/><rect fill="#3C3F41" height="32.0001" style="stroke: #808080; stroke-width: 1.5;" width="44" x="136" y="246.0003"/><line style="stroke: #808080; stroke-width: 1.5;" x1="141" x2="141" y1="246.0003" y2="278.0004"/><line style="stroke: #808080; stroke-width: 1.5;" x1="175" x2="175" y1="246.0003" y2="278.0004"/><text fill="#D3D3D3" font-family="Ubuntu Mono" font-size="12" lengthAdjust="spacingAndGlyphs" textLength="24" x="146" y="265.9604">bump</text><rect fill="#3C3F41" height="32.0001" style="stroke: #808080; stroke-width: 1.5;" width="38" x="139" y="298.0004"/><line style="stroke: #808080; stroke-width: 1.5;" x1="144" x2="144" y1="298.0004" y2="330.0005"/><line style="stroke: #808080; stroke-width: 1.5;" x1="172" x2="172" y1="298.0004" y2="330.0005"/><text fill="#D3D3D3" font-family="Ubuntu Mono" font-size="12" lengthAdjust="spacingAndGlyphs" textLength="18" x="149" y="317.9605">doc</text><rect fill="#3C3F41" height="32.0001" style="stroke: #808080; stroke-width: 1.5;" width="62" x="127" y="350.0005"/><line style="stroke: #808080; stroke-width: 1.5;" x1="132" x2="132" y1="350.0005" y2="382.0006"/><line style="stroke: #808080; stroke-width: 1.5;" x1="184" x2="184" y1="350.0005" y2="382.0006"/><text fill="#D3D3D3" font-family="Ubuntu Mono" font-size="12" lengthAdjust="spacingAndGlyphs" textLength="42" x="137" y="369.9606">git add</text><rect fill="#3C3F41" height="32.0001" style="stroke: #808080; stroke-width: 1.5;" width="80" x="118" y="402.0006"/><line style="stroke: #808080; stroke-width: 1.5;" x1="123" x2="123" y1="402.0006" y2="434.0007"/><line style="stroke: #808080; stroke-width: 1.5;" x1="193" x2="193" y1="402.0006" y2="434.0007"/><text fill="#D3D3D3" font-family="Ubuntu Mono" font-size="12" lengthAdjust="spacingAndGlyphs" textLength="60" x="128" y="421.9607">git commit</text><rect fill="#3C3F41" height="32.0001" style="stroke: #808080; stroke-width: 1.5;" width="68" x="124" y="454.0007"/><line style="stroke: #808080; stroke-width: 1.5;" x1="129" x2="129" y1="454.0007" y2="486.0008"/><line style="stroke: #808080; stroke-width: 1.5;" x1="187" x2="187" y1="454.0007" y2="486.0008"/><text fill="#D3D3D3" font-family="Ubuntu Mono" font-size="12" lengthAdjust="spacingAndGlyphs" textLength="48" x="134" y="473.9607">git push</text><rect fill="#3C3F41" height="32.0001" style="stroke: #808080; stroke-width: 1.5;" width="86" x="115" y="506.0008"/><line style="stroke: #808080; stroke-width: 1.5;" x1="120" x2="120" y1="506.0008" y2="538.0008"/><line style="stroke: #808080; stroke-width: 1.5;" x1="196" x2="196" y1="506.0008" y2="538.0008"/><text fill="#D3D3D3" font-family="Ubuntu Mono" font-size="12" lengthAdjust="spacingAndGlyphs" textLength="66" x="125" y="525.9608">npm publish</text><rect fill="#3C3F41" height="32.0001" style="stroke: #808080; stroke-width: 1.5;" width="56" x="130" y="558.0008"/><line style="stroke: #808080; stroke-width: 1.5;" x1="135" x2="135" y1="558.0008" y2="590.0009"/><line style="stroke: #808080; stroke-width: 1.5;" x1="181" x2="181" y1="558.0008" y2="590.0009"/><text fill="#D3D3D3" font-family="Ubuntu Mono" font-size="12" lengthAdjust="spacingAndGlyphs" textLength="36" x="140" y="577.9609">report</text><polygon fill="#3C3F41" points="70,610.0009,168,610.0009,178,626.001,168,642.001,70,642.001" style="stroke: #808080; stroke-width: 1.5;"/><text fill="#D3D3D3" font-family="Ubuntu Mono" font-size="12" lengthAdjust="spacingAndGlyphs" textLength="78" x="80" y="629.961">npm/v x.x.x++</text><ellipse cx="119" cy="672.001" fill="none" rx="10" ry="10" style="stroke: #808080; stroke-width: 1.0;"/><ellipse cx="119.5" cy="672.501" fill="#808080" rx="6" ry="6" style="stroke: none; stroke-width: 1.0;"/><line style="stroke: #808080; stroke-width: 1.5;" x1="69.5" x2="69.5" y1="30" y2="50"/><polygon fill="#808080" points="65.5,40,69.5,50,73.5,40,69.5,44" style="stroke: #808080; stroke-width: 1.0;"/><line style="stroke: #808080; stroke-width: 1.5;" x1="69.5" x2="69.5" y1="82.0001" y2="102.0001"/><polygon fill="#808080" points="65.5,92.0001,69.5,102.0001,73.5,92.0001,69.5,96.0001" style="stroke: #808080; stroke-width: 1.0;"/><line style="stroke: #808080; stroke-width: 1.5;" x1="158" x2="158" y1="278.0004" y2="298.0004"/><polygon fill="#808080" points="154,288.0004,158,298.0004,162,288.0004,158,292.0004" style="stroke: #808080; stroke-width: 1.0;"/><line style="stroke: #808080; stroke-width: 1.5;" x1="158" x2="158" y1="330.0005" y2="350.0005"/><polygon fill="#808080" points="154,340.0005,158,350.0005,162,340.0005,158,344.0005" style="stroke: #808080; stroke-width: 1.0;"/><line style="stroke: #808080; stroke-width: 1.5;" x1="158" x2="158" y1="382.0006" y2="402.0006"/><polygon fill="#808080" points="154,392.0006,158,402.0006,162,392.0006,158,396.0006" style="stroke: #808080; stroke-width: 1.0;"/><line style="stroke: #808080; stroke-width: 1.5;" x1="158" x2="158" y1="434.0007" y2="454.0007"/><polygon fill="#808080" points="154,444.0007,158,454.0007,162,444.0007,158,448.0007" style="stroke: #808080; stroke-width: 1.0;"/><line style="stroke: #808080; stroke-width: 1.5;" x1="158" x2="158" y1="486.0008" y2="506.0008"/><polygon fill="#808080" points="154,496.0008,158,506.0008,162,496.0008,158,500.0008" style="stroke: #808080; stroke-width: 1.0;"/><line style="stroke: #808080; stroke-width: 1.5;" x1="158" x2="158" y1="538.0008" y2="558.0008"/><polygon fill="#808080" points="154,548.0008,158,558.0008,162,548.0008,158,552.0008" style="stroke: #808080; stroke-width: 1.0;"/><line style="stroke: #808080; stroke-width: 1.5;" x1="95" x2="80" y1="224.0003" y2="224.0003"/><line style="stroke: #808080; stroke-width: 1.5;" x1="80" x2="80" y1="224.0003" y2="246.0003"/><polygon fill="#808080" points="76,236.0003,80,246.0003,84,236.0003,80,240.0003" style="stroke: #808080; stroke-width: 1.0;"/><line style="stroke: #808080; stroke-width: 1.5;" x1="143" x2="158" y1="224.0003" y2="224.0003"/><line style="stroke: #808080; stroke-width: 1.5;" x1="158" x2="158" y1="224.0003" y2="246.0003"/><polygon fill="#808080" points="154,236.0003,158,246.0003,162,236.0003,158,240.0003" style="stroke: #808080; stroke-width: 1.0;"/><line style="stroke: #808080; stroke-width: 1.5;" x1="158" x2="158" y1="590.0009" y2="595.0009"/><line style="stroke: #808080; stroke-width: 1.5;" x1="158" x2="119" y1="595.0009" y2="595.0009"/><line style="stroke: #808080; stroke-width: 1.5;" x1="119" x2="119" y1="595.0009" y2="610.0009"/><polygon fill="#808080" points="115,600.0009,119,610.0009,123,600.0009,119,604.0009" style="stroke: #808080; stroke-width: 1.0;"/><line style="stroke: #808080; stroke-width: 1.5;" x1="119" x2="119" y1="642.001" y2="662.001"/><polygon fill="#808080" points="115,652.001,119,662.001,123,652.001,119,656.001" style="stroke: #808080; stroke-width: 1.0;"/><line style="stroke: #808080; stroke-width: 1.5;" x1="45.5" x2="20" y1="190.0003" y2="190.0003"/><line style="stroke: #808080; stroke-width: 1.5;" x1="20" x2="20" y1="190.0003" y2="212.0003"/><polygon fill="#808080" points="16,202.0003,20,212.0003,24,202.0003,20,206.0003" style="stroke: #808080; stroke-width: 1.0;"/><line style="stroke: #808080; stroke-width: 1.5;" x1="93.5" x2="119" y1="190.0003" y2="190.0003"/><line style="stroke: #808080; stroke-width: 1.5;" x1="119" x2="119" y1="190.0003" y2="212.0003"/><polygon fill="#808080" points="115,202.0003,119,212.0003,123,202.0003,119,206.0003" style="stroke: #808080; stroke-width: 1.0;"/><line style="stroke: #808080; stroke-width: 1.5;" x1="69.5" x2="69.5" y1="158.0003" y2="178.0003"/><polygon fill="#808080" points="65.5,168.0003,69.5,178.0003,73.5,168.0003,69.5,172.0003" style="stroke: #808080; stroke-width: 1.0;"/></g></svg>