<?xml version="1.0" encoding="UTF-8" standalone="yes"?><svg xmlns="http://www.w3.org/2000/svg" xmlns:xlink="http://www.w3.org/1999/xlink" height="516px" style="width:411px;height:516px;background:#3C3F41;" version="1.1" viewBox="0 0 411 516" width="411px"><defs/><g><text fill="#3C3F41" font-family="Ubuntu Mono" font-size="10" font-weight="bold" lengthAdjust="spacingAndGlyphs" textLength="5" x="95" y="10.3">-</text><text fill="#3C3F41" font-family="Ubuntu Mono" font-size="10" font-weight="bold" lengthAdjust="spacingAndGlyphs" textLength="5" x="270" y="10.3">-</text><text fill="#3C3F41" font-family="Ubuntu Mono" font-size="10" lengthAdjust="spacingAndGlyphs" textLength="0" x="95" y="20.3"/><text fill="#D3D3D3" font-family="Ubuntu Mono" font-size="10" lengthAdjust="spacingAndGlyphs" textLength="40" x="95" y="20.3">project:</text><text fill="#3C3F41" font-family="Ubuntu Mono" font-size="10" lengthAdjust="spacingAndGlyphs" textLength="0" x="145" y="20.3"/><text fill="#3C3F41" font-family="Ubuntu Mono" font-size="10" lengthAdjust="spacingAndGlyphs" textLength="0" x="270" y="20.3"/><text fill="#D3D3D3" font-family="Ubuntu Mono" font-size="10" lengthAdjust="spacingAndGlyphs" textLength="20" x="270" y="20.3">ITMS</text><text fill="#3C3F41" font-family="Ubuntu Mono" font-size="10" lengthAdjust="spacingAndGlyphs" textLength="0" x="410" y="20.3"/><text fill="#3C3F41" font-family="Ubuntu Mono" font-size="10" lengthAdjust="spacingAndGlyphs" textLength="0" x="95" y="30.3"/><text fill="#D3D3D3" font-family="Ubuntu Mono" font-size="10" lengthAdjust="spacingAndGlyphs" textLength="35" x="95" y="30.3">author:</text><text fill="#3C3F41" font-family="Ubuntu Mono" font-size="10" lengthAdjust="spacingAndGlyphs" textLength="0" x="145" y="30.3"/><text fill="#3C3F41" font-family="Ubuntu Mono" font-size="10" lengthAdjust="spacingAndGlyphs" textLength="0" x="270" y="30.3"/><text fill="#D3D3D3" font-family="Ubuntu Mono" font-size="10" lengthAdjust="spacingAndGlyphs" textLength="80" x="270" y="30.3">Denis Bondarenko</text><text fill="#3C3F41" font-family="Ubuntu Mono" font-size="10" lengthAdjust="spacingAndGlyphs" textLength="0" x="410" y="30.3"/><text fill="#3C3F41" font-family="Ubuntu Mono" font-size="10" lengthAdjust="spacingAndGlyphs" textLength="0" x="95" y="40.3"/><text fill="#D3D3D3" font-family="Ubuntu Mono" font-size="10" lengthAdjust="spacingAndGlyphs" textLength="45" x="95" y="40.3">doc home:</text><text fill="#3C3F41" font-family="Ubuntu Mono" font-size="10" lengthAdjust="spacingAndGlyphs" textLength="0" x="145" y="40.3"/><text fill="#3C3F41" font-family="Ubuntu Mono" font-size="10" lengthAdjust="spacingAndGlyphs" textLength="0" x="270" y="40.3"/><a target="_top" xlink:href="http://doc.dev.itms.pro" xlink:title="http://doc.dev.itms.pro"><text fill="#0000FF" font-family="Ubuntu Mono" font-size="10" lengthAdjust="spacingAndGlyphs" text-decoration="underline" textLength="115" x="270" y="40.3">http://doc.dev.itms.pro</text><line style="stroke: #0000FF; stroke-width: 1.0;" x1="270" x2="385" y1="42.3" y2="42.3"/></a><text fill="#3C3F41" font-family="Ubuntu Mono" font-size="10" lengthAdjust="spacingAndGlyphs" textLength="0" x="390" y="40.3"/><line style="stroke: #3C3F41; stroke-width: 1.0;" x1="90" x2="410" y1="2" y2="2"/><line style="stroke: #3C3F41; stroke-width: 1.0;" x1="90" x2="410" y1="12" y2="12"/><line style="stroke: #3C3F41; stroke-width: 1.0;" x1="90" x2="410" y1="22" y2="22"/><line style="stroke: #3C3F41; stroke-width: 1.0;" x1="90" x2="410" y1="32" y2="32"/><line style="stroke: #3C3F41; stroke-width: 1.0;" x1="90" x2="410" y1="42" y2="42"/><line style="stroke: #3C3F41; stroke-width: 1.0;" x1="90" x2="90" y1="2" y2="42"/><line style="stroke: #3C3F41; stroke-width: 1.0;" x1="265" x2="265" y1="2" y2="42"/><line style="stroke: #3C3F41; stroke-width: 1.0;" x1="410" x2="410" y1="2" y2="42"/><text fill="#3C3F41" font-family="Ubuntu Mono" font-size="10" lengthAdjust="spacingAndGlyphs" textLength="0" x="410" y="52.3"/><text fill="#D3D3D3" font-family="Ubuntu Mono" font-size="30" lengthAdjust="spacingAndGlyphs" textLength="90" x="160" y="78.9">Runner</text><polygon fill="#3C3F41" points="22,108,43,108,50,124,376,124,376,471,22,471,22,108" style="stroke: #D3D3D3; stroke-width: 2.0;"/><line style="stroke: #D3D3D3; stroke-width: 2.0;" x1="22" x2="50" y1="124" y2="124"/><text fill="#D3D3D3" font-family="Ubuntu Mono" font-size="10" font-weight="bold" lengthAdjust="spacingAndGlyphs" textLength="15" x="26" y="118.3">rnr</text><rect fill="#3C3F41" height="40" style="stroke: #D3D3D3; stroke-width: 1.5;" width="55" x="139.5" y="164"/><rect fill="#3C3F41" height="10" style="stroke: #D3D3D3; stroke-width: 1.5;" width="15" x="174.5" y="169"/><rect fill="#3C3F41" height="2" style="stroke: #D3D3D3; stroke-width: 1.5;" width="4" x="172.5" y="171"/><rect fill="#3C3F41" height="2" style="stroke: #D3D3D3; stroke-width: 1.5;" width="4" x="172.5" y="175"/><text fill="#D3D3D3" font-family="Ubuntu Mono" font-size="10" lengthAdjust="spacingAndGlyphs" textLength="15" x="154.5" y="192.3">pm2</text><rect fill="#3C3F41" height="40" style="stroke: #D3D3D3; stroke-width: 1.5;" width="95" x="264.5" y="164"/><rect fill="#3C3F41" height="10" style="stroke: #D3D3D3; stroke-width: 1.5;" width="15" x="339.5" y="169"/><rect fill="#3C3F41" height="2" style="stroke: #D3D3D3; stroke-width: 1.5;" width="4" x="337.5" y="171"/><rect fill="#3C3F41" height="2" style="stroke: #D3D3D3; stroke-width: 1.5;" width="4" x="337.5" y="175"/><text fill="#D3D3D3" font-family="Ubuntu Mono" font-size="10" lengthAdjust="spacingAndGlyphs" textLength="55" x="279.5" y="192.3">njs-cluster</text><rect fill="#3C3F41" height="40" style="stroke: #D3D3D3; stroke-width: 1.5;" width="55" x="150.5" y="303"/><rect fill="#3C3F41" height="10" style="stroke: #D3D3D3; stroke-width: 1.5;" width="15" x="185.5" y="308"/><rect fill="#3C3F41" height="2" style="stroke: #D3D3D3; stroke-width: 1.5;" width="4" x="183.5" y="310"/><rect fill="#3C3F41" height="2" style="stroke: #D3D3D3; stroke-width: 1.5;" width="4" x="183.5" y="314"/><text fill="#D3D3D3" font-family="Ubuntu Mono" font-size="10" lengthAdjust="spacingAndGlyphs" textLength="15" x="165.5" y="331.3">mon</text><rect fill="#3C3F41" height="40" style="stroke: #D3D3D3; stroke-width: 1.5;" width="75" x="49.5" y="415"/><rect fill="#3C3F41" height="10" style="stroke: #D3D3D3; stroke-width: 1.5;" width="15" x="104.5" y="420"/><rect fill="#3C3F41" height="2" style="stroke: #D3D3D3; stroke-width: 1.5;" width="4" x="102.5" y="422"/><rect fill="#3C3F41" height="2" style="stroke: #D3D3D3; stroke-width: 1.5;" width="4" x="102.5" y="426"/><text fill="#D3D3D3" font-family="Ubuntu Mono" font-size="10" lengthAdjust="spacingAndGlyphs" textLength="35" x="64.5" y="443.3">mon-log</text><rect fill="#3C3F41" height="40" style="stroke: #D3D3D3; stroke-width: 1.5;" width="75" x="159.5" y="415"/><rect fill="#3C3F41" height="10" style="stroke: #D3D3D3; stroke-width: 1.5;" width="15" x="214.5" y="420"/><rect fill="#3C3F41" height="2" style="stroke: #D3D3D3; stroke-width: 1.5;" width="4" x="212.5" y="422"/><rect fill="#3C3F41" height="2" style="stroke: #D3D3D3; stroke-width: 1.5;" width="4" x="212.5" y="426"/><text fill="#D3D3D3" font-family="Ubuntu Mono" font-size="10" lengthAdjust="spacingAndGlyphs" textLength="35" x="174.5" y="443.3">mon-ntf</text><polygon fill="#3C3F41" points="38,137,38,230.9999,104,230.9999,104,147,94,137,38,137" style="stroke: #D3D3D3; stroke-width: 1.0;"/><line style="stroke: #D3D3D3; stroke-width: 1.0;" x1="94" x2="94" y1="137" y2="147"/><line style="stroke: #D3D3D3; stroke-width: 1.0;" x1="104" x2="94" y1="147" y2="147"/><text fill="#D3D3D3" font-family="Ubuntu Mono" font-size="14" font-weight="bold" lengthAdjust="spacingAndGlyphs" textLength="14" x="44" y="153.6199">DS</text><text fill="#D3D3D3" font-family="Ubuntu Mono" font-size="10" lengthAdjust="spacingAndGlyphs" textLength="10" x="44" y="164.2999">1.</text><text fill="#D3D3D3" font-family="Ubuntu Mono" font-size="10" lengthAdjust="spacingAndGlyphs" textLength="15" x="59" y="164.2999">plc</text><text fill="#D3D3D3" font-family="Ubuntu Mono" font-size="10" lengthAdjust="spacingAndGlyphs" textLength="10" x="59" y="174.2999">1.</text><text fill="#D3D3D3" font-family="Ubuntu Mono" font-size="10" lengthAdjust="spacingAndGlyphs" textLength="15" x="74" y="174.2999">sec</text><text fill="#D3D3D3" font-family="Ubuntu Mono" font-size="10" lengthAdjust="spacingAndGlyphs" textLength="10" x="59" y="184.2999">2.</text><text fill="#D3D3D3" font-family="Ubuntu Mono" font-size="10" lengthAdjust="spacingAndGlyphs" textLength="15" x="74" y="184.2999">prf</text><text fill="#D3D3D3" font-family="Ubuntu Mono" font-size="10" lengthAdjust="spacingAndGlyphs" textLength="10" x="59" y="194.2999">3.</text><text fill="#D3D3D3" font-family="Ubuntu Mono" font-size="10" lengthAdjust="spacingAndGlyphs" textLength="15" x="74" y="194.2999">ifc</text><text fill="#D3D3D3" font-family="Ubuntu Mono" font-size="10" lengthAdjust="spacingAndGlyphs" textLength="10" x="59" y="204.2999">4.</text><text fill="#D3D3D3" font-family="Ubuntu Mono" font-size="10" lengthAdjust="spacingAndGlyphs" textLength="15" x="74" y="204.2999">iop</text><text fill="#D3D3D3" font-family="Ubuntu Mono" font-size="10" lengthAdjust="spacingAndGlyphs" textLength="10" x="44" y="214.2999">2.</text><text fill="#D3D3D3" font-family="Ubuntu Mono" font-size="10" lengthAdjust="spacingAndGlyphs" textLength="15" x="59" y="214.2999">usr</text><text fill="#D3D3D3" font-family="Ubuntu Mono" font-size="10" lengthAdjust="spacingAndGlyphs" textLength="10" x="44" y="224.2999">3.</text><text fill="#D3D3D3" font-family="Ubuntu Mono" font-size="10" lengthAdjust="spacingAndGlyphs" textLength="15" x="59" y="224.2999">pth</text><path d="M194.615,184 C212.796,184 237.185,184 259.021,184 " fill="none" style="stroke: #D3D3D3; stroke-width: 1.0; stroke-dasharray: 7.0,7.0;"/><polygon fill="#D3D3D3" points="264.219,184,255.219,180,259.219,184,255.219,188,264.219,184" style="stroke: #D3D3D3; stroke-width: 1.0;"/><text fill="#D3D3D3" font-family="Ubuntu Mono" font-size="10" lengthAdjust="spacingAndGlyphs" textLength="15" x="222" y="178.3">run</text><path d="M168.94,209.158 C171.079,235.8 174.478,278.134 176.448,302.671 " fill="none" style="stroke: #D3D3D3; stroke-width: 1.0; stroke-dasharray: 7.0,7.0;"/><polygon fill="#D3D3D3" points="168.53,204.049,165.2628,213.3401,168.93,209.0329,173.2371,212.7001,168.53,204.049" style="stroke: #D3D3D3; stroke-width: 1.0;"/><text fill="#D3D3D3" font-family="Ubuntu Mono" font-size="10" lengthAdjust="spacingAndGlyphs" textLength="35" x="174" y="270.3">monitor</text><path d="M289.661,207.84 C263.697,234.384 221.305,277.725 196.906,302.671 " fill="none" style="stroke: #D3D3D3; stroke-width: 1.0; stroke-dasharray: 7.0,7.0;"/><polygon fill="#D3D3D3" points="293.368,204.049,284.2155,207.6864,289.872,207.6236,289.9348,213.2801,293.368,204.049" style="stroke: #D3D3D3; stroke-width: 1.0;"/><text fill="#D3D3D3" font-family="Ubuntu Mono" font-size="10" lengthAdjust="spacingAndGlyphs" textLength="35" x="237" y="270.3">monitor</text><path d="M162.149,343.161 C146.586,361.973 122.826,390.694 106.2,410.791 " fill="none" style="stroke: #D3D3D3; stroke-width: 1.0; stroke-dasharray: 7.0,7.0;"/><polygon fill="#D3D3D3" points="102.9747,414.69,111.7937,410.3054,106.162,410.8375,105.6298,405.2058,102.9747,414.69" style="stroke: #D3D3D3; stroke-width: 1.0;"/><text fill="#D3D3D3" font-family="Ubuntu Mono" font-size="10" lengthAdjust="spacingAndGlyphs" textLength="15" x="137" y="382.3">log</text><path d="M181.31,343.161 C184.491,361.581 189.314,389.5016 192.772,409.5239 " fill="none" style="stroke: #D3D3D3; stroke-width: 1.0; stroke-dasharray: 7.0,7.0;"/><polygon fill="#D3D3D3" points="193.665,414.69,196.0746,405.1404,192.8139,409.7629,188.1914,406.5022,193.665,414.69" style="stroke: #D3D3D3; stroke-width: 1.0;"/><text fill="#D3D3D3" font-family="Ubuntu Mono" font-size="10" lengthAdjust="spacingAndGlyphs" textLength="30" x="189" y="382.3">notify</text><text fill="#D3D3D3" font-family="Ubuntu Mono" font-size="10" lengthAdjust="spacingAndGlyphs" textLength="0" x="207.5" y="505.3"/><text fill="#D3D3D3" font-family="Ubuntu Mono" font-size="10" lengthAdjust="spacingAndGlyphs" textLength="80" x="165" y="515.3">© ITMS 2014-2015</text></g></svg>